{"glyphs":{"0":{"ha":856,"x_min":93,"x_max":763,"o":"m 428 -14 q 270 17 333 -14 q 169 101 207 47 q 114 224 131 154 q 94 369 97 293 q 94 446 94 407 q 94 524 93 485 q 94 603 94 564 q 113 749 96 679 q 169 872 131 818 q 270 956 207 925 q 428 986 333 986 q 585 956 522 986 q 687 872 649 925 q 742 749 725 818 q 761 603 760 679 q 763 524 763 564 q 763 446 763 485 q 761 369 763 407 q 742 224 760 293 q 687 101 725 154 q 585 17 649 47 q 428 -14 522 -14 m 428 69 q 611 151 551 69 q 674 376 671 233 q 675 452 675 417 q 675 523 675 488 q 674 596 675 558 q 611 819 671 736 q 428 903 551 903 q 245 819 306 903 q 182 596 185 736 q 181 523 182 558 q 181 452 181 488 q 182 376 182 417 q 245 151 185 233 q 428 69 306 69 z "},"1":{"ha":553,"x_min":38,"x_max":440,"o":"m 383 0 q 361 8 369 0 q 353 31 353 17 l 353 858 l 104 667 q 81 660 93 658 q 61 672 69 661 l 46 692 q 39 715 38 703 q 51 735 40 726 l 347 963 q 365 971 357 969 q 383 972 374 972 l 410 972 q 432 964 424 972 q 440 942 440 956 l 440 31 q 432 8 440 17 q 410 0 424 0 l 383 0 z "},"2":{"ha":778,"x_min":72,"x_max":704,"o":"m 103 0 q 81 8 89 0 q 72 31 72 17 l 72 51 q 80 78 72 65 q 107 110 88 92 l 467 469 q 547 554 519 518 q 585 626 575 590 q 596 704 596 661 q 542 850 596 797 q 390 903 489 903 q 282 878 328 903 q 210 808 236 853 q 175 703 183 763 q 163 678 174 686 q 143 671 151 671 l 115 671 q 94 678 101 671 q 86 697 86 686 q 106 795 88 744 q 160 889 124 846 q 254 959 197 932 q 390 986 311 986 q 560 946 496 986 q 654 842 625 906 q 683 704 683 778 q 667 599 683 647 q 617 506 650 551 q 532 414 583 461 l 207 83 l 672 83 q 696 75 688 83 q 704 51 704 67 l 704 31 q 696 8 704 17 q 672 0 688 0 l 103 0 z "},"3":{"ha":800,"x_min":65,"x_max":729,"o":"m 397 -14 q 258 6 319 -14 q 155 60 197 26 q 90 135 113 93 q 65 224 67 178 q 74 243 65 236 q 94 250 82 250 l 114 250 q 135 244 125 250 q 151 218 146 239 q 206 126 167 158 q 297 81 246 93 q 397 69 347 69 q 573 121 504 69 q 642 275 642 172 q 580 422 642 378 q 411 467 518 467 l 289 467 q 267 475 275 467 q 258 497 258 483 l 258 518 q 262 537 258 529 q 271 551 265 544 l 557 889 l 138 889 q 115 897 124 889 q 107 919 107 906 l 107 940 q 115 964 107 956 q 138 972 124 972 l 656 972 q 679 964 671 972 q 688 940 688 956 l 688 919 q 684 905 688 911 q 676 893 681 899 l 383 550 l 411 550 q 578 520 507 550 q 690 429 650 490 q 729 275 729 368 q 686 119 729 183 q 568 20 643 54 q 397 -14 493 -14 z "},"4":{"ha":826,"x_min":44,"x_max":778,"o":"m 564 0 q 542 8 550 0 q 533 31 533 17 l 533 250 l 75 250 q 53 258 61 250 q 44 281 44 267 l 44 303 q 47 318 44 306 q 60 344 50 331 l 482 949 q 533 972 499 972 l 590 972 q 613 964 604 972 q 621 942 621 956 l 621 333 l 747 333 q 769 325 761 333 q 778 303 778 317 l 778 281 q 769 258 778 267 q 747 250 761 250 l 621 250 l 621 31 q 613 8 621 17 q 590 0 604 0 l 564 0 m 154 333 l 533 333 l 533 874 l 154 333 z "},"5":{"ha":794,"x_min":68,"x_max":724,"o":"m 389 -14 q 217 24 288 -14 q 110 120 147 61 q 69 243 72 179 q 76 263 68 256 q 97 269 85 269 l 124 269 q 144 264 135 269 q 158 238 153 258 q 209 140 174 178 q 292 86 244 103 q 389 69 339 69 q 513 97 457 69 q 603 179 569 125 q 636 311 636 233 q 603 434 636 383 q 513 512 569 485 q 389 539 457 539 q 304 526 338 539 q 249 497 271 514 q 208 468 226 481 q 168 456 190 456 l 143 456 q 121 465 131 456 q 113 486 111 474 l 154 940 q 163 964 156 956 q 185 972 171 972 l 638 972 q 660 964 651 972 q 668 942 668 956 l 668 919 q 660 897 668 906 q 638 889 651 889 l 239 889 l 210 575 q 268 603 225 585 q 389 622 311 622 q 519 602 458 622 q 626 542 579 582 q 698 445 672 503 q 724 311 724 388 q 678 131 724 203 q 558 22 633 58 q 389 -14 482 -14 z "},"6":{"ha":808,"x_min":76,"x_max":751,"o":"m 414 -14 q 228 33 303 -14 q 115 156 153 81 q 76 314 76 231 q 85 391 76 354 q 108 460 94 428 q 137 517 122 492 q 164 560 151 543 l 438 944 q 453 962 444 951 q 481 972 463 972 l 507 972 q 527 963 519 972 q 535 942 535 954 q 533 931 535 936 q 528 924 531 926 l 319 629 q 365 638 339 635 q 414 640 392 640 q 560 613 497 640 q 666 540 624 586 q 730 435 708 494 q 751 314 751 376 q 713 156 751 231 q 600 33 675 81 q 414 -14 525 -14 m 414 69 q 536 97 479 69 q 628 180 593 125 q 664 314 664 235 q 628 447 664 393 q 536 529 593 501 q 414 557 479 557 q 292 529 349 557 q 199 447 235 501 q 164 314 164 393 q 199 180 164 235 q 292 97 235 125 q 414 69 349 69 z "},"7":{"ha":676,"x_min":40,"x_max":639,"o":"m 213 0 q 192 9 200 0 q 185 31 185 18 q 188 43 185 35 l 544 889 l 71 889 q 49 897 57 889 q 40 919 40 906 l 40 940 q 49 964 40 956 q 71 972 57 972 l 607 972 q 631 964 622 972 q 639 940 639 956 l 639 919 q 637 892 639 903 q 629 868 635 882 l 278 35 q 265 12 272 24 q 242 0 257 0 l 213 0 z "},"8":{"ha":858,"x_min":83,"x_max":775,"o":"m 429 -14 q 295 5 358 -14 q 185 60 232 24 q 110 151 138 97 q 83 274 83 204 q 126 424 83 363 q 240 519 169 486 q 151 604 185 551 q 118 731 118 657 q 160 872 118 815 q 272 957 201 928 q 429 986 343 986 q 586 957 515 986 q 699 872 657 928 q 740 731 740 815 q 707 604 740 657 q 618 519 674 551 q 732 424 689 486 q 775 274 775 363 q 728 117 775 181 q 603 19 682 53 q 429 -14 525 -14 m 429 69 q 560 94 501 69 q 653 165 618 119 q 688 274 688 211 q 653 383 688 338 q 560 452 618 428 q 429 476 501 476 q 299 452 358 476 q 206 383 240 428 q 171 274 171 338 q 206 165 171 211 q 299 94 240 119 q 429 69 358 69 m 429 560 q 540 582 489 561 q 622 640 590 603 q 653 731 653 678 q 623 823 653 785 q 542 882 593 861 q 429 903 492 903 q 317 882 368 903 q 235 823 265 861 q 206 731 206 785 q 235 638 206 676 q 317 580 265 600 q 429 560 368 560 z "},"9":{"ha":794,"x_min":58,"x_max":718,"o":"m 279 0 q 259 9 267 0 q 251 31 251 18 q 254 42 251 38 q 258 49 257 46 l 478 357 q 388 346 436 346 q 242 374 304 346 q 140 448 181 401 q 78 551 99 494 q 58 665 58 607 q 78 781 58 724 q 140 884 99 838 q 242 958 181 931 q 388 986 304 986 q 533 958 471 986 q 636 884 594 931 q 698 781 678 838 q 718 665 718 724 q 704 567 718 611 q 672 489 690 522 q 636 432 653 456 l 350 28 q 335 10 344 21 q 307 0 326 0 l 279 0 m 388 429 q 508 458 453 429 q 597 540 564 488 q 631 665 631 593 q 597 792 631 739 q 508 874 564 844 q 388 903 453 903 q 267 874 322 903 q 179 792 213 844 q 146 665 146 739 q 179 540 146 593 q 267 458 213 488 q 388 429 322 429 z "},"A":{"ha":903,"x_min":33,"x_max":869,"o":"m 61 0 q 42 8 50 0 q 33 28 33 17 q 36 43 33 35 l 388 944 q 402 965 393 958 q 428 972 411 972 l 475 972 q 501 965 492 972 q 515 944 510 958 l 867 43 q 869 28 869 35 q 861 8 869 17 q 842 0 853 0 l 814 0 q 793 8 800 0 q 783 21 786 15 l 697 243 l 206 243 l 119 21 q 110 8 118 15 q 89 0 103 0 l 61 0 m 239 326 l 664 326 l 451 874 l 239 326 z "},"Á":{"ha":903,"x_min":33,"x_max":869,"o":"m 61 0 q 42 8 50 0 q 33 28 33 17 q 36 43 33 35 l 388 944 q 402 965 393 958 q 428 972 411 972 l 475 972 q 501 965 492 972 q 515 944 510 958 l 867 43 q 869 28 869 35 q 861 8 869 17 q 842 0 853 0 l 814 0 q 793 8 800 0 q 783 21 786 15 l 697 243 l 206 243 l 119 21 q 110 8 118 15 q 89 0 103 0 l 61 0 m 239 326 l 664 326 l 451 874 l 239 326 m 435 1042 q 413 1064 413 1042 q 419 1082 413 1075 l 515 1197 q 536 1217 526 1211 q 567 1222 546 1222 l 631 1222 q 657 1196 657 1222 q 650 1179 657 1186 l 499 1056 q 478 1044 488 1046 q 456 1042 469 1042 l 435 1042 z "},"Ă":{"ha":903,"x_min":33,"x_max":869,"o":"m 61 0 q 42 8 50 0 q 33 28 33 17 q 36 43 33 35 l 388 944 q 402 965 393 958 q 428 972 411 972 l 475 972 q 501 965 492 972 q 515 944 510 958 l 867 43 q 869 28 869 35 q 861 8 869 17 q 842 0 853 0 l 814 0 q 793 8 800 0 q 783 21 786 15 l 697 243 l 206 243 l 119 21 q 110 8 118 15 q 89 0 103 0 l 61 0 m 239 326 l 664 326 l 451 874 l 239 326 m 451 1028 q 354 1051 389 1028 q 306 1113 319 1075 q 292 1189 292 1150 q 299 1208 292 1200 q 318 1215 306 1215 l 339 1215 q 358 1208 351 1215 q 365 1189 365 1200 q 383 1126 365 1156 q 451 1097 400 1097 q 520 1126 503 1097 q 538 1189 538 1156 q 544 1208 538 1200 q 564 1215 551 1215 l 585 1215 q 604 1208 597 1215 q 611 1189 611 1200 q 597 1113 611 1150 q 549 1051 583 1075 q 451 1028 515 1028 z "},"Â":{"ha":903,"x_min":33,"x_max":869,"o":"m 61 0 q 42 8 50 0 q 33 28 33 17 q 36 43 33 35 l 388 944 q 402 965 393 958 q 428 972 411 972 l 475 972 q 501 965 492 972 q 515 944 510 958 l 867 43 q 869 28 869 35 q 861 8 869 17 q 842 0 853 0 l 814 0 q 793 8 800 0 q 783 21 786 15 l 697 243 l 206 243 l 119 21 q 110 8 118 15 q 89 0 103 0 l 61 0 m 239 326 l 664 326 l 451 874 l 239 326 m 282 1042 q 263 1057 263 1042 q 279 1085 263 1068 l 400 1203 q 425 1220 415 1218 q 444 1222 435 1222 l 458 1222 q 479 1220 469 1222 q 503 1203 489 1218 l 624 1085 q 640 1057 640 1068 q 621 1042 640 1042 l 597 1042 q 578 1044 589 1042 q 563 1051 568 1047 l 451 1135 l 340 1051 q 324 1044 335 1047 q 306 1042 314 1042 l 282 1042 z "},"Ä":{"ha":903,"x_min":33,"x_max":869,"o":"m 61 0 q 42 8 50 0 q 33 28 33 17 q 36 43 33 35 l 388 944 q 402 965 393 958 q 428 972 411 972 l 475 972 q 501 965 492 972 q 515 944 510 958 l 867 43 q 869 28 869 35 q 861 8 869 17 q 842 0 853 0 l 814 0 q 793 8 800 0 q 783 21 786 15 l 697 243 l 206 243 l 119 21 q 110 8 118 15 q 89 0 103 0 l 61 0 m 239 326 l 664 326 l 451 874 l 239 326 m 551 1042 q 529 1050 538 1042 q 521 1072 521 1058 l 521 1125 q 529 1148 521 1139 q 551 1157 538 1157 l 604 1157 q 627 1148 618 1157 q 636 1125 636 1139 l 636 1072 q 627 1050 636 1058 q 604 1042 618 1042 l 551 1042 m 297 1042 q 275 1050 283 1042 q 267 1072 267 1058 l 267 1125 q 275 1148 267 1139 q 297 1157 283 1157 l 350 1157 q 373 1148 364 1157 q 382 1125 382 1139 l 382 1072 q 373 1050 382 1058 q 350 1042 364 1042 l 297 1042 z "},"À":{"ha":903,"x_min":33,"x_max":869,"o":"m 61 0 q 42 8 50 0 q 33 28 33 17 q 36 43 33 35 l 388 944 q 402 965 393 958 q 428 972 411 972 l 475 972 q 501 965 492 972 q 515 944 510 958 l 867 43 q 869 28 869 35 q 861 8 869 17 q 842 0 853 0 l 814 0 q 793 8 800 0 q 783 21 786 15 l 697 243 l 206 243 l 119 21 q 110 8 118 15 q 89 0 103 0 l 61 0 m 239 326 l 664 326 l 451 874 l 239 326 m 461 1042 q 438 1044 447 1042 q 418 1056 429 1046 l 267 1179 q 260 1196 260 1186 q 286 1222 260 1222 l 350 1222 q 381 1217 371 1222 q 401 1197 390 1211 l 497 1082 q 504 1064 504 1075 q 482 1042 504 1042 l 461 1042 z "},"Ā":{"ha":903,"x_min":33,"x_max":869,"o":"m 61 0 q 42 8 50 0 q 33 28 33 17 q 36 43 33 35 l 388 944 q 402 965 393 958 q 428 972 411 972 l 475 972 q 501 965 492 972 q 515 944 510 958 l 867 43 q 869 28 869 35 q 861 8 869 17 q 842 0 853 0 l 814 0 q 793 8 800 0 q 783 21 786 15 l 697 243 l 206 243 l 119 21 q 110 8 118 15 q 89 0 103 0 l 61 0 m 239 326 l 664 326 l 451 874 l 239 326 m 313 1042 q 290 1050 299 1042 q 282 1072 282 1058 l 282 1103 q 290 1125 282 1117 q 313 1133 299 1133 l 589 1133 q 611 1125 603 1133 q 619 1103 619 1117 l 619 1072 q 611 1050 619 1058 q 589 1042 603 1042 l 313 1042 z "},"Ą":{"ha":903,"x_min":33,"x_max":869,"o":"m 796 -306 q 699 -282 740 -306 q 635 -215 657 -258 q 613 -114 613 -172 q 653 16 613 -35 q 761 76 693 67 q 759 82 760 79 q 757 88 758 85 l 697 243 l 206 243 l 119 21 q 110 8 118 15 q 89 0 103 0 l 61 0 q 42 8 50 0 q 33 28 33 17 q 36 43 33 35 l 388 944 q 402 965 393 958 q 428 972 411 972 l 475 972 q 501 965 492 972 q 515 944 510 958 l 867 43 q 869 28 869 35 q 861 8 869 17 q 842 0 853 0 l 801 0 q 726 -31 756 0 q 696 -114 696 -61 q 726 -197 696 -167 q 801 -226 756 -226 l 822 -226 q 844 -235 836 -226 q 853 -257 853 -243 l 853 -275 q 844 -297 853 -289 q 822 -306 836 -306 l 796 -306 m 239 326 l 664 326 l 451 874 l 239 326 z "},"Å":{"ha":903,"x_min":33,"x_max":869,"o":"m 61 0 q 42 8 50 0 q 33 28 33 17 q 36 43 33 35 l 388 944 q 402 965 393 958 q 428 972 411 972 l 475 972 q 501 965 492 972 q 515 944 510 958 l 867 43 q 869 28 869 35 q 861 8 869 17 q 842 0 853 0 l 814 0 q 793 8 800 0 q 783 21 786 15 l 697 243 l 206 243 l 119 21 q 110 8 118 15 q 89 0 103 0 l 61 0 m 239 326 l 664 326 l 451 874 l 239 326 m 451 1028 q 373 1057 406 1028 q 340 1132 340 1086 q 373 1207 340 1178 q 451 1236 406 1236 q 530 1207 497 1236 q 563 1132 563 1178 q 530 1057 563 1086 q 451 1028 497 1028 m 451 1090 q 481 1102 469 1090 q 493 1132 493 1114 q 481 1162 493 1150 q 451 1174 469 1174 q 422 1162 433 1174 q 410 1132 410 1150 q 422 1102 410 1114 q 451 1090 433 1090 z "},"Ã":{"ha":903,"x_min":33,"x_max":869,"o":"m 61 0 q 42 8 50 0 q 33 28 33 17 q 36 43 33 35 l 388 944 q 402 965 393 958 q 428 972 411 972 l 475 972 q 501 965 492 972 q 515 944 510 958 l 867 43 q 869 28 869 35 q 861 8 869 17 q 842 0 853 0 l 814 0 q 793 8 800 0 q 783 21 786 15 l 697 243 l 206 243 l 119 21 q 110 8 118 15 q 89 0 103 0 l 61 0 m 239 326 l 664 326 l 451 874 l 239 326 m 519 1035 q 465 1047 488 1035 q 423 1070 442 1058 q 385 1082 404 1082 q 363 1072 369 1082 q 349 1052 356 1063 q 328 1042 343 1042 l 300 1042 q 284 1049 290 1042 q 278 1064 278 1056 q 285 1103 278 1083 q 308 1138 293 1122 q 341 1163 322 1154 q 381 1172 360 1172 q 437 1160 414 1172 q 478 1137 460 1149 q 517 1125 497 1125 q 540 1135 533 1125 q 552 1156 546 1146 q 574 1167 558 1167 l 601 1167 q 618 1160 613 1167 q 624 1144 624 1153 q 615 1106 624 1125 q 592 1070 607 1086 q 559 1044 578 1054 q 519 1035 540 1035 z "},"Æ":{"ha":1278,"x_min":7,"x_max":1201,"o":"m 35 0 q 15 8 24 0 q 7 28 7 17 q 13 47 7 36 q 16 53 13 47 q 34 85 19 60 q 81 167 49 111 q 168 322 113 224 q 310 574 224 421 q 521 946 397 726 q 538 967 529 961 q 557 972 547 972 l 1158 972 q 1182 964 1174 972 q 1190 940 1190 956 l 1190 919 q 1182 897 1190 906 q 1158 889 1174 889 l 674 889 l 674 535 l 1128 535 q 1151 526 1143 535 q 1160 503 1160 518 l 1160 482 q 1151 460 1160 468 q 1128 451 1143 451 l 674 451 l 674 83 l 1169 83 q 1193 75 1185 83 q 1201 51 1201 67 l 1201 31 q 1193 8 1201 17 q 1169 0 1185 0 l 617 0 q 594 8 603 0 q 586 31 586 17 l 586 243 l 222 243 q 151 115 176 161 q 114 49 125 69 q 100 25 103 29 q 97 21 97 21 q 84 6 92 11 q 67 0 76 0 l 35 0 m 269 326 l 586 326 l 586 879 l 585 879 l 269 326 z "},"Ǽ":{"ha":1278,"x_min":7,"x_max":1201,"o":"m 35 0 q 15 8 24 0 q 7 28 7 17 q 13 47 7 36 q 16 53 13 47 q 34 85 19 60 q 81 167 49 111 q 168 322 113 224 q 310 574 224 421 q 521 946 397 726 q 538 967 529 961 q 557 972 547 972 l 1158 972 q 1182 964 1174 972 q 1190 940 1190 956 l 1190 919 q 1182 897 1190 906 q 1158 889 1174 889 l 674 889 l 674 535 l 1128 535 q 1151 526 1143 535 q 1160 503 1160 518 l 1160 482 q 1151 460 1160 468 q 1128 451 1143 451 l 674 451 l 674 83 l 1169 83 q 1193 75 1185 83 q 1201 51 1201 67 l 1201 31 q 1193 8 1201 17 q 1169 0 1185 0 l 617 0 q 594 8 603 0 q 586 31 586 17 l 586 243 l 222 243 q 151 115 176 161 q 114 49 125 69 q 100 25 103 29 q 97 21 97 21 q 84 6 92 11 q 67 0 76 0 l 35 0 m 269 326 l 586 326 l 586 879 l 585 879 l 269 326 m 622 1042 q 600 1064 600 1042 q 607 1082 600 1075 l 703 1197 q 724 1217 714 1211 q 754 1222 733 1222 l 818 1222 q 844 1196 844 1222 q 838 1179 844 1186 l 686 1056 q 666 1044 675 1046 q 643 1042 657 1042 l 622 1042 z "},"B":{"ha":907,"x_min":131,"x_max":822,"o":"m 161 0 q 139 8 147 0 q 131 31 131 17 l 131 940 q 139 964 131 956 q 161 972 147 972 l 524 972 q 683 938 621 972 q 774 847 744 903 q 803 724 803 790 q 784 622 803 664 q 737 553 765 579 q 681 513 708 526 q 779 424 736 485 q 822 275 822 363 q 790 142 822 206 q 692 40 757 79 q 533 0 628 0 l 161 0 m 218 83 l 519 83 q 678 138 622 83 q 735 275 735 192 q 678 413 735 360 q 519 467 622 467 l 218 467 l 218 83 m 218 550 l 506 550 q 662 596 608 550 q 715 724 715 642 q 662 847 715 806 q 506 889 608 889 l 218 889 l 218 550 z "},"C":{"ha":904,"x_min":90,"x_max":832,"o":"m 460 -14 q 253 35 333 -14 q 135 169 174 85 q 92 363 96 254 q 90 485 90 419 q 92 610 90 550 q 135 803 96 718 q 253 938 174 889 q 460 986 333 986 q 628 958 558 986 q 741 885 697 931 q 806 788 785 840 q 831 686 828 736 q 823 666 832 674 q 801 658 814 658 l 774 658 q 754 665 763 658 q 743 688 746 671 q 644 857 717 811 q 460 903 571 903 q 259 831 333 903 q 179 603 185 760 q 179 369 175 489 q 259 141 185 213 q 460 69 333 69 q 644 115 571 69 q 743 285 717 161 q 754 308 746 301 q 774 314 763 314 l 801 314 q 823 306 814 314 q 831 286 832 299 q 806 184 828 236 q 741 87 785 132 q 628 14 697 42 q 460 -14 558 -14 z "},"Ć":{"ha":904,"x_min":90,"x_max":832,"o":"m 460 -14 q 253 35 333 -14 q 135 169 174 85 q 92 363 96 254 q 90 485 90 419 q 92 610 90 550 q 135 803 96 718 q 253 938 174 889 q 460 986 333 986 q 628 958 558 986 q 741 885 697 931 q 806 788 785 840 q 831 686 828 736 q 823 666 832 674 q 801 658 814 658 l 774 658 q 754 665 763 658 q 743 688 746 671 q 644 857 717 811 q 460 903 571 903 q 259 831 333 903 q 179 603 185 760 q 179 369 175 489 q 259 141 185 213 q 460 69 333 69 q 644 115 571 69 q 743 285 717 161 q 754 308 746 301 q 774 314 763 314 l 801 314 q 823 306 814 314 q 831 286 832 299 q 806 184 828 236 q 741 87 785 132 q 628 14 697 42 q 460 -14 558 -14 m 436 1042 q 414 1064 414 1042 q 421 1082 414 1075 l 517 1197 q 538 1217 528 1211 q 568 1222 547 1222 l 632 1222 q 658 1196 658 1222 q 651 1179 658 1186 l 500 1056 q 480 1044 489 1046 q 457 1042 471 1042 l 436 1042 z "},"Č":{"ha":904,"x_min":90,"x_max":832,"o":"m 460 -14 q 253 35 333 -14 q 135 169 174 85 q 92 363 96 254 q 90 485 90 419 q 92 610 90 550 q 135 803 96 718 q 253 938 174 889 q 460 986 333 986 q 628 958 558 986 q 741 885 697 931 q 806 788 785 840 q 831 686 828 736 q 823 666 832 674 q 801 658 814 658 l 774 658 q 754 665 763 658 q 743 688 746 671 q 644 857 717 811 q 460 903 571 903 q 259 831 333 903 q 179 603 185 760 q 179 369 175 489 q 259 141 185 213 q 460 69 333 69 q 644 115 571 69 q 743 285 717 161 q 754 308 746 301 q 774 314 763 314 l 801 314 q 823 306 814 314 q 831 286 832 299 q 806 184 828 236 q 741 87 785 132 q 628 14 697 42 q 460 -14 558 -14 m 446 1042 q 426 1044 436 1042 q 401 1061 417 1047 l 281 1179 q 264 1207 264 1196 q 283 1222 264 1222 l 307 1222 q 326 1219 315 1222 q 342 1213 336 1217 l 453 1129 l 564 1213 q 580 1219 569 1217 q 599 1222 590 1222 l 622 1222 q 642 1207 642 1222 q 625 1179 642 1196 l 504 1061 q 481 1044 490 1047 q 460 1042 471 1042 l 446 1042 z "},"Ç":{"ha":904,"x_min":90,"x_max":832,"o":"m 456 -306 q 387 -291 417 -304 q 344 -261 357 -278 q 342 -235 331 -244 l 361 -217 q 383 -212 374 -206 q 409 -231 393 -219 q 456 -242 425 -242 q 497 -227 479 -242 q 515 -186 515 -212 q 497 -147 515 -161 q 456 -133 479 -133 q 419 -140 433 -133 q 394 -148 404 -146 q 372 -139 383 -150 l 350 -115 q 348 -95 343 -107 q 357 -74 353 -83 l 385 -8 q 222 58 285 7 q 127 187 158 108 q 92 363 96 265 q 90 485 90 419 q 92 610 90 550 q 135 803 96 718 q 253 938 174 889 q 460 986 333 986 q 628 958 558 986 q 741 885 697 931 q 806 788 785 840 q 831 686 828 736 q 823 666 832 674 q 801 658 814 658 l 774 658 q 754 665 763 658 q 743 688 746 671 q 644 857 717 811 q 460 903 571 903 q 259 831 333 903 q 179 603 185 760 q 179 369 175 489 q 259 141 185 213 q 460 69 333 69 q 644 115 571 69 q 743 285 717 161 q 754 308 746 301 q 774 314 763 314 l 801 314 q 823 306 814 314 q 831 286 832 299 q 806 184 828 236 q 741 87 785 132 q 628 14 697 42 q 460 -14 558 -14 l 428 -81 q 451 -72 436 -75 q 481 -69 465 -69 q 556 -101 526 -69 q 586 -183 586 -133 q 553 -270 586 -233 q 456 -306 521 -307 z "},"Ĉ":{"ha":904,"x_min":90,"x_max":832,"o":"m 460 -14 q 253 35 333 -14 q 135 169 174 85 q 92 363 96 254 q 90 485 90 419 q 92 610 90 550 q 135 803 96 718 q 253 938 174 889 q 460 986 333 986 q 628 958 558 986 q 741 885 697 931 q 806 788 785 840 q 831 686 828 736 q 823 666 832 674 q 801 658 814 658 l 774 658 q 754 665 763 658 q 743 688 746 671 q 644 857 717 811 q 460 903 571 903 q 259 831 333 903 q 179 603 185 760 q 179 369 175 489 q 259 141 185 213 q 460 69 333 69 q 644 115 571 69 q 743 285 717 161 q 754 308 746 301 q 774 314 763 314 l 801 314 q 823 306 814 314 q 831 286 832 299 q 806 184 828 236 q 741 87 785 132 q 628 14 697 42 q 460 -14 558 -14 m 283 1042 q 264 1057 264 1042 q 281 1085 264 1068 l 401 1203 q 426 1220 417 1218 q 446 1222 436 1222 l 460 1222 q 481 1220 471 1222 q 504 1203 490 1218 l 625 1085 q 642 1057 642 1068 q 622 1042 642 1042 l 599 1042 q 580 1044 590 1042 q 564 1051 569 1047 l 453 1135 l 342 1051 q 326 1044 336 1047 q 307 1042 315 1042 l 283 1042 z "},"Ċ":{"ha":904,"x_min":90,"x_max":832,"o":"m 460 -14 q 253 35 333 -14 q 135 169 174 85 q 92 363 96 254 q 90 485 90 419 q 92 610 90 550 q 135 803 96 718 q 253 938 174 889 q 460 986 333 986 q 628 958 558 986 q 741 885 697 931 q 806 788 785 840 q 831 686 828 736 q 823 666 832 674 q 801 658 814 658 l 774 658 q 754 665 763 658 q 743 688 746 671 q 644 857 717 811 q 460 903 571 903 q 259 831 333 903 q 179 603 185 760 q 179 369 175 489 q 259 141 185 213 q 460 69 333 69 q 644 115 571 69 q 743 285 717 161 q 754 308 746 301 q 774 314 763 314 l 801 314 q 823 306 814 314 q 831 286 832 299 q 806 184 828 236 q 741 87 785 132 q 628 14 697 42 q 460 -14 558 -14 m 418 1042 q 396 1050 404 1042 q 388 1072 388 1058 l 388 1139 q 396 1162 388 1153 q 418 1171 404 1171 l 485 1171 q 508 1162 499 1171 q 517 1139 517 1153 l 517 1072 q 508 1050 517 1058 q 485 1042 499 1042 l 418 1042 z "},"D":{"ha":940,"x_min":131,"x_max":844,"o":"m 161 0 q 139 8 147 0 q 131 31 131 17 l 131 940 q 139 964 131 956 q 161 972 147 972 l 457 972 q 688 929 604 972 q 806 802 771 886 q 843 597 842 718 q 844 487 844 535 q 843 376 844 439 q 806 165 840 249 q 689 41 771 82 q 464 0 607 0 l 161 0 m 218 83 l 457 83 q 633 113 568 83 q 726 209 697 143 q 756 383 754 275 q 757 456 757 425 q 757 518 757 488 q 756 590 757 549 q 685 816 753 743 q 450 889 617 889 l 218 889 l 218 83 z "},"Ð":{"ha":949,"x_min":21,"x_max":853,"o":"m 169 0 q 147 8 156 0 q 139 31 139 17 l 139 447 l 51 447 q 29 456 38 447 q 21 478 21 464 l 21 500 q 29 522 21 514 q 51 531 38 531 l 139 531 l 139 940 q 147 964 139 956 q 169 972 156 972 l 465 972 q 696 929 613 972 q 815 802 779 886 q 851 597 850 718 q 853 487 853 535 q 851 376 853 439 q 814 165 849 249 q 697 41 779 82 q 472 0 615 0 l 169 0 m 226 83 l 465 83 q 640 113 576 83 q 733 209 704 143 q 764 383 763 275 q 765 456 765 425 q 765 518 765 488 q 764 590 765 549 q 693 816 761 743 q 458 889 625 889 l 226 889 l 226 531 l 435 531 q 457 522 449 531 q 465 500 465 514 l 465 478 q 457 456 465 464 q 435 447 449 447 l 226 447 l 226 83 z "},"Ď":{"ha":940,"x_min":131,"x_max":844,"o":"m 161 0 q 139 8 147 0 q 131 31 131 17 l 131 940 q 139 964 131 956 q 161 972 147 972 l 457 972 q 688 929 604 972 q 806 802 771 886 q 843 597 842 718 q 844 487 844 535 q 843 376 844 439 q 806 165 840 249 q 689 41 771 82 q 464 0 607 0 l 161 0 m 218 83 l 457 83 q 633 113 568 83 q 726 209 697 143 q 756 383 754 275 q 757 456 757 425 q 757 518 757 488 q 756 590 757 549 q 685 816 753 743 q 450 889 617 889 l 218 889 l 218 83 m 464 1042 q 444 1044 454 1042 q 419 1061 435 1047 l 299 1179 q 282 1207 282 1196 q 301 1222 282 1222 l 325 1222 q 344 1219 333 1222 q 360 1213 354 1217 l 471 1129 l 582 1213 q 598 1219 588 1217 q 617 1222 608 1222 l 640 1222 q 660 1207 660 1222 q 643 1179 660 1196 l 522 1061 q 499 1044 508 1047 q 478 1042 489 1042 l 464 1042 z "},"Đ":{"ha":949,"x_min":21,"x_max":853,"o":"m 169 0 q 147 8 156 0 q 139 31 139 17 l 139 447 l 51 447 q 29 456 38 447 q 21 478 21 464 l 21 500 q 29 522 21 514 q 51 531 38 531 l 139 531 l 139 940 q 147 964 139 956 q 169 972 156 972 l 465 972 q 696 929 613 972 q 815 802 779 886 q 851 597 850 718 q 853 487 853 535 q 851 376 853 439 q 814 165 849 249 q 697 41 779 82 q 472 0 615 0 l 169 0 m 226 83 l 465 83 q 640 113 576 83 q 733 209 704 143 q 764 383 763 275 q 765 456 765 425 q 765 518 765 488 q 764 590 765 549 q 693 816 761 743 q 458 889 625 889 l 226 889 l 226 531 l 435 531 q 457 522 449 531 q 465 500 465 514 l 465 478 q 457 456 465 464 q 435 447 449 447 l 226 447 l 226 83 z "},"E":{"ha":822,"x_min":131,"x_max":746,"o":"m 161 0 q 139 8 147 0 q 131 31 131 17 l 131 940 q 139 964 131 956 q 161 972 147 972 l 703 972 q 726 964 718 972 q 735 940 735 956 l 735 919 q 726 897 735 906 q 703 889 718 889 l 218 889 l 218 535 l 672 535 q 696 526 688 535 q 704 503 704 518 l 704 482 q 696 460 704 468 q 672 451 688 451 l 218 451 l 218 83 l 714 83 q 738 75 729 83 q 746 51 746 67 l 746 31 q 738 8 746 17 q 714 0 729 0 l 161 0 z "},"É":{"ha":822,"x_min":131,"x_max":746,"o":"m 161 0 q 139 8 147 0 q 131 31 131 17 l 131 940 q 139 964 131 956 q 161 972 147 972 l 703 972 q 726 964 718 972 q 735 940 735 956 l 735 919 q 726 897 735 906 q 703 889 718 889 l 218 889 l 218 535 l 672 535 q 696 526 688 535 q 704 503 704 518 l 704 482 q 696 460 704 468 q 672 451 688 451 l 218 451 l 218 83 l 714 83 q 738 75 729 83 q 746 51 746 67 l 746 31 q 738 8 746 17 q 714 0 729 0 l 161 0 m 394 1042 q 372 1064 372 1042 q 379 1082 372 1075 l 475 1197 q 496 1217 486 1211 q 526 1222 506 1222 l 590 1222 q 617 1196 617 1222 q 610 1179 617 1186 l 458 1056 q 438 1044 447 1046 q 415 1042 429 1042 l 394 1042 z "},"Ĕ":{"ha":822,"x_min":131,"x_max":746,"o":"m 161 0 q 139 8 147 0 q 131 31 131 17 l 131 940 q 139 964 131 956 q 161 972 147 972 l 703 972 q 726 964 718 972 q 735 940 735 956 l 735 919 q 726 897 735 906 q 703 889 718 889 l 218 889 l 218 535 l 672 535 q 696 526 688 535 q 704 503 704 518 l 704 482 q 696 460 704 468 q 672 451 688 451 l 218 451 l 218 83 l 714 83 q 738 75 729 83 q 746 51 746 67 l 746 31 q 738 8 746 17 q 714 0 729 0 l 161 0 m 411 1028 q 314 1051 349 1028 q 265 1113 279 1075 q 251 1189 251 1150 q 258 1208 251 1200 q 278 1215 265 1215 l 299 1215 q 318 1208 311 1215 q 325 1189 325 1200 q 342 1126 325 1156 q 411 1097 360 1097 q 480 1126 463 1097 q 497 1189 497 1156 q 504 1208 497 1200 q 524 1215 511 1215 l 544 1215 q 564 1208 557 1215 q 571 1189 571 1200 q 557 1113 571 1150 q 509 1051 543 1075 q 411 1028 475 1028 z "},"Ě":{"ha":822,"x_min":131,"x_max":746,"o":"m 161 0 q 139 8 147 0 q 131 31 131 17 l 131 940 q 139 964 131 956 q 161 972 147 972 l 703 972 q 726 964 718 972 q 735 940 735 956 l 735 919 q 726 897 735 906 q 703 889 718 889 l 218 889 l 218 535 l 672 535 q 696 526 688 535 q 704 503 704 518 l 704 482 q 696 460 704 468 q 672 451 688 451 l 218 451 l 218 83 l 714 83 q 738 75 729 83 q 746 51 746 67 l 746 31 q 738 8 746 17 q 714 0 729 0 l 161 0 m 404 1042 q 385 1044 394 1042 q 360 1061 375 1047 l 239 1179 q 222 1207 222 1196 q 242 1222 222 1222 l 265 1222 q 284 1219 274 1222 q 300 1213 294 1217 l 411 1129 l 522 1213 q 538 1219 528 1217 q 557 1222 549 1222 l 581 1222 q 600 1207 600 1222 q 583 1179 600 1196 l 463 1061 q 439 1044 449 1047 q 418 1042 429 1042 l 404 1042 z "},"Ê":{"ha":822,"x_min":131,"x_max":746,"o":"m 161 0 q 139 8 147 0 q 131 31 131 17 l 131 940 q 139 964 131 956 q 161 972 147 972 l 703 972 q 726 964 718 972 q 735 940 735 956 l 735 919 q 726 897 735 906 q 703 889 718 889 l 218 889 l 218 535 l 672 535 q 696 526 688 535 q 704 503 704 518 l 704 482 q 696 460 704 468 q 672 451 688 451 l 218 451 l 218 83 l 714 83 q 738 75 729 83 q 746 51 746 67 l 746 31 q 738 8 746 17 q 714 0 729 0 l 161 0 m 242 1042 q 222 1057 222 1042 q 239 1085 222 1068 l 360 1203 q 385 1220 375 1218 q 404 1222 394 1222 l 418 1222 q 439 1220 429 1222 q 463 1203 449 1218 l 583 1085 q 600 1057 600 1068 q 581 1042 600 1042 l 557 1042 q 538 1044 549 1042 q 522 1051 528 1047 l 411 1135 l 300 1051 q 284 1044 294 1047 q 265 1042 274 1042 l 242 1042 z "},"Ë":{"ha":822,"x_min":131,"x_max":746,"o":"m 161 0 q 139 8 147 0 q 131 31 131 17 l 131 940 q 139 964 131 956 q 161 972 147 972 l 703 972 q 726 964 718 972 q 735 940 735 956 l 735 919 q 726 897 735 906 q 703 889 718 889 l 218 889 l 218 535 l 672 535 q 696 526 688 535 q 704 503 704 518 l 704 482 q 696 460 704 468 q 672 451 688 451 l 218 451 l 218 83 l 714 83 q 738 75 729 83 q 746 51 746 67 l 746 31 q 738 8 746 17 q 714 0 729 0 l 161 0 m 511 1042 q 489 1050 497 1042 q 481 1072 481 1058 l 481 1125 q 489 1148 481 1139 q 511 1157 497 1157 l 564 1157 q 587 1148 578 1157 q 596 1125 596 1139 l 596 1072 q 587 1050 596 1058 q 564 1042 578 1042 l 511 1042 m 257 1042 q 235 1050 243 1042 q 226 1072 226 1058 l 226 1125 q 235 1148 226 1139 q 257 1157 243 1157 l 310 1157 q 333 1148 324 1157 q 342 1125 342 1139 l 342 1072 q 333 1050 342 1058 q 310 1042 324 1042 l 257 1042 z "},"Ė":{"ha":822,"x_min":131,"x_max":746,"o":"m 161 0 q 139 8 147 0 q 131 31 131 17 l 131 940 q 139 964 131 956 q 161 972 147 972 l 703 972 q 726 964 718 972 q 735 940 735 956 l 735 919 q 726 897 735 906 q 703 889 718 889 l 218 889 l 218 535 l 672 535 q 696 526 688 535 q 704 503 704 518 l 704 482 q 696 460 704 468 q 672 451 688 451 l 218 451 l 218 83 l 714 83 q 738 75 729 83 q 746 51 746 67 l 746 31 q 738 8 746 17 q 714 0 729 0 l 161 0 m 376 1042 q 354 1050 363 1042 q 346 1072 346 1058 l 346 1139 q 354 1162 346 1153 q 376 1171 363 1171 l 443 1171 q 466 1162 457 1171 q 475 1139 475 1153 l 475 1072 q 466 1050 475 1058 q 443 1042 457 1042 l 376 1042 z "},"È":{"ha":822,"x_min":131,"x_max":746,"o":"m 161 0 q 139 8 147 0 q 131 31 131 17 l 131 940 q 139 964 131 956 q 161 972 147 972 l 703 972 q 726 964 718 972 q 735 940 735 956 l 735 919 q 726 897 735 906 q 703 889 718 889 l 218 889 l 218 535 l 672 535 q 696 526 688 535 q 704 503 704 518 l 704 482 q 696 460 704 468 q 672 451 688 451 l 218 451 l 218 83 l 714 83 q 738 75 729 83 q 746 51 746 67 l 746 31 q 738 8 746 17 q 714 0 729 0 l 161 0 m 421 1042 q 398 1044 407 1042 q 378 1056 389 1046 l 226 1179 q 219 1196 219 1186 q 246 1222 219 1222 l 310 1222 q 340 1217 331 1222 q 361 1197 350 1211 l 457 1082 q 464 1064 464 1075 q 442 1042 464 1042 l 421 1042 z "},"Ē":{"ha":822,"x_min":131,"x_max":746,"o":"m 161 0 q 139 8 147 0 q 131 31 131 17 l 131 940 q 139 964 131 956 q 161 972 147 972 l 703 972 q 726 964 718 972 q 735 940 735 956 l 735 919 q 726 897 735 906 q 703 889 718 889 l 218 889 l 218 535 l 672 535 q 696 526 688 535 q 704 503 704 518 l 704 482 q 696 460 704 468 q 672 451 688 451 l 218 451 l 218 83 l 714 83 q 738 75 729 83 q 746 51 746 67 l 746 31 q 738 8 746 17 q 714 0 729 0 l 161 0 m 272 1042 q 250 1050 258 1042 q 242 1072 242 1058 l 242 1103 q 250 1125 242 1117 q 272 1133 258 1133 l 549 1133 q 571 1125 563 1133 q 579 1103 579 1117 l 579 1072 q 571 1050 579 1058 q 549 1042 563 1042 l 272 1042 z "},"Ę":{"ha":822,"x_min":131,"x_max":746,"o":"m 689 -306 q 592 -282 633 -306 q 528 -215 550 -258 q 506 -114 506 -172 q 513 -51 506 -81 q 535 0 521 -22 l 161 0 q 139 8 147 0 q 131 31 131 17 l 131 940 q 139 964 131 956 q 161 972 147 972 l 703 972 q 726 964 718 972 q 735 940 735 956 l 735 919 q 726 897 735 906 q 703 889 718 889 l 218 889 l 218 535 l 672 535 q 696 526 688 535 q 704 503 704 518 l 704 482 q 696 460 704 468 q 672 451 688 451 l 218 451 l 218 83 l 714 83 q 738 75 729 83 q 746 51 746 67 l 746 31 q 738 8 746 17 q 714 0 729 0 l 685 0 q 616 -33 643 -3 q 589 -114 589 -62 q 619 -197 589 -167 q 694 -226 649 -226 l 715 -226 q 738 -235 729 -226 q 746 -257 746 -243 l 746 -275 q 738 -297 746 -289 q 715 -306 729 -306 l 689 -306 z "},"F":{"ha":792,"x_min":131,"x_max":729,"o":"m 161 0 q 139 8 147 0 q 131 31 131 17 l 131 940 q 139 964 131 956 q 161 972 147 972 l 697 972 q 721 964 713 972 q 729 940 729 956 l 729 919 q 721 897 729 906 q 697 889 713 889 l 218 889 l 218 515 l 669 515 q 693 507 685 515 q 701 483 701 499 l 701 463 q 693 440 701 449 q 669 432 685 432 l 218 432 l 218 31 q 210 8 218 17 q 186 0 201 0 l 161 0 z "},"G":{"ha":922,"x_min":92,"x_max":839,"o":"m 464 -14 q 263 33 344 -14 q 140 163 182 79 q 93 354 97 246 q 92 486 92 417 q 93 618 92 556 q 140 810 97 728 q 264 940 182 893 q 464 986 346 986 q 628 958 560 986 q 739 887 696 929 q 803 801 782 844 q 825 729 824 758 q 818 709 826 717 q 796 701 810 701 l 765 701 q 747 708 753 701 q 736 729 742 714 q 690 812 722 772 q 602 877 657 851 q 464 903 547 903 q 263 835 340 903 q 181 611 186 768 q 181 361 176 486 q 263 138 186 206 q 464 69 340 69 q 611 101 546 69 q 714 197 676 132 q 751 361 751 261 l 751 432 l 510 432 q 488 441 496 432 q 479 464 479 450 l 479 483 q 488 507 479 499 q 510 515 496 515 l 807 515 q 831 507 822 515 q 839 483 839 499 l 839 361 q 795 165 839 250 q 667 33 751 81 q 464 -14 583 -14 z "},"Ğ":{"ha":922,"x_min":92,"x_max":839,"o":"m 464 -14 q 263 33 344 -14 q 140 163 182 79 q 93 354 97 246 q 92 486 92 417 q 93 618 92 556 q 140 810 97 728 q 264 940 182 893 q 464 986 346 986 q 628 958 560 986 q 739 887 696 929 q 803 801 782 844 q 825 729 824 758 q 818 709 826 717 q 796 701 810 701 l 765 701 q 747 708 753 701 q 736 729 742 714 q 690 812 722 772 q 602 877 657 851 q 464 903 547 903 q 263 835 340 903 q 181 611 186 768 q 181 361 176 486 q 263 138 186 206 q 464 69 340 69 q 611 101 546 69 q 714 197 676 132 q 751 361 751 261 l 751 432 l 510 432 q 488 441 496 432 q 479 464 479 450 l 479 483 q 488 507 479 499 q 510 515 496 515 l 807 515 q 831 507 822 515 q 839 483 839 499 l 839 361 q 795 165 839 250 q 667 33 751 81 q 464 -14 583 -14 m 471 1028 q 374 1051 408 1028 q 325 1113 339 1075 q 311 1189 311 1150 q 318 1208 311 1200 q 338 1215 325 1215 l 358 1215 q 378 1208 371 1215 q 385 1189 385 1200 q 402 1126 385 1156 q 471 1097 419 1097 q 540 1126 522 1097 q 557 1189 557 1156 q 564 1208 557 1200 q 583 1215 571 1215 l 604 1215 q 624 1208 617 1215 q 631 1189 631 1200 q 617 1113 631 1150 q 569 1051 603 1075 q 471 1028 535 1028 z "},"Ĝ":{"ha":922,"x_min":92,"x_max":839,"o":"m 464 -14 q 263 33 344 -14 q 140 163 182 79 q 93 354 97 246 q 92 486 92 417 q 93 618 92 556 q 140 810 97 728 q 264 940 182 893 q 464 986 346 986 q 628 958 560 986 q 739 887 696 929 q 803 801 782 844 q 825 729 824 758 q 818 709 826 717 q 796 701 810 701 l 765 701 q 747 708 753 701 q 736 729 742 714 q 690 812 722 772 q 602 877 657 851 q 464 903 547 903 q 263 835 340 903 q 181 611 186 768 q 181 361 176 486 q 263 138 186 206 q 464 69 340 69 q 611 101 546 69 q 714 197 676 132 q 751 361 751 261 l 751 432 l 510 432 q 488 441 496 432 q 479 464 479 450 l 479 483 q 488 507 479 499 q 510 515 496 515 l 807 515 q 831 507 822 515 q 839 483 839 499 l 839 361 q 795 165 839 250 q 667 33 751 81 q 464 -14 583 -14 m 301 1042 q 282 1057 282 1042 q 299 1085 282 1068 l 419 1203 q 444 1220 435 1218 q 464 1222 454 1222 l 478 1222 q 499 1220 489 1222 q 522 1203 508 1218 l 643 1085 q 660 1057 660 1068 q 640 1042 660 1042 l 617 1042 q 598 1044 608 1042 q 582 1051 588 1047 l 471 1135 l 360 1051 q 344 1044 354 1047 q 325 1042 333 1042 l 301 1042 z "},"Ģ":{"ha":922,"x_min":92,"x_max":839,"o":"m 464 -14 q 263 33 344 -14 q 140 163 182 79 q 93 354 97 246 q 92 486 92 417 q 93 618 92 556 q 140 810 97 728 q 264 940 182 893 q 464 986 346 986 q 628 958 560 986 q 739 887 696 929 q 803 801 782 844 q 825 729 824 758 q 818 709 826 717 q 796 701 810 701 l 765 701 q 747 708 753 701 q 736 729 742 714 q 690 812 722 772 q 602 877 657 851 q 464 903 547 903 q 263 835 340 903 q 181 611 186 768 q 181 361 176 486 q 263 138 186 206 q 464 69 340 69 q 611 101 546 69 q 714 197 676 132 q 751 361 751 261 l 751 432 l 510 432 q 488 441 496 432 q 479 464 479 450 l 479 483 q 488 507 479 499 q 510 515 496 515 l 807 515 q 831 507 822 515 q 839 483 839 499 l 839 361 q 795 165 839 250 q 667 33 751 81 q 464 -14 583 -14 m 410 -292 q 394 -283 399 -292 q 390 -262 389 -275 l 414 -107 q 424 -80 417 -90 q 449 -69 432 -69 l 511 -69 q 526 -76 521 -69 q 532 -92 532 -83 q 526 -117 532 -104 l 471 -262 q 458 -284 465 -276 q 435 -292 450 -292 l 410 -292 z "},"Ġ":{"ha":922,"x_min":92,"x_max":839,"o":"m 464 -14 q 263 33 344 -14 q 140 163 182 79 q 93 354 97 246 q 92 486 92 417 q 93 618 92 556 q 140 810 97 728 q 264 940 182 893 q 464 986 346 986 q 628 958 560 986 q 739 887 696 929 q 803 801 782 844 q 825 729 824 758 q 818 709 826 717 q 796 701 810 701 l 765 701 q 747 708 753 701 q 736 729 742 714 q 690 812 722 772 q 602 877 657 851 q 464 903 547 903 q 263 835 340 903 q 181 611 186 768 q 181 361 176 486 q 263 138 186 206 q 464 69 340 69 q 611 101 546 69 q 714 197 676 132 q 751 361 751 261 l 751 432 l 510 432 q 488 441 496 432 q 479 464 479 450 l 479 483 q 488 507 479 499 q 510 515 496 515 l 807 515 q 831 507 822 515 q 839 483 839 499 l 839 361 q 795 165 839 250 q 667 33 751 81 q 464 -14 583 -14 m 436 1042 q 414 1050 422 1042 q 406 1072 406 1058 l 406 1139 q 414 1162 406 1153 q 436 1171 422 1171 l 503 1171 q 526 1162 517 1171 q 535 1139 535 1153 l 535 1072 q 526 1050 535 1058 q 503 1042 517 1042 l 436 1042 z "},"H":{"ha":972,"x_min":131,"x_max":842,"o":"m 161 0 q 139 8 147 0 q 131 31 131 17 l 131 940 q 139 964 131 956 q 161 972 147 972 l 186 972 q 210 964 201 972 q 218 940 218 956 l 218 535 l 754 535 l 754 940 q 763 964 754 956 q 785 972 771 972 l 810 972 q 833 964 825 972 q 842 940 842 956 l 842 31 q 833 8 842 17 q 810 0 825 0 l 785 0 q 763 8 771 0 q 754 31 754 17 l 754 451 l 218 451 l 218 31 q 210 8 218 17 q 186 0 201 0 l 161 0 z "},"Ħ":{"ha":972,"x_min":29,"x_max":957,"o":"m 60 713 q 38 721 46 713 q 29 743 29 729 l 29 763 q 38 785 29 776 q 60 793 46 793 l 926 793 q 949 785 940 793 q 957 763 957 776 l 957 743 q 949 721 957 729 q 926 713 940 713 l 60 713 m 161 0 q 139 8 147 0 q 131 31 131 17 l 131 940 q 139 964 131 956 q 161 972 147 972 l 186 972 q 210 964 201 972 q 218 940 218 956 l 218 535 l 754 535 l 754 940 q 763 964 754 956 q 785 972 771 972 l 810 972 q 833 964 825 972 q 842 940 842 956 l 842 31 q 833 8 842 17 q 810 0 825 0 l 785 0 q 763 8 771 0 q 754 31 754 17 l 754 451 l 218 451 l 218 31 q 210 8 218 17 q 186 0 201 0 l 161 0 z "},"Ĥ":{"ha":972,"x_min":131,"x_max":842,"o":"m 161 0 q 139 8 147 0 q 131 31 131 17 l 131 940 q 139 964 131 956 q 161 972 147 972 l 186 972 q 210 964 201 972 q 218 940 218 956 l 218 535 l 754 535 l 754 940 q 763 964 754 956 q 785 972 771 972 l 810 972 q 833 964 825 972 q 842 940 842 956 l 842 31 q 833 8 842 17 q 810 0 825 0 l 785 0 q 763 8 771 0 q 754 31 754 17 l 754 451 l 218 451 l 218 31 q 210 8 218 17 q 186 0 201 0 l 161 0 m 317 1042 q 297 1057 297 1042 q 314 1085 297 1068 l 435 1203 q 460 1220 450 1218 q 479 1222 469 1222 l 493 1222 q 514 1220 504 1222 q 538 1203 524 1218 l 658 1085 q 675 1057 675 1068 q 656 1042 675 1042 l 632 1042 q 613 1044 624 1042 q 597 1051 603 1047 l 486 1135 l 375 1051 q 359 1044 369 1047 q 340 1042 349 1042 l 317 1042 z "},"I":{"ha":349,"x_min":131,"x_max":218,"o":"m 161 0 q 139 8 147 0 q 131 31 131 17 l 131 942 q 139 964 131 956 q 161 972 147 972 l 188 972 q 210 964 201 972 q 218 942 218 956 l 218 31 q 210 8 218 17 q 188 0 201 0 l 161 0 z "},"Ĳ":{"ha":818,"x_min":131,"x_max":696,"o":"m 360 -14 q 338 -6 346 -14 q 329 17 329 3 l 329 38 q 338 61 329 53 q 360 69 346 69 q 545 149 482 69 q 608 356 608 229 l 608 942 q 617 964 608 956 q 639 972 625 972 l 664 972 q 688 964 679 972 q 696 940 696 956 l 696 354 q 657 163 696 246 q 544 33 618 79 q 360 -14 469 -14 m 161 0 q 139 8 147 0 q 131 31 131 17 l 131 942 q 139 964 131 956 q 161 972 147 972 l 188 972 q 210 964 201 972 q 218 942 218 956 l 218 31 q 210 8 218 17 q 188 0 201 0 l 161 0 z "},"Í":{"ha":349,"x_min":131,"x_max":381,"o":"m 161 0 q 139 8 147 0 q 131 31 131 17 l 131 942 q 139 964 131 956 q 161 972 147 972 l 188 972 q 210 964 201 972 q 218 942 218 956 l 218 31 q 210 8 218 17 q 188 0 201 0 l 161 0 m 158 1042 q 136 1064 136 1042 q 143 1082 136 1075 l 239 1197 q 260 1217 250 1211 q 290 1222 269 1222 l 354 1222 q 381 1196 381 1222 q 374 1179 381 1186 l 222 1056 q 202 1044 211 1046 q 179 1042 193 1042 l 158 1042 z "},"Ĭ":{"ha":349,"x_min":15,"x_max":335,"o":"m 161 0 q 139 8 147 0 q 131 31 131 17 l 131 942 q 139 964 131 956 q 161 972 147 972 l 188 972 q 210 964 201 972 q 218 942 218 956 l 218 31 q 210 8 218 17 q 188 0 201 0 l 161 0 m 175 1028 q 78 1051 113 1028 q 29 1113 43 1075 q 15 1189 15 1150 q 22 1208 15 1200 q 42 1215 29 1215 l 63 1215 q 82 1208 75 1215 q 89 1189 89 1200 q 106 1126 89 1156 q 175 1097 124 1097 q 244 1126 226 1097 q 261 1189 261 1156 q 268 1208 261 1200 q 288 1215 275 1215 l 308 1215 q 328 1208 321 1215 q 335 1189 335 1200 q 321 1113 335 1150 q 273 1051 307 1075 q 175 1028 239 1028 z "},"Î":{"ha":349,"x_min":-14,"x_max":364,"o":"m 161 0 q 139 8 147 0 q 131 31 131 17 l 131 942 q 139 964 131 956 q 161 972 147 972 l 188 972 q 210 964 201 972 q 218 942 218 956 l 218 31 q 210 8 218 17 q 188 0 201 0 l 161 0 m 6 1042 q -14 1057 -14 1042 q 3 1085 -14 1068 l 124 1203 q 149 1220 139 1218 q 168 1222 158 1222 l 182 1222 q 203 1220 193 1222 q 226 1203 213 1218 l 347 1085 q 364 1057 364 1068 q 344 1042 364 1042 l 321 1042 q 302 1044 313 1042 q 286 1051 292 1047 l 175 1135 l 64 1051 q 48 1044 58 1047 q 29 1042 38 1042 l 6 1042 z "},"Ï":{"ha":349,"x_min":-10,"x_max":360,"o":"m 161 0 q 139 8 147 0 q 131 31 131 17 l 131 942 q 139 964 131 956 q 161 972 147 972 l 188 972 q 210 964 201 972 q 218 942 218 956 l 218 31 q 210 8 218 17 q 188 0 201 0 l 161 0 m 275 1042 q 253 1050 261 1042 q 244 1072 244 1058 l 244 1125 q 253 1148 244 1139 q 275 1157 261 1157 l 328 1157 q 351 1148 342 1157 q 360 1125 360 1139 l 360 1072 q 351 1050 360 1058 q 328 1042 342 1042 l 275 1042 m 21 1042 q -1 1050 7 1042 q -10 1072 -10 1058 l -10 1125 q -1 1148 -10 1139 q 21 1157 7 1157 l 74 1157 q 97 1148 88 1157 q 106 1125 106 1139 l 106 1072 q 97 1050 106 1058 q 74 1042 88 1042 l 21 1042 z "},"İ":{"ha":349,"x_min":110,"x_max":239,"o":"m 161 0 q 139 8 147 0 q 131 31 131 17 l 131 942 q 139 964 131 956 q 161 972 147 972 l 188 972 q 210 964 201 972 q 218 942 218 956 l 218 31 q 210 8 218 17 q 188 0 201 0 l 161 0 m 140 1042 q 118 1050 126 1042 q 110 1072 110 1058 l 110 1139 q 118 1162 110 1153 q 140 1171 126 1171 l 207 1171 q 230 1162 221 1171 q 239 1139 239 1153 l 239 1072 q 230 1050 239 1058 q 207 1042 221 1042 l 140 1042 z "},"Ì":{"ha":349,"x_min":-17,"x_max":228,"o":"m 161 0 q 139 8 147 0 q 131 31 131 17 l 131 942 q 139 964 131 956 q 161 972 147 972 l 188 972 q 210 964 201 972 q 218 942 218 956 l 218 31 q 210 8 218 17 q 188 0 201 0 l 161 0 m 185 1042 q 162 1044 171 1042 q 142 1056 153 1046 l -10 1179 q -17 1196 -17 1186 q 10 1222 -17 1222 l 74 1222 q 104 1217 94 1222 q 125 1197 114 1211 l 221 1082 q 228 1064 228 1075 q 206 1042 228 1042 l 185 1042 z "},"Ī":{"ha":349,"x_min":6,"x_max":343,"o":"m 161 0 q 139 8 147 0 q 131 31 131 17 l 131 942 q 139 964 131 956 q 161 972 147 972 l 188 972 q 210 964 201 972 q 218 942 218 956 l 218 31 q 210 8 218 17 q 188 0 201 0 l 161 0 m 36 1042 q 14 1050 22 1042 q 6 1072 6 1058 l 6 1103 q 14 1125 6 1117 q 36 1133 22 1133 l 313 1133 q 335 1125 326 1133 q 343 1103 343 1117 l 343 1072 q 335 1050 343 1058 q 313 1042 326 1042 l 36 1042 z "},"Į":{"ha":374,"x_min":3,"x_max":243,"o":"m 186 -306 q 89 -282 131 -306 q 25 -215 47 -258 q 3 -114 3 -172 q 44 17 3 -33 q 156 76 85 67 l 156 89 q 156 96 156 92 q 156 103 156 100 l 156 942 q 164 964 156 956 q 186 972 172 972 l 213 972 q 235 964 226 972 q 243 942 243 956 l 243 31 q 235 8 243 17 q 213 0 226 0 l 192 0 q 116 -31 146 0 q 86 -114 86 -61 q 116 -197 86 -167 q 192 -226 146 -226 l 213 -226 q 235 -235 226 -226 q 243 -257 243 -243 l 243 -275 q 235 -297 243 -289 q 213 -306 226 -306 l 186 -306 z "},"Ĩ":{"ha":349,"x_min":1,"x_max":347,"o":"m 161 0 q 139 8 147 0 q 131 31 131 17 l 131 942 q 139 964 131 956 q 161 972 147 972 l 188 972 q 210 964 201 972 q 218 942 218 956 l 218 31 q 210 8 218 17 q 188 0 201 0 l 161 0 m 243 1035 q 188 1047 211 1035 q 147 1070 165 1058 q 108 1082 128 1082 q 86 1072 93 1082 q 73 1052 79 1063 q 51 1042 67 1042 l 24 1042 q 8 1049 14 1042 q 1 1064 1 1056 q 9 1103 1 1083 q 31 1138 17 1122 q 65 1163 46 1154 q 104 1172 83 1172 q 160 1160 138 1172 q 202 1137 183 1149 q 240 1125 221 1125 q 263 1135 257 1125 q 276 1156 269 1146 q 297 1167 282 1167 l 325 1167 q 342 1160 336 1167 q 347 1144 347 1153 q 339 1106 347 1125 q 316 1070 331 1086 q 283 1044 301 1054 q 243 1035 264 1035 z "},"J":{"ha":858,"x_min":63,"x_max":736,"o":"m 400 -14 q 272 3 332 -14 q 166 54 213 19 q 92 142 119 89 q 63 269 65 196 q 70 291 63 282 q 92 300 78 300 l 119 300 q 141 292 133 300 q 150 271 149 283 q 191 154 156 199 q 281 90 226 110 q 400 69 336 69 q 585 149 522 69 q 649 356 649 229 l 649 889 l 136 889 q 114 897 122 889 q 106 919 106 906 l 106 942 q 114 964 106 956 q 136 972 122 972 l 704 972 q 728 964 719 972 q 736 940 736 956 l 736 354 q 697 163 736 246 q 584 33 658 79 q 400 -14 510 -14 z "},"Ĵ":{"ha":858,"x_min":63,"x_max":736,"o":"m 400 -14 q 272 3 332 -14 q 166 54 213 19 q 92 142 119 89 q 63 269 65 196 q 70 291 63 282 q 92 300 78 300 l 119 300 q 141 292 133 300 q 150 271 149 283 q 191 154 156 199 q 281 90 226 110 q 400 69 336 69 q 585 149 522 69 q 649 356 649 229 l 649 889 l 136 889 q 114 897 122 889 q 106 919 106 906 l 106 942 q 114 964 106 956 q 136 972 122 972 l 704 972 q 728 964 719 972 q 736 940 736 956 l 736 354 q 697 163 736 246 q 584 33 658 79 q 400 -14 510 -14 m 251 1042 q 232 1057 232 1042 q 249 1085 232 1068 l 369 1203 q 394 1220 385 1218 q 414 1222 404 1222 l 428 1222 q 449 1220 439 1222 q 472 1203 458 1218 l 593 1085 q 610 1057 610 1068 q 590 1042 610 1042 l 567 1042 q 548 1044 558 1042 q 532 1051 538 1047 l 421 1135 l 310 1051 q 294 1044 304 1047 q 275 1042 283 1042 l 251 1042 z "},"K":{"ha":799,"x_min":131,"x_max":772,"o":"m 161 0 q 139 8 147 0 q 131 31 131 17 l 131 940 q 139 964 131 956 q 161 972 147 972 l 186 972 q 210 964 201 972 q 218 940 218 956 l 218 579 l 639 951 q 657 964 644 956 q 692 972 669 972 l 714 972 q 733 964 725 972 q 742 944 742 956 q 735 926 742 933 l 264 507 l 764 47 q 772 28 772 39 q 764 8 772 17 q 744 0 756 0 l 721 0 q 686 8 699 0 q 668 21 674 17 l 218 432 l 218 31 q 210 8 218 17 q 186 0 201 0 l 161 0 z "},"Ķ":{"ha":799,"x_min":131,"x_max":772,"o":"m 161 0 q 139 8 147 0 q 131 31 131 17 l 131 940 q 139 964 131 956 q 161 972 147 972 l 186 972 q 210 964 201 972 q 218 940 218 956 l 218 579 l 639 951 q 657 964 644 956 q 692 972 669 972 l 714 972 q 733 964 725 972 q 742 944 742 956 q 735 926 742 933 l 264 507 l 764 47 q 772 28 772 39 q 764 8 772 17 q 744 0 756 0 l 721 0 q 686 8 699 0 q 668 21 674 17 l 218 432 l 218 31 q 210 8 218 17 q 186 0 201 0 l 161 0 m 351 -292 q 335 -283 340 -292 q 332 -262 331 -275 l 356 -107 q 366 -80 358 -90 q 390 -69 374 -69 l 453 -69 q 468 -76 463 -69 q 474 -92 474 -83 q 468 -117 474 -104 l 413 -262 q 399 -284 407 -276 q 376 -292 392 -292 l 351 -292 z "},"L":{"ha":761,"x_min":131,"x_max":729,"o":"m 161 0 q 139 8 147 0 q 131 31 131 17 l 131 942 q 139 964 131 956 q 161 972 147 972 l 188 972 q 210 964 201 972 q 218 942 218 956 l 218 83 l 697 83 q 721 75 713 83 q 729 51 729 67 l 729 31 q 721 8 729 17 q 697 0 713 0 l 161 0 z "},"Ĺ":{"ha":761,"x_min":131,"x_max":729,"o":"m 161 0 q 139 8 147 0 q 131 31 131 17 l 131 942 q 139 964 131 956 q 161 972 147 972 l 188 972 q 210 964 201 972 q 218 942 218 956 l 218 83 l 697 83 q 721 75 713 83 q 729 51 729 67 l 729 31 q 721 8 729 17 q 697 0 713 0 l 161 0 m 156 1042 q 133 1064 133 1042 q 140 1082 133 1075 l 236 1197 q 257 1217 247 1211 q 288 1222 267 1222 l 351 1222 q 378 1196 378 1222 q 371 1179 378 1186 l 219 1056 q 199 1044 208 1046 q 176 1042 190 1042 l 156 1042 z "},"Ľ":{"ha":761,"x_min":131,"x_max":729,"o":"m 161 0 q 139 8 147 0 q 131 31 131 17 l 131 942 q 139 964 131 956 q 161 972 147 972 l 188 972 q 210 964 201 972 q 218 942 218 956 l 218 83 l 697 83 q 721 75 713 83 q 729 51 729 67 l 729 31 q 721 8 729 17 q 697 0 713 0 l 161 0 m 454 736 q 438 744 443 736 q 435 765 433 753 l 458 921 q 469 948 461 938 q 493 958 476 958 l 556 958 q 571 951 565 958 q 576 936 576 944 q 571 911 576 924 l 515 765 q 502 744 510 751 q 479 736 494 736 l 454 736 z "},"Ļ":{"ha":761,"x_min":131,"x_max":729,"o":"m 161 0 q 139 8 147 0 q 131 31 131 17 l 131 942 q 139 964 131 956 q 161 972 147 972 l 188 972 q 210 964 201 972 q 218 942 218 956 l 218 83 l 697 83 q 721 75 713 83 q 729 51 729 67 l 729 31 q 721 8 729 17 q 697 0 713 0 l 161 0 m 356 -292 q 340 -283 344 -292 q 336 -262 335 -275 l 360 -107 q 370 -80 363 -90 q 394 -69 378 -69 l 457 -69 q 472 -76 467 -69 q 478 -92 478 -83 q 472 -117 478 -104 l 417 -262 q 403 -284 411 -276 q 381 -292 396 -292 l 356 -292 z "},"Ŀ":{"ha":775,"x_min":131,"x_max":729,"o":"m 161 0 q 139 8 147 0 q 131 31 131 17 l 131 942 q 139 964 131 956 q 161 972 147 972 l 188 972 q 210 964 201 972 q 218 942 218 956 l 218 83 l 697 83 q 721 75 713 83 q 729 51 729 67 l 729 31 q 721 8 729 17 q 697 0 713 0 l 161 0 m 526 435 q 504 443 513 435 q 496 465 496 451 l 496 532 q 504 555 496 546 q 526 564 513 564 l 593 564 q 616 555 607 564 q 625 532 625 546 l 625 465 q 616 443 625 451 q 593 435 607 435 l 526 435 z "},"Ł":{"ha":772,"x_min":17,"x_max":740,"o":"m 172 0 q 150 8 158 0 q 142 31 142 17 l 142 406 l 61 375 q 43 371 51 371 q 24 377 32 371 q 17 396 17 383 l 17 422 q 24 444 17 438 q 47 457 31 451 l 142 493 l 142 942 q 150 964 142 956 q 172 972 158 972 l 199 972 q 221 964 213 972 q 229 942 229 956 l 229 528 l 431 606 q 449 610 442 610 q 467 603 460 610 q 475 585 475 597 l 475 558 q 468 537 475 543 q 444 524 461 531 l 229 440 l 229 83 l 710 83 q 732 75 724 83 q 740 53 740 67 l 740 31 q 732 8 740 17 q 710 0 724 0 l 172 0 z "},"M":{"ha":1083,"x_min":131,"x_max":953,"o":"m 163 0 q 140 8 149 0 q 131 31 131 17 l 131 940 q 140 964 131 956 q 163 972 149 972 l 197 972 q 218 965 211 972 q 226 954 225 958 l 542 340 l 858 954 q 867 965 861 958 q 888 972 874 972 l 921 972 q 944 964 936 972 q 953 940 953 956 l 953 31 q 944 8 953 17 q 921 0 936 0 l 896 0 q 874 8 882 0 q 865 31 865 17 l 865 783 l 600 261 q 584 240 594 247 q 557 233 574 233 l 526 233 q 500 240 510 233 q 483 261 490 247 l 218 783 l 218 31 q 210 8 218 17 q 188 0 201 0 l 163 0 z "},"N":{"ha":950,"x_min":131,"x_max":819,"o":"m 161 0 q 139 8 147 0 q 131 31 131 17 l 131 940 q 139 964 131 956 q 161 972 147 972 l 190 972 q 211 965 204 972 q 219 956 218 958 l 732 172 l 732 940 q 740 964 732 956 q 763 972 749 972 l 788 972 q 811 964 803 972 q 819 940 819 956 l 819 32 q 811 9 819 18 q 789 0 803 0 l 758 0 q 738 7 744 0 q 729 17 732 14 l 218 797 l 218 31 q 210 8 218 17 q 186 0 201 0 l 161 0 z "},"Ń":{"ha":950,"x_min":131,"x_max":819,"o":"m 161 0 q 139 8 147 0 q 131 31 131 17 l 131 940 q 139 964 131 956 q 161 972 147 972 l 190 972 q 211 965 204 972 q 219 956 218 958 l 732 172 l 732 940 q 740 964 732 956 q 763 972 749 972 l 788 972 q 811 964 803 972 q 819 940 819 956 l 819 32 q 811 9 819 18 q 789 0 803 0 l 758 0 q 738 7 744 0 q 729 17 732 14 l 218 797 l 218 31 q 210 8 218 17 q 186 0 201 0 l 161 0 m 458 1042 q 436 1064 436 1042 q 443 1082 436 1075 l 539 1197 q 560 1217 550 1211 q 590 1222 569 1222 l 654 1222 q 681 1196 681 1222 q 674 1179 681 1186 l 522 1056 q 502 1044 511 1046 q 479 1042 493 1042 l 458 1042 z "},"Ň":{"ha":950,"x_min":131,"x_max":819,"o":"m 161 0 q 139 8 147 0 q 131 31 131 17 l 131 940 q 139 964 131 956 q 161 972 147 972 l 190 972 q 211 965 204 972 q 219 956 218 958 l 732 172 l 732 940 q 740 964 732 956 q 763 972 749 972 l 788 972 q 811 964 803 972 q 819 940 819 956 l 819 32 q 811 9 819 18 q 789 0 803 0 l 758 0 q 738 7 744 0 q 729 17 732 14 l 218 797 l 218 31 q 210 8 218 17 q 186 0 201 0 l 161 0 m 468 1042 q 449 1044 458 1042 q 424 1061 439 1047 l 303 1179 q 286 1207 286 1196 q 306 1222 286 1222 l 329 1222 q 348 1219 338 1222 q 364 1213 358 1217 l 475 1129 l 586 1213 q 602 1219 592 1217 q 621 1222 613 1222 l 644 1222 q 664 1207 664 1222 q 647 1179 664 1196 l 526 1061 q 503 1044 513 1047 q 482 1042 493 1042 l 468 1042 z "},"Ņ":{"ha":950,"x_min":131,"x_max":819,"o":"m 161 0 q 139 8 147 0 q 131 31 131 17 l 131 940 q 139 964 131 956 q 161 972 147 972 l 190 972 q 211 965 204 972 q 219 956 218 958 l 732 172 l 732 940 q 740 964 732 956 q 763 972 749 972 l 788 972 q 811 964 803 972 q 819 940 819 956 l 819 32 q 811 9 819 18 q 789 0 803 0 l 758 0 q 738 7 744 0 q 729 17 732 14 l 218 797 l 218 31 q 210 8 218 17 q 186 0 201 0 l 161 0 m 408 -292 q 392 -283 397 -292 q 389 -262 388 -275 l 413 -107 q 423 -80 415 -90 q 447 -69 431 -69 l 510 -69 q 525 -76 519 -69 q 531 -92 531 -83 q 525 -117 531 -104 l 469 -262 q 456 -284 464 -276 q 433 -292 449 -292 l 408 -292 z "},"Ñ":{"ha":950,"x_min":131,"x_max":819,"o":"m 161 0 q 139 8 147 0 q 131 31 131 17 l 131 940 q 139 964 131 956 q 161 972 147 972 l 190 972 q 211 965 204 972 q 219 956 218 958 l 732 172 l 732 940 q 740 964 732 956 q 763 972 749 972 l 788 972 q 811 964 803 972 q 819 940 819 956 l 819 32 q 811 9 819 18 q 789 0 803 0 l 758 0 q 738 7 744 0 q 729 17 732 14 l 218 797 l 218 31 q 210 8 218 17 q 186 0 201 0 l 161 0 m 543 1035 q 488 1047 511 1035 q 447 1070 465 1058 q 408 1082 428 1082 q 386 1072 393 1082 q 373 1052 379 1063 q 351 1042 367 1042 l 324 1042 q 308 1049 314 1042 q 301 1064 301 1056 q 309 1103 301 1083 q 331 1138 317 1122 q 365 1163 346 1154 q 404 1172 383 1172 q 460 1160 438 1172 q 502 1137 483 1149 q 540 1125 521 1125 q 563 1135 557 1125 q 576 1156 569 1146 q 597 1167 582 1167 l 625 1167 q 642 1160 636 1167 q 647 1144 647 1153 q 639 1106 647 1125 q 616 1070 631 1086 q 583 1044 601 1054 q 543 1035 564 1035 z "},"Ŋ":{"ha":950,"x_min":131,"x_max":819,"o":"m 604 -312 q 582 -304 590 -312 q 574 -282 574 -296 l 574 -260 q 582 -237 574 -246 q 604 -229 590 -229 l 610 -229 q 689 -209 663 -229 q 724 -155 715 -189 q 732 -79 732 -121 l 732 11 l 218 797 l 218 31 q 210 8 218 17 q 186 0 201 0 l 161 0 q 139 8 147 0 q 131 31 131 17 l 131 940 q 139 964 131 956 q 161 972 147 972 l 190 972 q 211 965 204 972 q 219 956 218 958 l 732 172 l 732 940 q 740 964 732 956 q 763 972 749 972 l 788 972 q 811 964 803 972 q 819 940 819 956 l 819 -79 q 803 -197 819 -144 q 742 -281 788 -250 q 610 -312 697 -312 l 604 -312 z "},"O":{"ha":919,"x_min":92,"x_max":829,"o":"m 460 -14 q 264 27 344 -14 q 140 153 183 68 q 93 369 97 239 q 92 486 92 432 q 93 603 92 540 q 143 817 97 732 q 270 944 189 903 q 460 986 351 986 q 649 944 568 986 q 777 817 731 903 q 826 603 824 732 q 829 486 829 540 q 826 369 829 432 q 780 153 824 239 q 656 27 736 68 q 460 -14 575 -14 m 460 69 q 656 142 579 69 q 739 376 733 214 q 742 486 742 439 q 739 596 742 533 q 699 772 736 704 q 601 872 663 840 q 460 903 539 903 q 320 872 382 903 q 222 772 258 840 q 181 596 185 704 q 179 486 179 533 q 181 376 179 439 q 264 142 186 214 q 460 69 342 69 z "},"Ó":{"ha":919,"x_min":92,"x_max":829,"o":"m 460 -14 q 264 27 344 -14 q 140 153 183 68 q 93 369 97 239 q 92 486 92 432 q 93 603 92 540 q 143 817 97 732 q 270 944 189 903 q 460 986 351 986 q 649 944 568 986 q 777 817 731 903 q 826 603 824 732 q 829 486 829 540 q 826 369 829 432 q 780 153 824 239 q 656 27 736 68 q 460 -14 575 -14 m 460 69 q 656 142 579 69 q 739 376 733 214 q 742 486 742 439 q 739 596 742 533 q 699 772 736 704 q 601 872 663 840 q 460 903 539 903 q 320 872 382 903 q 222 772 258 840 q 181 596 185 704 q 179 486 179 533 q 181 376 179 439 q 264 142 186 214 q 460 69 342 69 m 443 1042 q 421 1064 421 1042 q 428 1082 421 1075 l 524 1197 q 544 1217 535 1211 q 575 1222 554 1222 l 639 1222 q 665 1196 665 1222 q 658 1179 665 1186 l 507 1056 q 487 1044 496 1046 q 464 1042 478 1042 l 443 1042 z "},"Ŏ":{"ha":919,"x_min":92,"x_max":829,"o":"m 460 -14 q 264 27 344 -14 q 140 153 183 68 q 93 369 97 239 q 92 486 92 432 q 93 603 92 540 q 143 817 97 732 q 270 944 189 903 q 460 986 351 986 q 649 944 568 986 q 777 817 731 903 q 826 603 824 732 q 829 486 829 540 q 826 369 829 432 q 780 153 824 239 q 656 27 736 68 q 460 -14 575 -14 m 460 69 q 656 142 579 69 q 739 376 733 214 q 742 486 742 439 q 739 596 742 533 q 699 772 736 704 q 601 872 663 840 q 460 903 539 903 q 320 872 382 903 q 222 772 258 840 q 181 596 185 704 q 179 486 179 533 q 181 376 179 439 q 264 142 186 214 q 460 69 342 69 m 460 1028 q 363 1051 397 1028 q 314 1113 328 1075 q 300 1189 300 1150 q 307 1208 300 1200 q 326 1215 314 1215 l 347 1215 q 367 1208 360 1215 q 374 1189 374 1200 q 391 1126 374 1156 q 460 1097 408 1097 q 528 1126 511 1097 q 546 1189 546 1156 q 553 1208 546 1200 q 572 1215 560 1215 l 593 1215 q 613 1208 606 1215 q 619 1189 619 1200 q 606 1113 619 1150 q 558 1051 592 1075 q 460 1028 524 1028 z "},"Ô":{"ha":919,"x_min":92,"x_max":829,"o":"m 460 -14 q 264 27 344 -14 q 140 153 183 68 q 93 369 97 239 q 92 486 92 432 q 93 603 92 540 q 143 817 97 732 q 270 944 189 903 q 460 986 351 986 q 649 944 568 986 q 777 817 731 903 q 826 603 824 732 q 829 486 829 540 q 826 369 829 432 q 780 153 824 239 q 656 27 736 68 q 460 -14 575 -14 m 460 69 q 656 142 579 69 q 739 376 733 214 q 742 486 742 439 q 739 596 742 533 q 699 772 736 704 q 601 872 663 840 q 460 903 539 903 q 320 872 382 903 q 222 772 258 840 q 181 596 185 704 q 179 486 179 533 q 181 376 179 439 q 264 142 186 214 q 460 69 342 69 m 290 1042 q 271 1057 271 1042 q 288 1085 271 1068 l 408 1203 q 433 1220 424 1218 q 453 1222 443 1222 l 467 1222 q 488 1220 478 1222 q 511 1203 497 1218 l 632 1085 q 649 1057 649 1068 q 629 1042 649 1042 l 606 1042 q 587 1044 597 1042 q 571 1051 576 1047 l 460 1135 l 349 1051 q 333 1044 343 1047 q 314 1042 322 1042 l 290 1042 z "},"Ö":{"ha":919,"x_min":92,"x_max":829,"o":"m 460 -14 q 264 27 344 -14 q 140 153 183 68 q 93 369 97 239 q 92 486 92 432 q 93 603 92 540 q 143 817 97 732 q 270 944 189 903 q 460 986 351 986 q 649 944 568 986 q 777 817 731 903 q 826 603 824 732 q 829 486 829 540 q 826 369 829 432 q 780 153 824 239 q 656 27 736 68 q 460 -14 575 -14 m 460 69 q 656 142 579 69 q 739 376 733 214 q 742 486 742 439 q 739 596 742 533 q 699 772 736 704 q 601 872 663 840 q 460 903 539 903 q 320 872 382 903 q 222 772 258 840 q 181 596 185 704 q 179 486 179 533 q 181 376 179 439 q 264 142 186 214 q 460 69 342 69 m 560 1042 q 538 1050 546 1042 q 529 1072 529 1058 l 529 1125 q 538 1148 529 1139 q 560 1157 546 1157 l 613 1157 q 635 1148 626 1157 q 644 1125 644 1139 l 644 1072 q 635 1050 644 1058 q 613 1042 626 1042 l 560 1042 m 306 1042 q 283 1050 292 1042 q 275 1072 275 1058 l 275 1125 q 283 1148 275 1139 q 306 1157 292 1157 l 358 1157 q 381 1148 372 1157 q 390 1125 390 1139 l 390 1072 q 381 1050 390 1058 q 358 1042 372 1042 l 306 1042 z "},"Ò":{"ha":919,"x_min":92,"x_max":829,"o":"m 460 -14 q 264 27 344 -14 q 140 153 183 68 q 93 369 97 239 q 92 486 92 432 q 93 603 92 540 q 143 817 97 732 q 270 944 189 903 q 460 986 351 986 q 649 944 568 986 q 777 817 731 903 q 826 603 824 732 q 829 486 829 540 q 826 369 829 432 q 780 153 824 239 q 656 27 736 68 q 460 -14 575 -14 m 460 69 q 656 142 579 69 q 739 376 733 214 q 742 486 742 439 q 739 596 742 533 q 699 772 736 704 q 601 872 663 840 q 460 903 539 903 q 320 872 382 903 q 222 772 258 840 q 181 596 185 704 q 179 486 179 533 q 181 376 179 439 q 264 142 186 214 q 460 69 342 69 m 469 1042 q 447 1044 456 1042 q 426 1056 438 1046 l 275 1179 q 268 1196 268 1186 q 294 1222 268 1222 l 358 1222 q 389 1217 379 1222 q 410 1197 399 1211 l 506 1082 q 513 1064 513 1075 q 490 1042 513 1042 l 469 1042 z "},"Ő":{"ha":919,"x_min":92,"x_max":829,"o":"m 460 -14 q 264 27 344 -14 q 140 153 183 68 q 93 369 97 239 q 92 486 92 432 q 93 603 92 540 q 143 817 97 732 q 270 944 189 903 q 460 986 351 986 q 649 944 568 986 q 777 817 731 903 q 826 603 824 732 q 829 486 829 540 q 826 369 829 432 q 780 153 824 239 q 656 27 736 68 q 460 -14 575 -14 m 460 69 q 656 142 579 69 q 739 376 733 214 q 742 486 742 439 q 739 596 742 533 q 699 772 736 704 q 601 872 663 840 q 460 903 539 903 q 320 872 382 903 q 222 772 258 840 q 181 596 185 704 q 179 486 179 533 q 181 376 179 439 q 264 142 186 214 q 460 69 342 69 m 544 1042 q 522 1064 522 1042 q 525 1075 522 1069 q 529 1085 528 1081 l 579 1196 q 631 1222 592 1222 l 686 1222 q 714 1196 714 1222 q 706 1178 714 1186 l 607 1061 q 565 1042 590 1042 l 544 1042 m 339 1042 q 317 1064 317 1042 q 319 1075 317 1069 q 324 1085 322 1081 l 374 1196 q 425 1222 386 1222 l 481 1222 q 508 1196 508 1222 q 500 1178 508 1186 l 401 1061 q 360 1042 385 1042 l 339 1042 z "},"Ō":{"ha":919,"x_min":92,"x_max":829,"o":"m 460 -14 q 264 27 344 -14 q 140 153 183 68 q 93 369 97 239 q 92 486 92 432 q 93 603 92 540 q 143 817 97 732 q 270 944 189 903 q 460 986 351 986 q 649 944 568 986 q 777 817 731 903 q 826 603 824 732 q 829 486 829 540 q 826 369 829 432 q 780 153 824 239 q 656 27 736 68 q 460 -14 575 -14 m 460 69 q 656 142 579 69 q 739 376 733 214 q 742 486 742 439 q 739 596 742 533 q 699 772 736 704 q 601 872 663 840 q 460 903 539 903 q 320 872 382 903 q 222 772 258 840 q 181 596 185 704 q 179 486 179 533 q 181 376 179 439 q 264 142 186 214 q 460 69 342 69 m 321 1042 q 299 1050 307 1042 q 290 1072 290 1058 l 290 1103 q 299 1125 290 1117 q 321 1133 307 1133 l 597 1133 q 619 1125 611 1133 q 628 1103 628 1117 l 628 1072 q 619 1050 628 1058 q 597 1042 611 1042 l 321 1042 z "},"Ø":{"ha":919,"x_min":92,"x_max":829,"o":"m 460 -14 q 264 27 344 -14 q 140 153 183 68 q 93 369 97 239 q 92 486 92 432 q 93 603 92 540 q 143 817 97 732 q 270 944 189 903 q 460 986 351 986 q 649 944 568 986 q 777 817 731 903 q 826 603 824 732 q 829 486 829 540 q 826 369 829 432 q 780 153 824 239 q 656 27 736 68 q 460 -14 575 -14 m 460 69 q 656 142 579 69 q 739 376 733 214 q 742 486 742 439 q 739 596 742 533 q 699 772 736 704 q 601 872 663 840 q 460 903 539 903 q 320 872 382 903 q 222 772 258 840 q 181 596 185 704 q 179 486 179 533 q 181 376 179 439 q 264 142 186 214 q 460 69 342 69 m 149 -90 q 124 -75 132 -90 q 125 -46 117 -60 l 714 1042 q 724 1055 717 1047 q 744 1063 731 1063 l 771 1063 q 794 1051 786 1063 q 792 1018 803 1040 l 203 -69 q 193 -83 200 -75 q 172 -90 186 -90 l 149 -90 z "},"Ǿ":{"ha":919,"x_min":92,"x_max":829,"o":"m 460 -14 q 264 27 344 -14 q 140 153 183 68 q 93 369 97 239 q 92 486 92 432 q 93 603 92 540 q 143 817 97 732 q 270 944 189 903 q 460 986 351 986 q 649 944 568 986 q 777 817 731 903 q 826 603 824 732 q 829 486 829 540 q 826 369 829 432 q 780 153 824 239 q 656 27 736 68 q 460 -14 575 -14 m 460 69 q 656 142 579 69 q 739 376 733 214 q 742 486 742 439 q 739 596 742 533 q 699 772 736 704 q 601 872 663 840 q 460 903 539 903 q 320 872 382 903 q 222 772 258 840 q 181 596 185 704 q 179 486 179 533 q 181 376 179 439 q 264 142 186 214 q 460 69 342 69 m 149 -90 q 124 -75 132 -90 q 125 -46 117 -60 l 714 1042 q 724 1055 717 1047 q 744 1063 731 1063 l 771 1063 q 794 1051 786 1063 q 792 1018 803 1040 l 203 -69 q 193 -83 200 -75 q 172 -90 186 -90 l 149 -90 m 443 1042 q 421 1064 421 1042 q 428 1082 421 1075 l 524 1197 q 544 1217 535 1211 q 575 1222 554 1222 l 639 1222 q 665 1196 665 1222 q 658 1179 665 1186 l 507 1056 q 487 1044 496 1046 q 464 1042 478 1042 l 443 1042 z "},"Õ":{"ha":919,"x_min":92,"x_max":829,"o":"m 460 -14 q 264 27 344 -14 q 140 153 183 68 q 93 369 97 239 q 92 486 92 432 q 93 603 92 540 q 143 817 97 732 q 270 944 189 903 q 460 986 351 986 q 649 944 568 986 q 777 817 731 903 q 826 603 824 732 q 829 486 829 540 q 826 369 829 432 q 780 153 824 239 q 656 27 736 68 q 460 -14 575 -14 m 460 69 q 656 142 579 69 q 739 376 733 214 q 742 486 742 439 q 739 596 742 533 q 699 772 736 704 q 601 872 663 840 q 460 903 539 903 q 320 872 382 903 q 222 772 258 840 q 181 596 185 704 q 179 486 179 533 q 181 376 179 439 q 264 142 186 214 q 460 69 342 69 m 528 1035 q 473 1047 496 1035 q 431 1070 450 1058 q 393 1082 413 1082 q 371 1072 378 1082 q 358 1052 364 1063 q 336 1042 351 1042 l 308 1042 q 292 1049 299 1042 q 286 1064 286 1056 q 294 1103 286 1083 q 316 1138 301 1122 q 349 1163 331 1154 q 389 1172 368 1172 q 445 1160 422 1172 q 487 1137 468 1149 q 525 1125 506 1125 q 548 1135 542 1125 q 560 1156 554 1146 q 582 1167 567 1167 l 610 1167 q 626 1160 621 1167 q 632 1144 632 1153 q 624 1106 632 1125 q 601 1070 615 1086 q 567 1044 586 1054 q 528 1035 549 1035 z "},"Œ":{"ha":1250,"x_min":96,"x_max":1175,"o":"m 476 0 q 251 41 333 0 q 135 165 169 82 q 97 376 100 249 q 96 487 96 439 q 97 597 96 535 q 135 802 100 718 q 253 929 169 886 q 483 972 336 972 l 1132 972 q 1156 964 1147 972 q 1164 940 1164 956 l 1164 919 q 1156 897 1164 906 q 1132 889 1147 889 l 703 889 l 703 535 l 1101 535 q 1125 526 1117 535 q 1133 503 1133 518 l 1133 482 q 1125 460 1133 468 q 1101 451 1117 451 l 703 451 l 703 83 l 1143 83 q 1167 75 1158 83 q 1175 51 1175 67 l 1175 31 q 1167 8 1175 17 q 1143 0 1158 0 l 476 0 m 483 83 l 615 83 l 615 889 l 490 889 q 256 816 324 889 q 185 590 188 743 q 184 518 185 549 q 184 456 183 488 q 185 383 185 425 q 216 209 188 275 q 309 113 244 143 q 483 83 374 83 z "},"P":{"ha":872,"x_min":131,"x_max":818,"o":"m 161 0 q 139 8 147 0 q 131 31 131 17 l 131 940 q 139 964 131 956 q 161 972 147 972 l 499 972 q 667 940 596 972 q 778 843 739 907 q 818 685 818 779 q 778 526 818 590 q 667 430 739 463 q 499 397 596 397 l 218 397 l 218 31 q 210 8 218 17 q 186 0 201 0 l 161 0 m 218 481 l 492 481 q 672 533 613 481 q 731 685 731 586 q 672 836 731 783 q 492 889 613 889 l 218 889 l 218 481 z "},"Þ":{"ha":879,"x_min":131,"x_max":818,"o":"m 161 0 q 139 8 147 0 q 131 31 131 17 l 131 942 q 139 964 131 956 q 161 972 147 972 l 188 972 q 210 964 201 972 q 218 942 218 956 l 218 774 l 499 774 q 667 741 596 774 q 778 644 739 708 q 818 486 818 581 q 778 328 818 392 q 667 231 739 264 q 499 199 596 199 l 218 199 l 218 31 q 210 8 218 17 q 186 0 201 0 l 161 0 m 218 282 l 492 282 q 672 335 613 282 q 731 486 731 388 q 672 638 731 585 q 492 690 613 690 l 218 690 l 218 282 z "},"Q":{"ha":919,"x_min":92,"x_max":829,"o":"m 760 -90 q 733 -78 744 -90 q 715 -58 722 -67 l 654 26 q 460 -14 571 -14 q 264 27 344 -14 q 140 153 183 68 q 93 369 97 239 q 92 486 92 432 q 93 603 92 540 q 143 817 97 732 q 270 944 189 903 q 460 986 351 986 q 649 944 568 986 q 777 817 731 903 q 826 603 824 732 q 829 486 829 540 q 826 369 829 432 q 725 78 819 171 l 814 -47 q 817 -52 815 -49 q 818 -62 818 -56 q 810 -82 818 -74 q 790 -90 801 -90 l 760 -90 m 460 69 q 656 142 579 69 q 739 376 733 214 q 742 486 742 439 q 739 596 742 533 q 699 772 736 704 q 601 872 663 840 q 460 903 539 903 q 320 872 382 903 q 222 772 258 840 q 181 596 185 704 q 179 486 179 533 q 181 376 179 439 q 264 142 186 214 q 460 69 342 69 z "},"R":{"ha":889,"x_min":131,"x_max":822,"o":"m 161 0 q 139 8 147 0 q 131 31 131 17 l 131 940 q 139 964 131 956 q 161 972 147 972 l 485 972 q 717 903 631 972 q 804 692 804 833 q 749 514 804 581 q 594 424 693 447 l 818 43 q 822 28 822 35 q 814 8 822 17 q 794 0 806 0 l 778 0 q 744 12 756 0 q 725 38 733 24 l 504 411 l 218 411 l 218 31 q 210 8 218 17 q 186 0 201 0 l 161 0 m 218 494 l 478 494 q 658 544 599 494 q 717 692 717 593 q 658 840 717 790 q 478 889 599 889 l 218 889 l 218 494 z "},"Ŕ":{"ha":889,"x_min":131,"x_max":822,"o":"m 161 0 q 139 8 147 0 q 131 31 131 17 l 131 940 q 139 964 131 956 q 161 972 147 972 l 485 972 q 717 903 631 972 q 804 692 804 833 q 749 514 804 581 q 594 424 693 447 l 818 43 q 822 28 822 35 q 814 8 822 17 q 794 0 806 0 l 778 0 q 744 12 756 0 q 725 38 733 24 l 504 411 l 218 411 l 218 31 q 210 8 218 17 q 186 0 201 0 l 161 0 m 218 494 l 478 494 q 658 544 599 494 q 717 692 717 593 q 658 840 717 790 q 478 889 599 889 l 218 889 l 218 494 m 399 1042 q 376 1064 376 1042 q 383 1082 376 1075 l 479 1197 q 500 1217 490 1211 q 531 1222 510 1222 l 594 1222 q 621 1196 621 1222 q 614 1179 621 1186 l 463 1056 q 442 1044 451 1046 q 419 1042 433 1042 l 399 1042 z "},"Ř":{"ha":889,"x_min":131,"x_max":822,"o":"m 161 0 q 139 8 147 0 q 131 31 131 17 l 131 940 q 139 964 131 956 q 161 972 147 972 l 485 972 q 717 903 631 972 q 804 692 804 833 q 749 514 804 581 q 594 424 693 447 l 818 43 q 822 28 822 35 q 814 8 822 17 q 794 0 806 0 l 778 0 q 744 12 756 0 q 725 38 733 24 l 504 411 l 218 411 l 218 31 q 210 8 218 17 q 186 0 201 0 l 161 0 m 218 494 l 478 494 q 658 544 599 494 q 717 692 717 593 q 658 840 717 790 q 478 889 599 889 l 218 889 l 218 494 m 408 1042 q 389 1044 399 1042 q 364 1061 379 1047 l 243 1179 q 226 1207 226 1196 q 246 1222 226 1222 l 269 1222 q 288 1219 278 1222 q 304 1213 299 1217 l 415 1129 l 526 1213 q 542 1219 532 1217 q 561 1222 553 1222 l 585 1222 q 604 1207 604 1222 q 588 1179 604 1196 l 467 1061 q 443 1044 453 1047 q 422 1042 433 1042 l 408 1042 z "},"Ŗ":{"ha":889,"x_min":131,"x_max":822,"o":"m 161 0 q 139 8 147 0 q 131 31 131 17 l 131 940 q 139 964 131 956 q 161 972 147 972 l 485 972 q 717 903 631 972 q 804 692 804 833 q 749 514 804 581 q 594 424 693 447 l 818 43 q 822 28 822 35 q 814 8 822 17 q 794 0 806 0 l 778 0 q 744 12 756 0 q 725 38 733 24 l 504 411 l 218 411 l 218 31 q 210 8 218 17 q 186 0 201 0 l 161 0 m 218 494 l 478 494 q 658 544 599 494 q 717 692 717 593 q 658 840 717 790 q 478 889 599 889 l 218 889 l 218 494 m 379 -292 q 363 -283 368 -292 q 360 -262 358 -275 l 383 -107 q 394 -80 386 -90 q 418 -69 401 -69 l 481 -69 q 496 -76 490 -69 q 501 -92 501 -83 q 496 -117 501 -104 l 440 -262 q 427 -284 435 -276 q 404 -292 419 -292 l 379 -292 z "},"S":{"ha":840,"x_min":67,"x_max":771,"o":"m 422 -14 q 231 22 310 -14 q 111 115 153 58 q 67 236 69 172 q 75 256 67 247 q 96 264 83 264 l 124 264 q 145 256 138 264 q 154 236 153 247 q 189 159 160 197 q 275 95 218 121 q 422 69 332 69 q 621 119 558 69 q 683 251 683 168 q 651 341 683 307 q 551 402 618 375 q 381 463 485 429 q 218 528 282 494 q 124 611 154 563 q 94 736 94 660 q 132 863 94 807 q 241 953 169 919 q 415 986 313 986 q 558 964 497 986 q 660 905 619 942 q 721 826 700 868 q 743 743 742 783 q 736 724 743 733 q 714 715 729 715 l 686 715 q 669 721 679 715 q 656 743 658 726 q 583 858 647 813 q 415 903 518 903 q 247 863 313 903 q 182 736 182 822 q 211 645 182 681 q 303 583 240 610 q 464 524 365 556 q 636 457 568 490 q 738 376 704 424 q 771 251 771 328 q 728 108 771 167 q 608 17 686 49 q 422 -14 531 -14 z "},"Ś":{"ha":840,"x_min":67,"x_max":771,"o":"m 422 -14 q 231 22 310 -14 q 111 115 153 58 q 67 236 69 172 q 75 256 67 247 q 96 264 83 264 l 124 264 q 145 256 138 264 q 154 236 153 247 q 189 159 160 197 q 275 95 218 121 q 422 69 332 69 q 621 119 558 69 q 683 251 683 168 q 651 341 683 307 q 551 402 618 375 q 381 463 485 429 q 218 528 282 494 q 124 611 154 563 q 94 736 94 660 q 132 863 94 807 q 241 953 169 919 q 415 986 313 986 q 558 964 497 986 q 660 905 619 942 q 721 826 700 868 q 743 743 742 783 q 736 724 743 733 q 714 715 729 715 l 686 715 q 669 721 679 715 q 656 743 658 726 q 583 858 647 813 q 415 903 518 903 q 247 863 313 903 q 182 736 182 822 q 211 645 182 681 q 303 583 240 610 q 464 524 365 556 q 636 457 568 490 q 738 376 704 424 q 771 251 771 328 q 728 108 771 167 q 608 17 686 49 q 422 -14 531 -14 m 404 1042 q 382 1064 382 1042 q 389 1082 382 1075 l 485 1197 q 506 1217 496 1211 q 536 1222 515 1222 l 600 1222 q 626 1196 626 1222 q 619 1179 626 1186 l 468 1056 q 448 1044 457 1046 q 425 1042 439 1042 l 404 1042 z "},"Š":{"ha":840,"x_min":67,"x_max":771,"o":"m 422 -14 q 231 22 310 -14 q 111 115 153 58 q 67 236 69 172 q 75 256 67 247 q 96 264 83 264 l 124 264 q 145 256 138 264 q 154 236 153 247 q 189 159 160 197 q 275 95 218 121 q 422 69 332 69 q 621 119 558 69 q 683 251 683 168 q 651 341 683 307 q 551 402 618 375 q 381 463 485 429 q 218 528 282 494 q 124 611 154 563 q 94 736 94 660 q 132 863 94 807 q 241 953 169 919 q 415 986 313 986 q 558 964 497 986 q 660 905 619 942 q 721 826 700 868 q 743 743 742 783 q 736 724 743 733 q 714 715 729 715 l 686 715 q 669 721 679 715 q 656 743 658 726 q 583 858 647 813 q 415 903 518 903 q 247 863 313 903 q 182 736 182 822 q 211 645 182 681 q 303 583 240 610 q 464 524 365 556 q 636 457 568 490 q 738 376 704 424 q 771 251 771 328 q 728 108 771 167 q 608 17 686 49 q 422 -14 531 -14 m 414 1042 q 394 1044 404 1042 q 369 1061 385 1047 l 249 1179 q 232 1207 232 1196 q 251 1222 232 1222 l 275 1222 q 294 1219 283 1222 q 310 1213 304 1217 l 421 1129 l 532 1213 q 548 1219 538 1217 q 567 1222 558 1222 l 590 1222 q 610 1207 610 1222 q 593 1179 610 1196 l 472 1061 q 449 1044 458 1047 q 428 1042 439 1042 l 414 1042 z "},"Ş":{"ha":840,"x_min":67,"x_max":771,"o":"m 418 -306 q 349 -291 379 -304 q 306 -261 319 -278 q 304 -235 293 -244 l 324 -217 q 346 -212 336 -206 q 372 -231 356 -219 q 418 -242 388 -242 q 460 -227 442 -242 q 478 -186 478 -212 q 460 -147 478 -161 q 418 -133 442 -133 q 381 -140 396 -133 q 356 -148 367 -146 q 335 -139 346 -150 l 313 -115 q 310 -95 306 -107 q 319 -74 315 -83 l 347 -8 q 197 40 258 3 q 101 128 135 76 q 67 236 68 181 q 75 256 67 247 q 96 264 83 264 l 124 264 q 145 256 138 264 q 154 236 153 247 q 189 159 160 197 q 275 95 218 121 q 422 69 332 69 q 621 119 558 69 q 683 251 683 168 q 651 341 683 307 q 551 402 618 375 q 381 463 485 429 q 218 528 282 494 q 124 611 154 563 q 94 736 94 660 q 132 863 94 807 q 241 953 169 919 q 415 986 313 986 q 558 964 497 986 q 660 905 619 942 q 721 826 700 868 q 743 743 742 783 q 736 724 743 733 q 714 715 729 715 l 686 715 q 669 721 679 715 q 656 743 658 726 q 583 858 647 813 q 415 903 518 903 q 247 863 313 903 q 182 736 182 822 q 211 645 182 681 q 303 583 240 610 q 464 524 365 556 q 636 457 568 490 q 738 376 704 424 q 771 251 771 328 q 728 108 771 167 q 608 17 686 49 q 422 -14 531 -14 l 390 -81 q 413 -72 399 -75 q 443 -69 428 -69 q 519 -101 489 -69 q 549 -183 549 -133 q 516 -270 549 -233 q 418 -306 483 -307 z "},"Ŝ":{"ha":840,"x_min":67,"x_max":771,"o":"m 422 -14 q 231 22 310 -14 q 111 115 153 58 q 67 236 69 172 q 75 256 67 247 q 96 264 83 264 l 124 264 q 145 256 138 264 q 154 236 153 247 q 189 159 160 197 q 275 95 218 121 q 422 69 332 69 q 621 119 558 69 q 683 251 683 168 q 651 341 683 307 q 551 402 618 375 q 381 463 485 429 q 218 528 282 494 q 124 611 154 563 q 94 736 94 660 q 132 863 94 807 q 241 953 169 919 q 415 986 313 986 q 558 964 497 986 q 660 905 619 942 q 721 826 700 868 q 743 743 742 783 q 736 724 743 733 q 714 715 729 715 l 686 715 q 669 721 679 715 q 656 743 658 726 q 583 858 647 813 q 415 903 518 903 q 247 863 313 903 q 182 736 182 822 q 211 645 182 681 q 303 583 240 610 q 464 524 365 556 q 636 457 568 490 q 738 376 704 424 q 771 251 771 328 q 728 108 771 167 q 608 17 686 49 q 422 -14 531 -14 m 251 1042 q 232 1057 232 1042 q 249 1085 232 1068 l 369 1203 q 394 1220 385 1218 q 414 1222 404 1222 l 428 1222 q 449 1220 439 1222 q 472 1203 458 1218 l 593 1085 q 610 1057 610 1068 q 590 1042 610 1042 l 567 1042 q 548 1044 558 1042 q 532 1051 538 1047 l 421 1135 l 310 1051 q 294 1044 304 1047 q 275 1042 283 1042 l 251 1042 z "},"Ș":{"ha":840,"x_min":67,"x_max":771,"o":"m 422 -14 q 231 22 310 -14 q 111 115 153 58 q 67 236 69 172 q 75 256 67 247 q 96 264 83 264 l 124 264 q 145 256 138 264 q 154 236 153 247 q 189 159 160 197 q 275 95 218 121 q 422 69 332 69 q 621 119 558 69 q 683 251 683 168 q 651 341 683 307 q 551 402 618 375 q 381 463 485 429 q 218 528 282 494 q 124 611 154 563 q 94 736 94 660 q 132 863 94 807 q 241 953 169 919 q 415 986 313 986 q 558 964 497 986 q 660 905 619 942 q 721 826 700 868 q 743 743 742 783 q 736 724 743 733 q 714 715 729 715 l 686 715 q 669 721 679 715 q 656 743 658 726 q 583 858 647 813 q 415 903 518 903 q 247 863 313 903 q 182 736 182 822 q 211 645 182 681 q 303 583 240 610 q 464 524 365 556 q 636 457 568 490 q 738 376 704 424 q 771 251 771 328 q 728 108 771 167 q 608 17 686 49 q 422 -14 531 -14 m 353 -292 q 337 -283 342 -292 q 333 -262 332 -275 l 357 -107 q 367 -80 360 -90 q 392 -69 375 -69 l 454 -69 q 469 -76 464 -69 q 475 -92 475 -83 q 469 -117 475 -104 l 414 -262 q 401 -284 408 -276 q 378 -292 393 -292 l 353 -292 z "},"ẞ":{"ha":831,"x_min":117,"x_max":806,"o":"m 147 0 q 125 8 133 0 q 117 31 117 17 l 117 642 q 160 838 117 761 q 281 950 203 914 q 468 986 360 986 q 578 972 526 986 q 669 935 629 958 q 731 881 708 911 q 753 817 753 850 q 740 765 753 785 q 708 726 728 746 l 464 481 l 467 536 q 649 506 574 536 q 765 418 725 475 q 806 279 806 361 q 767 131 806 193 q 657 34 728 68 q 489 0 586 0 l 315 0 q 293 8 301 0 q 285 31 285 17 l 285 50 q 293 72 285 64 q 315 81 301 81 l 475 81 q 660 131 599 81 q 721 279 721 181 q 660 411 721 367 q 481 456 600 456 l 418 456 q 388 486 388 456 l 388 501 q 391 519 388 513 q 408 540 394 526 l 633 765 q 655 790 647 779 q 663 814 663 801 q 635 857 663 836 q 563 892 608 878 q 461 906 517 906 q 271 844 340 906 q 201 635 201 782 l 201 31 q 193 8 201 17 q 171 0 185 0 l 147 0 z "},"T":{"ha":774,"x_min":38,"x_max":736,"o":"m 374 0 q 351 8 360 0 q 343 31 343 17 l 343 889 l 68 889 q 46 897 54 889 q 38 919 38 906 l 38 940 q 46 964 38 956 q 68 972 54 972 l 704 972 q 728 964 719 972 q 736 940 736 956 l 736 919 q 728 897 736 906 q 704 889 719 889 l 431 889 l 431 31 q 422 8 431 17 q 399 0 414 0 l 374 0 z "},"Ŧ":{"ha":788,"x_min":44,"x_max":743,"o":"m 381 0 q 358 8 367 0 q 350 31 350 17 l 350 486 l 186 486 q 164 494 172 486 q 156 517 156 503 l 156 538 q 164 561 156 553 q 186 569 172 569 l 350 569 l 350 889 l 75 889 q 53 897 61 889 q 44 919 44 906 l 44 940 q 53 964 44 956 q 75 972 61 972 l 711 972 q 735 964 726 972 q 743 940 743 956 l 743 919 q 735 897 743 906 q 711 889 726 889 l 438 889 l 438 569 l 600 569 q 624 561 615 569 q 632 538 632 553 l 632 517 q 624 494 632 503 q 600 486 615 486 l 438 486 l 438 31 q 429 8 438 17 q 406 0 421 0 l 381 0 z "},"Ť":{"ha":774,"x_min":38,"x_max":736,"o":"m 374 0 q 351 8 360 0 q 343 31 343 17 l 343 889 l 68 889 q 46 897 54 889 q 38 919 38 906 l 38 940 q 46 964 38 956 q 68 972 54 972 l 704 972 q 728 964 719 972 q 736 940 736 956 l 736 919 q 728 897 736 906 q 704 889 719 889 l 431 889 l 431 31 q 422 8 431 17 q 399 0 414 0 l 374 0 m 381 1042 q 361 1044 371 1042 q 336 1061 351 1047 l 215 1179 q 199 1207 199 1196 q 218 1222 199 1222 l 242 1222 q 260 1219 250 1222 q 276 1213 271 1217 l 388 1129 l 499 1213 q 515 1219 504 1217 q 533 1222 525 1222 l 557 1222 q 576 1207 576 1222 q 560 1179 576 1196 l 439 1061 q 415 1044 425 1047 q 394 1042 406 1042 l 381 1042 z "},"Ț":{"ha":774,"x_min":38,"x_max":736,"o":"m 374 0 q 351 8 360 0 q 343 31 343 17 l 343 889 l 68 889 q 46 897 54 889 q 38 919 38 906 l 38 940 q 46 964 38 956 q 68 972 54 972 l 704 972 q 728 964 719 972 q 736 940 736 956 l 736 919 q 728 897 736 906 q 704 889 719 889 l 431 889 l 431 31 q 422 8 431 17 q 399 0 414 0 l 374 0 m 317 -292 q 301 -283 306 -292 q 297 -262 296 -275 l 321 -107 q 331 -80 324 -90 q 356 -69 339 -69 l 418 -69 q 433 -76 428 -69 q 439 -92 439 -83 q 433 -117 439 -104 l 378 -262 q 365 -284 372 -276 q 342 -292 357 -292 l 317 -292 z "},"U":{"ha":960,"x_min":122,"x_max":838,"o":"m 481 -14 q 288 28 368 -14 q 165 156 208 69 q 122 376 122 242 l 122 940 q 131 964 122 956 q 153 972 139 972 l 178 972 q 201 964 193 972 q 210 940 210 956 l 210 372 q 283 143 210 217 q 481 69 356 69 q 677 143 604 69 q 750 372 750 217 l 750 940 q 759 964 750 956 q 782 972 768 972 l 807 972 q 829 964 821 972 q 838 940 838 956 l 838 376 q 795 156 838 242 q 674 28 753 69 q 481 -14 594 -14 z "},"Ú":{"ha":960,"x_min":122,"x_max":838,"o":"m 481 -14 q 288 28 368 -14 q 165 156 208 69 q 122 376 122 242 l 122 940 q 131 964 122 956 q 153 972 139 972 l 178 972 q 201 964 193 972 q 210 940 210 956 l 210 372 q 283 143 210 217 q 481 69 356 69 q 677 143 604 69 q 750 372 750 217 l 750 940 q 759 964 750 956 q 782 972 768 972 l 807 972 q 829 964 821 972 q 838 940 838 956 l 838 376 q 795 156 838 242 q 674 28 753 69 q 481 -14 594 -14 m 464 1042 q 442 1064 442 1042 q 449 1082 442 1075 l 544 1197 q 565 1217 556 1211 q 596 1222 575 1222 l 660 1222 q 686 1196 686 1222 q 679 1179 686 1186 l 528 1056 q 508 1044 517 1046 q 485 1042 499 1042 l 464 1042 z "},"Ŭ":{"ha":960,"x_min":122,"x_max":838,"o":"m 481 -14 q 288 28 368 -14 q 165 156 208 69 q 122 376 122 242 l 122 940 q 131 964 122 956 q 153 972 139 972 l 178 972 q 201 964 193 972 q 210 940 210 956 l 210 372 q 283 143 210 217 q 481 69 356 69 q 677 143 604 69 q 750 372 750 217 l 750 940 q 759 964 750 956 q 782 972 768 972 l 807 972 q 829 964 821 972 q 838 940 838 956 l 838 376 q 795 156 838 242 q 674 28 753 69 q 481 -14 594 -14 m 481 1028 q 383 1051 418 1028 q 335 1113 349 1075 q 321 1189 321 1150 q 328 1208 321 1200 q 347 1215 335 1215 l 368 1215 q 388 1208 381 1215 q 394 1189 394 1200 q 412 1126 394 1156 q 481 1097 429 1097 q 549 1126 532 1097 q 567 1189 567 1156 q 574 1208 567 1200 q 593 1215 581 1215 l 614 1215 q 633 1208 626 1215 q 640 1189 640 1200 q 626 1113 640 1150 q 578 1051 613 1075 q 481 1028 544 1028 z "},"Û":{"ha":960,"x_min":122,"x_max":838,"o":"m 481 -14 q 288 28 368 -14 q 165 156 208 69 q 122 376 122 242 l 122 940 q 131 964 122 956 q 153 972 139 972 l 178 972 q 201 964 193 972 q 210 940 210 956 l 210 372 q 283 143 210 217 q 481 69 356 69 q 677 143 604 69 q 750 372 750 217 l 750 940 q 759 964 750 956 q 782 972 768 972 l 807 972 q 829 964 821 972 q 838 940 838 956 l 838 376 q 795 156 838 242 q 674 28 753 69 q 481 -14 594 -14 m 311 1042 q 292 1057 292 1042 q 308 1085 292 1068 l 429 1203 q 454 1220 444 1218 q 474 1222 464 1222 l 488 1222 q 508 1220 499 1222 q 532 1203 518 1218 l 653 1085 q 669 1057 669 1068 q 650 1042 669 1042 l 626 1042 q 608 1044 618 1042 q 592 1051 597 1047 l 481 1135 l 369 1051 q 353 1044 364 1047 q 335 1042 343 1042 l 311 1042 z "},"Ü":{"ha":960,"x_min":122,"x_max":838,"o":"m 481 -14 q 288 28 368 -14 q 165 156 208 69 q 122 376 122 242 l 122 940 q 131 964 122 956 q 153 972 139 972 l 178 972 q 201 964 193 972 q 210 940 210 956 l 210 372 q 283 143 210 217 q 481 69 356 69 q 677 143 604 69 q 750 372 750 217 l 750 940 q 759 964 750 956 q 782 972 768 972 l 807 972 q 829 964 821 972 q 838 940 838 956 l 838 376 q 795 156 838 242 q 674 28 753 69 q 481 -14 594 -14 m 581 1042 q 558 1050 567 1042 q 550 1072 550 1058 l 550 1125 q 558 1148 550 1139 q 581 1157 567 1157 l 633 1157 q 656 1148 647 1157 q 665 1125 665 1139 l 665 1072 q 656 1050 665 1058 q 633 1042 647 1042 l 581 1042 m 326 1042 q 304 1050 313 1042 q 296 1072 296 1058 l 296 1125 q 304 1148 296 1139 q 326 1157 313 1157 l 379 1157 q 402 1148 393 1157 q 411 1125 411 1139 l 411 1072 q 402 1050 411 1058 q 379 1042 393 1042 l 326 1042 z "},"Ù":{"ha":960,"x_min":122,"x_max":838,"o":"m 481 -14 q 288 28 368 -14 q 165 156 208 69 q 122 376 122 242 l 122 940 q 131 964 122 956 q 153 972 139 972 l 178 972 q 201 964 193 972 q 210 940 210 956 l 210 372 q 283 143 210 217 q 481 69 356 69 q 677 143 604 69 q 750 372 750 217 l 750 940 q 759 964 750 956 q 782 972 768 972 l 807 972 q 829 964 821 972 q 838 940 838 956 l 838 376 q 795 156 838 242 q 674 28 753 69 q 481 -14 594 -14 m 490 1042 q 467 1044 476 1042 q 447 1056 458 1046 l 296 1179 q 289 1196 289 1186 q 315 1222 289 1222 l 379 1222 q 410 1217 400 1222 q 431 1197 419 1211 l 526 1082 q 533 1064 533 1075 q 511 1042 533 1042 l 490 1042 z "},"Ű":{"ha":960,"x_min":122,"x_max":838,"o":"m 481 -14 q 288 28 368 -14 q 165 156 208 69 q 122 376 122 242 l 122 940 q 131 964 122 956 q 153 972 139 972 l 178 972 q 201 964 193 972 q 210 940 210 956 l 210 372 q 283 143 210 217 q 481 69 356 69 q 677 143 604 69 q 750 372 750 217 l 750 940 q 759 964 750 956 q 782 972 768 972 l 807 972 q 829 964 821 972 q 838 940 838 956 l 838 376 q 795 156 838 242 q 674 28 753 69 q 481 -14 594 -14 m 565 1042 q 543 1064 543 1042 q 546 1075 543 1069 q 550 1085 549 1081 l 600 1196 q 651 1222 613 1222 l 707 1222 q 735 1196 735 1222 q 726 1178 735 1186 l 628 1061 q 586 1042 611 1042 l 565 1042 m 360 1042 q 338 1064 338 1042 q 340 1075 338 1069 q 344 1085 343 1081 l 394 1196 q 446 1222 407 1222 l 501 1222 q 529 1196 529 1222 q 521 1178 529 1186 l 422 1061 q 381 1042 406 1042 l 360 1042 z "},"Ū":{"ha":960,"x_min":122,"x_max":838,"o":"m 481 -14 q 288 28 368 -14 q 165 156 208 69 q 122 376 122 242 l 122 940 q 131 964 122 956 q 153 972 139 972 l 178 972 q 201 964 193 972 q 210 940 210 956 l 210 372 q 283 143 210 217 q 481 69 356 69 q 677 143 604 69 q 750 372 750 217 l 750 940 q 759 964 750 956 q 782 972 768 972 l 807 972 q 829 964 821 972 q 838 940 838 956 l 838 376 q 795 156 838 242 q 674 28 753 69 q 481 -14 594 -14 m 342 1042 q 319 1050 328 1042 q 311 1072 311 1058 l 311 1103 q 319 1125 311 1117 q 342 1133 328 1133 l 618 1133 q 640 1125 632 1133 q 649 1103 649 1117 l 649 1072 q 640 1050 649 1058 q 618 1042 632 1042 l 342 1042 z "},"Ų":{"ha":960,"x_min":122,"x_max":838,"o":"m 568 -306 q 471 -282 513 -306 q 407 -215 429 -258 q 385 -114 385 -172 q 390 -52 385 -78 q 406 -8 396 -26 q 197 103 271 10 q 122 376 122 197 l 122 940 q 131 964 122 956 q 153 972 139 972 l 178 972 q 201 964 193 972 q 210 940 210 956 l 210 372 q 283 143 210 217 q 481 69 356 69 q 677 143 604 69 q 750 372 750 217 l 750 940 q 759 964 750 956 q 782 972 768 972 l 807 972 q 829 964 821 972 q 838 940 838 956 l 838 376 q 806 181 838 261 q 716 55 775 101 q 572 -7 657 8 q 498 -39 528 -17 q 468 -114 468 -61 q 498 -197 468 -167 q 574 -226 528 -226 l 594 -226 q 617 -235 608 -226 q 625 -257 625 -243 l 625 -275 q 617 -297 625 -289 q 594 -306 608 -306 l 568 -306 z "},"Ů":{"ha":960,"x_min":122,"x_max":838,"o":"m 481 -14 q 288 28 368 -14 q 165 156 208 69 q 122 376 122 242 l 122 940 q 131 964 122 956 q 153 972 139 972 l 178 972 q 201 964 193 972 q 210 940 210 956 l 210 372 q 283 143 210 217 q 481 69 356 69 q 677 143 604 69 q 750 372 750 217 l 750 940 q 759 964 750 956 q 782 972 768 972 l 807 972 q 829 964 821 972 q 838 940 838 956 l 838 376 q 795 156 838 242 q 674 28 753 69 q 481 -14 594 -14 m 481 1028 q 402 1057 435 1028 q 369 1132 369 1086 q 402 1207 369 1178 q 481 1236 435 1236 q 559 1207 526 1236 q 592 1132 592 1178 q 559 1057 592 1086 q 481 1028 526 1028 m 481 1090 q 510 1102 499 1090 q 522 1132 522 1114 q 510 1162 522 1150 q 481 1174 499 1174 q 451 1162 463 1174 q 439 1132 439 1150 q 451 1102 439 1114 q 481 1090 463 1090 z "},"Ũ":{"ha":960,"x_min":122,"x_max":838,"o":"m 481 -14 q 288 28 368 -14 q 165 156 208 69 q 122 376 122 242 l 122 940 q 131 964 122 956 q 153 972 139 972 l 178 972 q 201 964 193 972 q 210 940 210 956 l 210 372 q 283 143 210 217 q 481 69 356 69 q 677 143 604 69 q 750 372 750 217 l 750 940 q 759 964 750 956 q 782 972 768 972 l 807 972 q 829 964 821 972 q 838 940 838 956 l 838 376 q 795 156 838 242 q 674 28 753 69 q 481 -14 594 -14 m 549 1035 q 494 1047 517 1035 q 452 1070 471 1058 q 414 1082 433 1082 q 392 1072 399 1082 q 378 1052 385 1063 q 357 1042 372 1042 l 329 1042 q 313 1049 319 1042 q 307 1064 307 1056 q 315 1103 307 1083 q 337 1138 322 1122 q 370 1163 351 1154 q 410 1172 389 1172 q 466 1160 443 1172 q 508 1137 489 1149 q 546 1125 526 1125 q 569 1135 563 1125 q 581 1156 575 1146 q 603 1167 588 1167 l 631 1167 q 647 1160 642 1167 q 653 1144 653 1153 q 644 1106 653 1125 q 622 1070 636 1086 q 588 1044 607 1054 q 549 1035 569 1035 z "},"V":{"ha":886,"x_min":51,"x_max":835,"o":"m 424 0 q 394 8 406 0 q 376 33 383 17 l 54 929 q 51 944 51 938 q 60 964 51 956 q 79 972 68 972 l 108 972 q 130 965 122 972 q 139 951 138 957 l 443 101 l 747 951 q 757 965 750 957 q 778 972 764 972 l 807 972 q 826 964 818 972 q 835 944 835 956 q 832 929 835 938 l 510 33 q 493 8 504 17 q 463 0 482 0 l 424 0 z "},"W":{"ha":1094,"x_min":67,"x_max":1028,"o":"m 299 0 q 273 8 282 0 q 260 33 264 15 l 69 928 q 67 938 68 933 q 67 944 67 943 q 75 964 67 956 q 94 972 83 972 l 124 972 q 154 951 150 972 l 317 160 l 489 725 q 503 747 493 738 q 532 757 514 757 l 563 757 q 592 747 582 757 q 606 725 601 738 l 778 160 l 940 951 q 971 972 944 972 l 1000 972 q 1019 964 1011 972 q 1028 944 1028 956 q 1027 938 1028 943 q 1025 928 1026 933 l 835 33 q 822 8 831 15 q 796 0 813 0 l 775 0 q 748 8 758 0 q 732 33 738 17 l 547 619 l 363 33 q 347 8 357 17 q 319 0 336 0 l 299 0 z "},"Ẃ":{"ha":1094,"x_min":67,"x_max":1028,"o":"m 299 0 q 273 8 282 0 q 260 33 264 15 l 69 928 q 67 938 68 933 q 67 944 67 943 q 75 964 67 956 q 94 972 83 972 l 124 972 q 154 951 150 972 l 317 160 l 489 725 q 503 747 493 738 q 532 757 514 757 l 563 757 q 592 747 582 757 q 606 725 601 738 l 778 160 l 940 951 q 971 972 944 972 l 1000 972 q 1019 964 1011 972 q 1028 944 1028 956 q 1027 938 1028 943 q 1025 928 1026 933 l 835 33 q 822 8 831 15 q 796 0 813 0 l 775 0 q 748 8 758 0 q 732 33 738 17 l 547 619 l 363 33 q 347 8 357 17 q 319 0 336 0 l 299 0 m 531 1042 q 508 1064 508 1042 q 515 1082 508 1075 l 611 1197 q 632 1217 622 1211 q 663 1222 642 1222 l 726 1222 q 753 1196 753 1222 q 746 1179 753 1186 l 594 1056 q 574 1044 583 1046 q 551 1042 565 1042 l 531 1042 z "},"Ŵ":{"ha":1094,"x_min":67,"x_max":1028,"o":"m 299 0 q 273 8 282 0 q 260 33 264 15 l 69 928 q 67 938 68 933 q 67 944 67 943 q 75 964 67 956 q 94 972 83 972 l 124 972 q 154 951 150 972 l 317 160 l 489 725 q 503 747 493 738 q 532 757 514 757 l 563 757 q 592 747 582 757 q 606 725 601 738 l 778 160 l 940 951 q 971 972 944 972 l 1000 972 q 1019 964 1011 972 q 1028 944 1028 956 q 1027 938 1028 943 q 1025 928 1026 933 l 835 33 q 822 8 831 15 q 796 0 813 0 l 775 0 q 748 8 758 0 q 732 33 738 17 l 547 619 l 363 33 q 347 8 357 17 q 319 0 336 0 l 299 0 m 378 1042 q 358 1057 358 1042 q 375 1085 358 1068 l 496 1203 q 521 1220 511 1218 q 540 1222 531 1222 l 554 1222 q 575 1220 565 1222 q 599 1203 585 1218 l 719 1085 q 736 1057 736 1068 q 717 1042 736 1042 l 693 1042 q 674 1044 685 1042 q 658 1051 664 1047 l 547 1135 l 436 1051 q 420 1044 431 1047 q 401 1042 410 1042 l 378 1042 z "},"Ẅ":{"ha":1094,"x_min":67,"x_max":1028,"o":"m 299 0 q 273 8 282 0 q 260 33 264 15 l 69 928 q 67 938 68 933 q 67 944 67 943 q 75 964 67 956 q 94 972 83 972 l 124 972 q 154 951 150 972 l 317 160 l 489 725 q 503 747 493 738 q 532 757 514 757 l 563 757 q 592 747 582 757 q 606 725 601 738 l 778 160 l 940 951 q 971 972 944 972 l 1000 972 q 1019 964 1011 972 q 1028 944 1028 956 q 1027 938 1028 943 q 1025 928 1026 933 l 835 33 q 822 8 831 15 q 796 0 813 0 l 775 0 q 748 8 758 0 q 732 33 738 17 l 547 619 l 363 33 q 347 8 357 17 q 319 0 336 0 l 299 0 m 647 1042 q 625 1050 633 1042 q 617 1072 617 1058 l 617 1125 q 625 1148 617 1139 q 647 1157 633 1157 l 700 1157 q 723 1148 714 1157 q 732 1125 732 1139 l 732 1072 q 723 1050 732 1058 q 700 1042 714 1042 l 647 1042 m 393 1042 q 371 1050 379 1042 q 363 1072 363 1058 l 363 1125 q 371 1148 363 1139 q 393 1157 379 1157 l 446 1157 q 469 1148 460 1157 q 478 1125 478 1139 l 478 1072 q 469 1050 478 1058 q 446 1042 460 1042 l 393 1042 z "},"Ẁ":{"ha":1094,"x_min":67,"x_max":1028,"o":"m 299 0 q 273 8 282 0 q 260 33 264 15 l 69 928 q 67 938 68 933 q 67 944 67 943 q 75 964 67 956 q 94 972 83 972 l 124 972 q 154 951 150 972 l 317 160 l 489 725 q 503 747 493 738 q 532 757 514 757 l 563 757 q 592 747 582 757 q 606 725 601 738 l 778 160 l 940 951 q 971 972 944 972 l 1000 972 q 1019 964 1011 972 q 1028 944 1028 956 q 1027 938 1028 943 q 1025 928 1026 933 l 835 33 q 822 8 831 15 q 796 0 813 0 l 775 0 q 748 8 758 0 q 732 33 738 17 l 547 619 l 363 33 q 347 8 357 17 q 319 0 336 0 l 299 0 m 557 1042 q 534 1044 543 1042 q 514 1056 525 1046 l 363 1179 q 356 1196 356 1186 q 382 1222 356 1222 l 446 1222 q 476 1217 467 1222 q 497 1197 486 1211 l 593 1082 q 600 1064 600 1075 q 578 1042 600 1042 l 557 1042 z "},"X":{"ha":846,"x_min":42,"x_max":806,"o":"m 69 0 q 50 8 58 0 q 42 28 42 17 q 44 38 42 33 q 47 46 46 43 l 371 494 l 60 926 q 54 944 54 935 q 63 964 54 956 q 82 972 71 972 l 115 972 q 133 967 125 972 q 147 951 140 963 l 426 563 l 700 951 q 715 967 707 963 q 732 972 722 972 l 763 972 q 782 964 774 972 q 790 944 790 956 q 785 926 790 935 l 478 492 l 800 46 q 804 38 803 43 q 806 28 806 33 q 797 8 806 17 q 778 0 789 0 l 744 0 q 727 6 735 0 q 713 21 719 11 l 422 422 l 132 21 q 117 6 125 11 q 100 0 110 0 l 69 0 z "},"Y":{"ha":878,"x_min":50,"x_max":828,"o":"m 425 0 q 403 8 411 0 q 394 31 394 17 l 394 371 l 56 926 q 52 935 54 931 q 50 944 50 939 q 58 964 50 956 q 78 972 67 972 l 106 972 q 124 967 115 972 q 138 951 132 963 l 439 461 l 740 951 q 755 967 747 963 q 772 972 763 972 l 800 972 q 819 964 811 972 q 828 944 828 956 q 826 935 828 939 q 822 926 825 931 l 483 371 l 483 31 q 475 8 483 17 q 451 0 467 0 l 425 0 z "},"Ý":{"ha":878,"x_min":50,"x_max":828,"o":"m 425 0 q 403 8 411 0 q 394 31 394 17 l 394 371 l 56 926 q 52 935 54 931 q 50 944 50 939 q 58 964 50 956 q 78 972 67 972 l 106 972 q 124 967 115 972 q 138 951 132 963 l 439 461 l 740 951 q 755 967 747 963 q 772 972 763 972 l 800 972 q 819 964 811 972 q 828 944 828 956 q 826 935 828 939 q 822 926 825 931 l 483 371 l 483 31 q 475 8 483 17 q 451 0 467 0 l 425 0 m 422 1042 q 400 1064 400 1042 q 407 1082 400 1075 l 503 1197 q 524 1217 514 1211 q 554 1222 533 1222 l 618 1222 q 644 1196 644 1222 q 638 1179 644 1186 l 486 1056 q 466 1044 475 1046 q 443 1042 457 1042 l 422 1042 z "},"Ŷ":{"ha":878,"x_min":50,"x_max":828,"o":"m 425 0 q 403 8 411 0 q 394 31 394 17 l 394 371 l 56 926 q 52 935 54 931 q 50 944 50 939 q 58 964 50 956 q 78 972 67 972 l 106 972 q 124 967 115 972 q 138 951 132 963 l 439 461 l 740 951 q 755 967 747 963 q 772 972 763 972 l 800 972 q 819 964 811 972 q 828 944 828 956 q 826 935 828 939 q 822 926 825 931 l 483 371 l 483 31 q 475 8 483 17 q 451 0 467 0 l 425 0 m 269 1042 q 250 1057 250 1042 q 267 1085 250 1068 l 388 1203 q 413 1220 403 1218 q 432 1222 422 1222 l 446 1222 q 467 1220 457 1222 q 490 1203 476 1218 l 611 1085 q 628 1057 628 1068 q 608 1042 628 1042 l 585 1042 q 566 1044 576 1042 q 550 1051 556 1047 l 439 1135 l 328 1051 q 312 1044 322 1047 q 293 1042 301 1042 l 269 1042 z "},"Ÿ":{"ha":878,"x_min":50,"x_max":828,"o":"m 425 0 q 403 8 411 0 q 394 31 394 17 l 394 371 l 56 926 q 52 935 54 931 q 50 944 50 939 q 58 964 50 956 q 78 972 67 972 l 106 972 q 124 967 115 972 q 138 951 132 963 l 439 461 l 740 951 q 755 967 747 963 q 772 972 763 972 l 800 972 q 819 964 811 972 q 828 944 828 956 q 826 935 828 939 q 822 926 825 931 l 483 371 l 483 31 q 475 8 483 17 q 451 0 467 0 l 425 0 m 539 1042 q 517 1050 525 1042 q 508 1072 508 1058 l 508 1125 q 517 1148 508 1139 q 539 1157 525 1157 l 592 1157 q 615 1148 606 1157 q 624 1125 624 1139 l 624 1072 q 615 1050 624 1058 q 592 1042 606 1042 l 539 1042 m 285 1042 q 263 1050 271 1042 q 254 1072 254 1058 l 254 1125 q 263 1148 254 1139 q 285 1157 271 1157 l 338 1157 q 360 1148 351 1157 q 369 1125 369 1139 l 369 1072 q 360 1050 369 1058 q 338 1042 351 1042 l 285 1042 z "},"Ỳ":{"ha":878,"x_min":50,"x_max":828,"o":"m 425 0 q 403 8 411 0 q 394 31 394 17 l 394 371 l 56 926 q 52 935 54 931 q 50 944 50 939 q 58 964 50 956 q 78 972 67 972 l 106 972 q 124 967 115 972 q 138 951 132 963 l 439 461 l 740 951 q 755 967 747 963 q 772 972 763 972 l 800 972 q 819 964 811 972 q 828 944 828 956 q 826 935 828 939 q 822 926 825 931 l 483 371 l 483 31 q 475 8 483 17 q 451 0 467 0 l 425 0 m 449 1042 q 426 1044 435 1042 q 406 1056 417 1046 l 254 1179 q 247 1196 247 1186 q 274 1222 247 1222 l 338 1222 q 368 1217 358 1222 q 389 1197 378 1211 l 485 1082 q 492 1064 492 1075 q 469 1042 492 1042 l 449 1042 z "},"Z":{"ha":804,"x_min":58,"x_max":746,"o":"m 89 0 q 67 9 75 0 q 58 32 58 18 l 58 60 q 67 94 58 81 q 79 113 75 107 l 626 889 l 101 889 q 79 897 88 889 q 71 919 71 906 l 71 940 q 79 964 71 956 q 101 972 88 972 l 700 972 q 724 964 715 972 q 732 940 732 956 l 732 913 q 726 883 732 894 q 714 863 721 872 l 169 83 l 714 83 q 738 75 729 83 q 746 51 746 67 l 746 31 q 738 8 746 17 q 714 0 729 0 l 89 0 z "},"Ź":{"ha":804,"x_min":58,"x_max":746,"o":"m 89 0 q 67 9 75 0 q 58 32 58 18 l 58 60 q 67 94 58 81 q 79 113 75 107 l 626 889 l 101 889 q 79 897 88 889 q 71 919 71 906 l 71 940 q 79 964 71 956 q 101 972 88 972 l 700 972 q 724 964 715 972 q 732 940 732 956 l 732 913 q 726 883 732 894 q 714 863 721 872 l 169 83 l 714 83 q 738 75 729 83 q 746 51 746 67 l 746 31 q 738 8 746 17 q 714 0 729 0 l 89 0 m 372 1042 q 350 1064 350 1042 q 357 1082 350 1075 l 453 1197 q 474 1217 464 1211 q 504 1222 483 1222 l 568 1222 q 594 1196 594 1222 q 588 1179 594 1186 l 436 1056 q 416 1044 425 1046 q 393 1042 407 1042 l 372 1042 z "},"Ž":{"ha":804,"x_min":58,"x_max":746,"o":"m 89 0 q 67 9 75 0 q 58 32 58 18 l 58 60 q 67 94 58 81 q 79 113 75 107 l 626 889 l 101 889 q 79 897 88 889 q 71 919 71 906 l 71 940 q 79 964 71 956 q 101 972 88 972 l 700 972 q 724 964 715 972 q 732 940 732 956 l 732 913 q 726 883 732 894 q 714 863 721 872 l 169 83 l 714 83 q 738 75 729 83 q 746 51 746 67 l 746 31 q 738 8 746 17 q 714 0 729 0 l 89 0 m 382 1042 q 363 1044 372 1042 q 338 1061 353 1047 l 217 1179 q 200 1207 200 1196 q 219 1222 200 1222 l 243 1222 q 262 1219 251 1222 q 278 1213 272 1217 l 389 1129 l 500 1213 q 516 1219 506 1217 q 535 1222 526 1222 l 558 1222 q 578 1207 578 1222 q 561 1179 578 1196 l 440 1061 q 417 1044 426 1047 q 396 1042 407 1042 l 382 1042 z "},"Ż":{"ha":804,"x_min":58,"x_max":746,"o":"m 89 0 q 67 9 75 0 q 58 32 58 18 l 58 60 q 67 94 58 81 q 79 113 75 107 l 626 889 l 101 889 q 79 897 88 889 q 71 919 71 906 l 71 940 q 79 964 71 956 q 101 972 88 972 l 700 972 q 724 964 715 972 q 732 940 732 956 l 732 913 q 726 883 732 894 q 714 863 721 872 l 169 83 l 714 83 q 738 75 729 83 q 746 51 746 67 l 746 31 q 738 8 746 17 q 714 0 729 0 l 89 0 m 354 1042 q 332 1050 340 1042 q 324 1072 324 1058 l 324 1139 q 332 1162 324 1153 q 354 1171 340 1171 l 421 1171 q 444 1162 435 1171 q 453 1139 453 1153 l 453 1072 q 444 1050 453 1058 q 421 1042 435 1042 l 354 1042 z "},"a":{"ha":744,"x_min":58,"x_max":638,"o":"m 307 -14 q 184 14 240 -14 q 93 88 128 42 q 58 193 58 135 q 135 344 58 288 q 333 418 211 401 l 553 449 l 553 497 q 508 613 553 571 q 364 656 463 656 q 247 627 292 656 q 186 553 203 599 q 160 532 179 532 l 138 532 q 114 541 121 532 q 107 563 107 550 q 122 611 107 582 q 167 669 136 640 q 246 717 197 697 q 364 736 294 736 q 499 714 446 736 q 583 656 553 692 q 625 578 613 621 q 638 493 638 535 l 638 31 q 629 8 638 17 q 607 0 621 0 l 583 0 q 561 8 569 0 q 553 31 553 17 l 553 96 q 506 46 536 71 q 427 3 475 21 q 307 -14 379 -14 m 321 67 q 438 94 385 67 q 522 180 490 122 q 553 325 553 238 l 553 372 l 374 347 q 201 294 260 332 q 143 200 143 257 q 169 125 143 154 q 237 81 196 96 q 321 67 278 67 z "},"á":{"ha":744,"x_min":58,"x_max":638,"o":"m 307 -14 q 184 14 240 -14 q 93 88 128 42 q 58 193 58 135 q 135 344 58 288 q 333 418 211 401 l 553 449 l 553 497 q 508 613 553 571 q 364 656 463 656 q 247 627 292 656 q 186 553 203 599 q 160 532 179 532 l 138 532 q 114 541 121 532 q 107 563 107 550 q 122 611 107 582 q 167 669 136 640 q 246 717 197 697 q 364 736 294 736 q 499 714 446 736 q 583 656 553 692 q 625 578 613 621 q 638 493 638 535 l 638 31 q 629 8 638 17 q 607 0 621 0 l 583 0 q 561 8 569 0 q 553 31 553 17 l 553 96 q 506 46 536 71 q 427 3 475 21 q 307 -14 379 -14 m 321 67 q 438 94 385 67 q 522 180 490 122 q 553 325 553 238 l 553 372 l 374 347 q 201 294 260 332 q 143 200 143 257 q 169 125 143 154 q 237 81 196 96 q 321 67 278 67 m 349 826 q 326 849 326 826 q 333 867 326 860 l 429 982 q 450 1001 440 996 q 481 1007 460 1007 l 538 1007 q 564 981 564 1007 q 557 964 564 971 l 406 840 q 385 828 394 831 q 363 826 376 826 l 349 826 z "},"ă":{"ha":744,"x_min":58,"x_max":638,"o":"m 307 -14 q 184 14 240 -14 q 93 88 128 42 q 58 193 58 135 q 135 344 58 288 q 333 418 211 401 l 553 449 l 553 497 q 508 613 553 571 q 364 656 463 656 q 247 627 292 656 q 186 553 203 599 q 160 532 179 532 l 138 532 q 114 541 121 532 q 107 563 107 550 q 122 611 107 582 q 167 669 136 640 q 246 717 197 697 q 364 736 294 736 q 499 714 446 736 q 583 656 553 692 q 625 578 613 621 q 638 493 638 535 l 638 31 q 629 8 638 17 q 607 0 621 0 l 583 0 q 561 8 569 0 q 553 31 553 17 l 553 96 q 506 46 536 71 q 427 3 475 21 q 307 -14 379 -14 m 321 67 q 438 94 385 67 q 522 180 490 122 q 553 325 553 238 l 553 372 l 374 347 q 201 294 260 332 q 143 200 143 257 q 169 125 143 154 q 237 81 196 96 q 321 67 278 67 m 368 819 q 274 843 307 819 q 228 904 240 867 q 215 981 215 942 q 222 999 215 992 q 242 1007 229 1007 l 263 1007 q 282 999 275 1007 q 289 981 289 992 q 305 918 289 947 q 368 889 321 889 q 432 918 417 889 q 447 981 447 947 q 454 999 447 992 q 474 1007 461 1007 l 494 1007 q 514 999 507 1007 q 521 981 521 992 q 508 904 521 942 q 463 843 496 867 q 368 819 429 819 z "},"â":{"ha":744,"x_min":58,"x_max":638,"o":"m 307 -14 q 184 14 240 -14 q 93 88 128 42 q 58 193 58 135 q 135 344 58 288 q 333 418 211 401 l 553 449 l 553 497 q 508 613 553 571 q 364 656 463 656 q 247 627 292 656 q 186 553 203 599 q 160 532 179 532 l 138 532 q 114 541 121 532 q 107 563 107 550 q 122 611 107 582 q 167 669 136 640 q 246 717 197 697 q 364 736 294 736 q 499 714 446 736 q 583 656 553 692 q 625 578 613 621 q 638 493 638 535 l 638 31 q 629 8 638 17 q 607 0 621 0 l 583 0 q 561 8 569 0 q 553 31 553 17 l 553 96 q 506 46 536 71 q 427 3 475 21 q 307 -14 379 -14 m 321 67 q 438 94 385 67 q 522 180 490 122 q 553 325 553 238 l 553 372 l 374 347 q 201 294 260 332 q 143 200 143 257 q 169 125 143 154 q 237 81 196 96 q 321 67 278 67 m 199 826 q 179 842 179 826 q 196 869 179 853 l 317 988 q 342 1005 332 1003 q 361 1007 351 1007 l 375 1007 q 396 1005 386 1007 q 419 988 406 1003 l 540 869 q 557 842 557 853 q 538 826 557 826 l 514 826 q 495 829 506 826 q 479 836 485 832 l 368 919 l 257 836 q 241 829 251 832 q 222 826 231 826 l 199 826 z "},"ä":{"ha":744,"x_min":58,"x_max":638,"o":"m 307 -14 q 184 14 240 -14 q 93 88 128 42 q 58 193 58 135 q 135 344 58 288 q 333 418 211 401 l 553 449 l 553 497 q 508 613 553 571 q 364 656 463 656 q 247 627 292 656 q 186 553 203 599 q 160 532 179 532 l 138 532 q 114 541 121 532 q 107 563 107 550 q 122 611 107 582 q 167 669 136 640 q 246 717 197 697 q 364 736 294 736 q 499 714 446 736 q 583 656 553 692 q 625 578 613 621 q 638 493 638 535 l 638 31 q 629 8 638 17 q 607 0 621 0 l 583 0 q 561 8 569 0 q 553 31 553 17 l 553 96 q 506 46 536 71 q 427 3 475 21 q 307 -14 379 -14 m 321 67 q 438 94 385 67 q 522 180 490 122 q 553 325 553 238 l 553 372 l 374 347 q 201 294 260 332 q 143 200 143 257 q 169 125 143 154 q 237 81 196 96 q 321 67 278 67 m 447 871 q 425 879 433 871 q 417 901 417 888 l 417 954 q 425 977 417 968 q 447 986 433 986 l 500 986 q 523 977 514 986 q 532 954 532 968 l 532 901 q 523 879 532 888 q 500 871 514 871 l 447 871 m 235 871 q 213 879 221 871 q 204 901 204 888 l 204 954 q 213 977 204 968 q 235 986 221 986 l 288 986 q 310 977 301 986 q 319 954 319 968 l 319 901 q 310 879 319 888 q 288 871 301 871 l 235 871 z "},"à":{"ha":744,"x_min":58,"x_max":638,"o":"m 307 -14 q 184 14 240 -14 q 93 88 128 42 q 58 193 58 135 q 135 344 58 288 q 333 418 211 401 l 553 449 l 553 497 q 508 613 553 571 q 364 656 463 656 q 247 627 292 656 q 186 553 203 599 q 160 532 179 532 l 138 532 q 114 541 121 532 q 107 563 107 550 q 122 611 107 582 q 167 669 136 640 q 246 717 197 697 q 364 736 294 736 q 499 714 446 736 q 583 656 553 692 q 625 578 613 621 q 638 493 638 535 l 638 31 q 629 8 638 17 q 607 0 621 0 l 583 0 q 561 8 569 0 q 553 31 553 17 l 553 96 q 506 46 536 71 q 427 3 475 21 q 307 -14 379 -14 m 321 67 q 438 94 385 67 q 522 180 490 122 q 553 325 553 238 l 553 372 l 374 347 q 201 294 260 332 q 143 200 143 257 q 169 125 143 154 q 237 81 196 96 q 321 67 278 67 m 389 826 q 366 828 375 826 q 346 840 357 831 l 194 964 q 188 981 188 971 q 214 1007 188 1007 l 271 1007 q 301 1001 292 1007 q 322 982 311 996 l 418 867 q 425 849 425 860 q 403 826 425 826 l 389 826 z "},"ā":{"ha":744,"x_min":58,"x_max":638,"o":"m 307 -14 q 184 14 240 -14 q 93 88 128 42 q 58 193 58 135 q 135 344 58 288 q 333 418 211 401 l 553 449 l 553 497 q 508 613 553 571 q 364 656 463 656 q 247 627 292 656 q 186 553 203 599 q 160 532 179 532 l 138 532 q 114 541 121 532 q 107 563 107 550 q 122 611 107 582 q 167 669 136 640 q 246 717 197 697 q 364 736 294 736 q 499 714 446 736 q 583 656 553 692 q 625 578 613 621 q 638 493 638 535 l 638 31 q 629 8 638 17 q 607 0 621 0 l 583 0 q 561 8 569 0 q 553 31 553 17 l 553 96 q 506 46 536 71 q 427 3 475 21 q 307 -14 379 -14 m 321 67 q 438 94 385 67 q 522 180 490 122 q 553 325 553 238 l 553 372 l 374 347 q 201 294 260 332 q 143 200 143 257 q 169 125 143 154 q 237 81 196 96 q 321 67 278 67 m 229 864 q 207 872 215 864 q 199 894 199 881 l 199 914 q 207 936 199 928 q 229 944 215 944 l 506 944 q 528 936 519 944 q 536 914 536 928 l 536 894 q 528 872 536 881 q 506 864 519 864 l 229 864 z "},"ą":{"ha":744,"x_min":58,"x_max":638,"o":"m 594 -306 q 517 -285 553 -306 q 460 -224 482 -264 q 439 -125 439 -183 q 457 -46 439 -81 q 501 13 475 -11 q 553 49 528 38 q 553 51 553 50 q 553 53 553 51 l 553 96 q 506 46 536 71 q 427 3 475 21 q 307 -14 379 -14 q 184 14 240 -14 q 93 88 128 42 q 58 193 58 135 q 135 344 58 288 q 333 418 211 401 l 553 449 l 553 497 q 508 613 553 571 q 364 656 463 656 q 276 642 313 656 q 219 606 240 628 q 190 561 199 585 q 177 538 185 544 q 157 532 169 532 l 138 532 q 116 541 125 532 q 107 563 107 550 q 122 611 107 582 q 167 669 136 640 q 246 717 197 697 q 364 736 294 736 q 499 714 446 736 q 583 656 553 692 q 625 578 613 621 q 638 493 638 535 l 638 31 q 633 15 638 22 q 618 1 629 7 l 615 0 q 546 -49 569 -22 q 522 -125 522 -76 q 544 -202 522 -178 q 600 -226 565 -226 l 607 -226 q 629 -235 621 -226 q 638 -257 638 -243 l 638 -275 q 629 -297 638 -289 q 607 -306 621 -306 l 594 -306 m 321 67 q 438 94 385 67 q 522 180 490 122 q 553 325 553 238 l 553 372 l 374 347 q 201 294 260 332 q 143 200 143 257 q 169 125 143 154 q 237 81 196 96 q 321 67 278 67 z "},"å":{"ha":744,"x_min":58,"x_max":638,"o":"m 307 -14 q 184 14 240 -14 q 93 88 128 42 q 58 193 58 135 q 135 344 58 288 q 333 418 211 401 l 553 449 l 553 497 q 508 613 553 571 q 364 656 463 656 q 247 627 292 656 q 186 553 203 599 q 160 532 179 532 l 138 532 q 114 541 121 532 q 107 563 107 550 q 122 611 107 582 q 167 669 136 640 q 246 717 197 697 q 364 736 294 736 q 499 714 446 736 q 583 656 553 692 q 625 578 613 621 q 638 493 638 535 l 638 31 q 629 8 638 17 q 607 0 621 0 l 583 0 q 561 8 569 0 q 553 31 553 17 l 553 96 q 506 46 536 71 q 427 3 475 21 q 307 -14 379 -14 m 321 67 q 438 94 385 67 q 522 180 490 122 q 553 325 553 238 l 553 372 l 374 347 q 201 294 260 332 q 143 200 143 257 q 169 125 143 154 q 237 81 196 96 q 321 67 278 67 m 368 819 q 290 849 322 819 q 257 924 257 878 q 290 999 257 969 q 368 1028 322 1028 q 447 999 414 1028 q 479 924 479 969 q 447 849 479 878 q 368 819 414 819 m 368 882 q 398 894 386 882 q 410 924 410 906 q 398 953 410 942 q 368 965 386 965 q 338 953 350 965 q 326 924 326 942 q 338 894 326 906 q 368 882 350 882 z "},"ã":{"ha":744,"x_min":58,"x_max":638,"o":"m 307 -14 q 184 14 240 -14 q 93 88 128 42 q 58 193 58 135 q 135 344 58 288 q 333 418 211 401 l 553 449 l 553 497 q 508 613 553 571 q 364 656 463 656 q 247 627 292 656 q 186 553 203 599 q 160 532 179 532 l 138 532 q 114 541 121 532 q 107 563 107 550 q 122 611 107 582 q 167 669 136 640 q 246 717 197 697 q 364 736 294 736 q 499 714 446 736 q 583 656 553 692 q 625 578 613 621 q 638 493 638 535 l 638 31 q 629 8 638 17 q 607 0 621 0 l 583 0 q 561 8 569 0 q 553 31 553 17 l 553 96 q 506 46 536 71 q 427 3 475 21 q 307 -14 379 -14 m 321 67 q 438 94 385 67 q 522 180 490 122 q 553 325 553 238 l 553 372 l 374 347 q 201 294 260 332 q 143 200 143 257 q 169 125 143 154 q 237 81 196 96 q 321 67 278 67 m 433 819 q 381 831 401 819 q 344 855 361 843 q 308 867 328 867 q 286 857 293 867 q 273 837 279 847 q 251 826 267 826 l 224 826 q 208 833 214 826 q 201 849 201 840 q 209 886 201 868 q 230 919 217 904 q 261 942 243 933 q 300 950 279 950 q 353 938 333 950 q 390 915 374 926 q 426 903 407 903 q 449 913 443 903 q 462 934 456 924 q 483 944 468 944 l 511 944 q 528 938 522 944 q 533 922 533 931 q 526 884 533 903 q 504 851 518 865 q 472 828 490 836 q 433 819 454 819 z "},"æ":{"ha":1224,"x_min":60,"x_max":1153,"o":"m 308 -14 q 178 14 235 -14 q 91 88 122 42 q 60 193 60 135 q 136 347 60 288 q 335 422 213 406 l 554 453 l 554 497 q 509 613 554 571 q 365 656 464 656 q 278 642 314 656 q 220 606 242 628 q 190 561 199 585 q 177 538 185 544 q 157 532 169 532 l 138 532 q 116 541 125 532 q 107 563 107 550 q 122 611 107 582 q 167 669 136 640 q 247 717 197 697 q 365 736 296 736 q 529 701 471 736 q 613 614 588 665 q 708 702 649 668 q 854 736 767 736 q 1010 701 951 736 q 1100 610 1069 665 q 1142 492 1131 554 q 1153 378 1153 431 l 1153 357 q 1144 335 1153 343 q 1121 326 1135 326 l 640 326 l 640 313 q 676 168 643 222 q 757 90 708 114 q 853 67 806 67 q 960 88 907 67 q 1046 157 1013 110 q 1065 178 1057 174 q 1088 182 1072 182 l 1104 182 q 1133 154 1133 182 q 1116 111 1133 139 q 1063 55 1099 83 q 976 6 1028 26 q 853 -14 924 -14 q 688 29 751 -14 q 593 139 625 72 q 482 24 553 63 q 308 -14 411 -14 m 322 67 q 439 94 386 67 q 523 180 492 122 q 554 325 554 238 l 554 372 l 375 347 q 203 294 261 332 q 144 200 144 257 q 171 125 144 154 q 238 81 197 96 q 322 67 279 67 m 640 404 l 1068 404 l 1068 410 q 1016 585 1068 515 q 854 656 964 656 q 753 629 801 656 q 674 549 706 603 q 640 410 643 494 l 640 404 z "},"ǽ":{"ha":1224,"x_min":60,"x_max":1153,"o":"m 308 -14 q 178 14 235 -14 q 91 88 122 42 q 60 193 60 135 q 136 347 60 288 q 335 422 213 406 l 554 453 l 554 497 q 509 613 554 571 q 365 656 464 656 q 278 642 314 656 q 220 606 242 628 q 190 561 199 585 q 177 538 185 544 q 157 532 169 532 l 138 532 q 116 541 125 532 q 107 563 107 550 q 122 611 107 582 q 167 669 136 640 q 247 717 197 697 q 365 736 296 736 q 529 701 471 736 q 613 614 588 665 q 708 702 649 668 q 854 736 767 736 q 1010 701 951 736 q 1100 610 1069 665 q 1142 492 1131 554 q 1153 378 1153 431 l 1153 357 q 1144 335 1153 343 q 1121 326 1135 326 l 640 326 l 640 313 q 676 168 643 222 q 757 90 708 114 q 853 67 806 67 q 960 88 907 67 q 1046 157 1013 110 q 1065 178 1057 174 q 1088 182 1072 182 l 1104 182 q 1133 154 1133 182 q 1116 111 1133 139 q 1063 55 1099 83 q 976 6 1028 26 q 853 -14 924 -14 q 688 29 751 -14 q 593 139 625 72 q 482 24 553 63 q 308 -14 411 -14 m 322 67 q 439 94 386 67 q 523 180 492 122 q 554 325 554 238 l 554 372 l 375 347 q 203 294 261 332 q 144 200 144 257 q 171 125 144 154 q 238 81 197 96 q 322 67 279 67 m 640 404 l 1068 404 l 1068 410 q 1016 585 1068 515 q 854 656 964 656 q 753 629 801 656 q 674 549 706 603 q 640 410 643 494 l 640 404 m 596 826 q 574 849 574 826 q 581 867 574 860 l 676 982 q 697 1001 688 996 q 728 1007 707 1007 l 785 1007 q 811 981 811 1007 q 804 964 811 971 l 653 840 q 633 828 642 831 q 610 826 624 826 l 596 826 z "},"b":{"ha":806,"x_min":114,"x_max":731,"o":"m 432 -14 q 290 17 346 -14 q 199 96 233 49 l 199 31 q 190 8 199 17 q 168 0 182 0 l 144 0 q 122 8 131 0 q 114 31 114 17 l 114 956 q 122 978 114 969 q 144 986 131 986 l 168 986 q 190 978 182 986 q 199 956 199 969 l 199 626 q 290 704 233 672 q 432 736 346 736 q 569 707 514 736 q 660 629 625 678 q 711 521 694 581 q 729 400 728 461 q 731 361 731 379 q 729 322 731 343 q 711 201 728 261 q 660 93 694 142 q 569 15 625 44 q 432 -14 514 -14 m 424 67 q 553 103 506 67 q 621 197 600 139 q 644 322 642 256 q 644 400 646 361 q 621 525 642 467 q 553 619 600 583 q 424 656 506 656 q 298 619 347 656 q 224 529 249 583 q 199 419 200 475 q 197 365 197 399 q 199 311 197 332 q 224 198 201 254 q 296 104 247 142 q 424 67 344 67 z "},"c":{"ha":744,"x_min":78,"x_max":675,"o":"m 386 -14 q 221 24 289 -14 q 117 135 153 63 q 79 306 82 207 q 78 361 78 326 q 79 417 78 396 q 117 588 82 517 q 221 698 153 660 q 386 736 289 736 q 513 716 460 736 q 601 663 567 696 q 654 592 636 631 q 674 515 672 553 q 665 493 675 501 q 643 485 656 485 l 624 485 q 603 491 610 485 q 590 514 597 497 q 510 624 561 593 q 386 656 460 656 q 230 598 292 656 q 164 410 168 540 q 164 313 161 361 q 230 124 168 182 q 386 67 292 67 q 510 98 460 67 q 590 208 561 129 q 603 231 597 225 q 624 238 610 238 l 643 238 q 665 229 656 238 q 674 207 675 221 q 661 146 672 176 q 627 86 650 115 q 571 35 604 57 q 491 -1 538 13 q 386 -14 444 -14 z "},"ć":{"ha":744,"x_min":78,"x_max":675,"o":"m 386 -14 q 221 24 289 -14 q 117 135 153 63 q 79 306 82 207 q 78 361 78 326 q 79 417 78 396 q 117 588 82 517 q 221 698 153 660 q 386 736 289 736 q 513 716 460 736 q 601 663 567 696 q 654 592 636 631 q 674 515 672 553 q 665 493 675 501 q 643 485 656 485 l 624 485 q 603 491 610 485 q 590 514 597 497 q 510 624 561 593 q 386 656 460 656 q 230 598 292 656 q 164 410 168 540 q 164 313 161 361 q 230 124 168 182 q 386 67 292 67 q 510 98 460 67 q 590 208 561 129 q 603 231 597 225 q 624 238 610 238 l 643 238 q 665 229 656 238 q 674 207 675 221 q 661 146 672 176 q 627 86 650 115 q 571 35 604 57 q 491 -1 538 13 q 386 -14 444 -14 m 357 826 q 335 849 335 826 q 342 867 335 860 l 438 982 q 458 1001 449 996 q 489 1007 468 1007 l 546 1007 q 572 981 572 1007 q 565 964 572 971 l 414 840 q 394 828 403 831 q 371 826 385 826 l 357 826 z "},"č":{"ha":744,"x_min":78,"x_max":675,"o":"m 386 -14 q 221 24 289 -14 q 117 135 153 63 q 79 306 82 207 q 78 361 78 326 q 79 417 78 396 q 117 588 82 517 q 221 698 153 660 q 386 736 289 736 q 513 716 460 736 q 601 663 567 696 q 654 592 636 631 q 674 515 672 553 q 665 493 675 501 q 643 485 656 485 l 624 485 q 603 491 610 485 q 590 514 597 497 q 510 624 561 593 q 386 656 460 656 q 230 598 292 656 q 164 410 168 540 q 164 313 161 361 q 230 124 168 182 q 386 67 292 67 q 510 98 460 67 q 590 208 561 129 q 603 231 597 225 q 624 238 610 238 l 643 238 q 665 229 656 238 q 674 207 675 221 q 661 146 672 176 q 627 86 650 115 q 571 35 604 57 q 491 -1 538 13 q 386 -14 444 -14 m 369 826 q 350 829 360 826 q 325 846 340 832 l 204 964 q 188 992 188 981 q 207 1007 188 1007 l 231 1007 q 249 1004 239 1007 q 265 997 260 1001 l 376 914 l 488 997 q 503 1004 493 1001 q 522 1007 514 1007 l 546 1007 q 565 992 565 1007 q 549 964 565 981 l 428 846 q 404 829 414 832 q 383 826 394 826 l 369 826 z "},"ç":{"ha":744,"x_min":78,"x_max":675,"o":"m 382 -306 q 313 -291 343 -304 q 270 -261 283 -278 q 268 -235 257 -244 l 288 -217 q 310 -212 300 -206 q 335 -231 319 -219 q 382 -242 351 -242 q 424 -227 406 -242 q 442 -186 442 -212 q 424 -147 442 -161 q 382 -133 406 -133 q 345 -140 360 -133 q 320 -148 331 -146 q 299 -139 310 -150 l 276 -115 q 274 -95 269 -107 q 283 -74 279 -83 l 313 -7 q 142 94 201 13 q 79 306 82 176 q 78 361 78 326 q 79 417 78 396 q 117 588 82 517 q 221 698 153 660 q 386 736 289 736 q 513 716 460 736 q 601 663 567 696 q 654 592 636 631 q 674 515 672 553 q 665 493 675 501 q 643 485 656 485 l 624 485 q 603 491 610 485 q 590 514 597 497 q 510 624 561 593 q 386 656 460 656 q 230 598 292 656 q 164 410 168 540 q 164 313 161 361 q 230 124 168 182 q 386 67 292 67 q 510 98 460 67 q 590 208 561 129 q 603 231 597 225 q 624 238 610 238 l 643 238 q 665 229 656 238 q 674 207 675 221 q 654 131 672 169 q 601 59 636 92 q 513 6 567 26 q 386 -14 460 -14 l 354 -81 q 377 -72 363 -75 q 407 -69 392 -69 q 483 -101 453 -69 q 513 -183 513 -133 q 480 -270 513 -233 q 382 -306 447 -307 z "},"ĉ":{"ha":744,"x_min":78,"x_max":675,"o":"m 386 -14 q 221 24 289 -14 q 117 135 153 63 q 79 306 82 207 q 78 361 78 326 q 79 417 78 396 q 117 588 82 517 q 221 698 153 660 q 386 736 289 736 q 513 716 460 736 q 601 663 567 696 q 654 592 636 631 q 674 515 672 553 q 665 493 675 501 q 643 485 656 485 l 624 485 q 603 491 610 485 q 590 514 597 497 q 510 624 561 593 q 386 656 460 656 q 230 598 292 656 q 164 410 168 540 q 164 313 161 361 q 230 124 168 182 q 386 67 292 67 q 510 98 460 67 q 590 208 561 129 q 603 231 597 225 q 624 238 610 238 l 643 238 q 665 229 656 238 q 674 207 675 221 q 661 146 672 176 q 627 86 650 115 q 571 35 604 57 q 491 -1 538 13 q 386 -14 444 -14 m 207 826 q 188 842 188 826 q 204 869 188 853 l 325 988 q 350 1005 340 1003 q 369 1007 360 1007 l 383 1007 q 404 1005 394 1007 q 428 988 414 1003 l 549 869 q 565 842 565 853 q 546 826 565 826 l 522 826 q 503 829 514 826 q 488 836 493 832 l 376 919 l 265 836 q 249 829 260 832 q 231 826 239 826 l 207 826 z "},"ċ":{"ha":744,"x_min":78,"x_max":675,"o":"m 386 -14 q 221 24 289 -14 q 117 135 153 63 q 79 306 82 207 q 78 361 78 326 q 79 417 78 396 q 117 588 82 517 q 221 698 153 660 q 386 736 289 736 q 513 716 460 736 q 601 663 567 696 q 654 592 636 631 q 674 515 672 553 q 665 493 675 501 q 643 485 656 485 l 624 485 q 603 491 610 485 q 590 514 597 497 q 510 624 561 593 q 386 656 460 656 q 230 598 292 656 q 164 410 168 540 q 164 313 161 361 q 230 124 168 182 q 386 67 292 67 q 510 98 460 67 q 590 208 561 129 q 603 231 597 225 q 624 238 610 238 l 643 238 q 665 229 656 238 q 674 207 675 221 q 661 146 672 176 q 627 86 650 115 q 571 35 604 57 q 491 -1 538 13 q 386 -14 444 -14 m 342 857 q 319 865 328 857 q 311 888 311 874 l 311 954 q 319 977 311 968 q 342 986 328 986 l 408 986 q 431 977 422 986 q 440 954 440 968 l 440 888 q 431 865 440 874 q 408 857 422 857 l 342 857 z "},"d":{"ha":806,"x_min":75,"x_max":692,"o":"m 374 -14 q 237 15 293 -14 q 146 93 181 44 q 95 201 111 142 q 76 322 79 261 q 75 361 75 343 q 76 400 75 379 q 95 521 79 461 q 146 629 111 581 q 237 707 181 678 q 374 736 293 736 q 516 704 460 736 q 607 626 572 672 l 607 956 q 615 978 607 969 q 638 986 624 986 l 661 986 q 683 978 675 986 q 692 956 692 969 l 692 31 q 683 8 692 17 q 661 0 675 0 l 638 0 q 615 8 624 0 q 607 31 607 17 l 607 96 q 516 17 572 49 q 374 -14 460 -14 m 382 67 q 510 104 461 67 q 582 198 558 142 q 607 311 606 254 q 608 365 608 332 q 607 419 608 399 q 581 529 606 475 q 508 619 557 583 q 382 656 460 656 q 253 619 301 656 q 185 525 206 583 q 161 400 164 467 q 161 322 160 361 q 185 197 164 256 q 253 103 206 139 q 382 67 301 67 z "},"ð":{"ha":764,"x_min":75,"x_max":683,"o":"m 379 -14 q 211 30 279 -14 q 109 150 143 74 q 75 321 75 226 q 109 492 75 417 q 211 610 143 567 q 379 653 279 653 q 481 639 435 653 q 563 599 528 625 q 472 768 531 696 l 339 717 q 321 713 329 713 q 302 719 310 713 q 294 738 294 725 l 294 764 q 301 786 294 779 q 325 799 308 793 l 411 832 q 367 872 390 851 q 318 914 343 893 q 299 932 304 925 q 294 944 294 939 q 302 965 294 957 q 322 972 310 972 l 350 972 q 378 967 367 972 q 400 954 390 963 q 450 910 426 932 q 496 864 474 888 l 625 914 q 643 918 636 918 q 662 912 654 918 q 669 893 669 906 l 669 867 q 663 845 669 851 q 639 832 656 839 l 553 799 q 647 611 613 722 q 683 322 682 500 q 683 320 683 321 q 683 318 683 319 q 649 148 683 224 q 547 29 614 72 q 379 -14 479 -14 m 379 67 q 500 100 451 67 q 574 190 549 133 q 599 317 599 247 q 599 319 599 318 q 599 322 599 321 q 574 449 599 392 q 501 539 550 506 q 379 572 453 572 q 258 539 307 572 q 184 449 208 506 q 160 322 160 392 q 160 317 160 319 q 160 314 160 315 q 186 190 161 246 q 260 100 211 133 q 379 67 308 67 z "},"ď":{"ha":806,"x_min":75,"x_max":910,"o":"m 374 -14 q 237 15 293 -14 q 146 93 181 44 q 95 201 111 142 q 76 322 79 261 q 75 361 75 343 q 76 400 75 379 q 95 521 79 461 q 146 629 111 581 q 237 707 181 678 q 374 736 293 736 q 516 704 460 736 q 607 626 572 672 l 607 956 q 615 978 607 969 q 638 986 624 986 l 661 986 q 683 978 675 986 q 692 956 692 969 l 692 31 q 683 8 692 17 q 661 0 675 0 l 638 0 q 615 8 624 0 q 607 31 607 17 l 607 96 q 516 17 572 49 q 374 -14 460 -14 m 382 67 q 510 104 461 67 q 582 198 558 142 q 607 311 606 254 q 608 365 608 332 q 607 419 608 399 q 581 529 606 475 q 508 619 557 583 q 382 656 460 656 q 253 619 301 656 q 185 525 206 583 q 161 400 164 467 q 161 322 160 361 q 185 197 164 256 q 253 103 206 139 q 382 67 301 67 m 788 764 q 772 772 776 764 q 768 793 767 781 l 792 949 q 802 976 794 965 q 826 986 810 986 l 889 986 q 904 979 899 986 q 910 964 910 972 q 904 939 910 951 l 849 793 q 835 772 843 779 q 813 764 828 764 l 788 764 z "},"đ":{"ha":806,"x_min":76,"x_max":804,"o":"m 375 -14 q 226 19 283 -14 q 136 103 168 51 q 92 214 104 156 q 78 322 79 272 q 76 361 76 343 q 78 400 76 379 q 92 508 79 450 q 136 619 104 567 q 226 703 168 671 q 375 736 283 736 q 517 704 461 736 q 608 626 574 672 l 608 793 l 528 793 q 506 801 514 793 q 497 824 497 810 l 497 843 q 506 865 497 857 q 528 874 514 874 l 608 874 l 608 956 q 617 978 608 969 q 639 986 625 986 l 663 986 q 685 978 676 986 q 693 956 693 969 l 693 874 l 774 874 q 796 865 788 874 q 804 843 804 857 l 804 824 q 796 801 804 810 q 774 793 788 793 l 693 793 l 693 31 q 685 8 693 17 q 663 0 676 0 l 639 0 q 617 8 625 0 q 608 31 608 17 l 608 96 q 517 17 574 49 q 375 -14 461 -14 m 383 67 q 511 104 463 67 q 583 198 560 142 q 608 311 607 254 q 610 365 610 332 q 608 419 610 399 q 583 529 607 475 q 510 619 558 583 q 383 656 461 656 q 255 619 303 656 q 186 525 207 583 q 163 400 165 467 q 163 322 161 361 q 186 197 165 256 q 255 103 207 139 q 383 67 303 67 z "},"e":{"ha":758,"x_min":75,"x_max":688,"o":"m 381 -14 q 167 74 246 -14 q 76 306 88 163 q 75 361 75 326 q 76 417 75 396 q 121 583 83 511 q 224 696 158 656 q 381 736 290 736 q 546 693 478 736 q 651 569 614 650 q 688 378 688 489 l 688 357 q 678 335 688 343 q 656 326 669 326 l 161 326 q 161 321 161 326 q 161 313 161 315 q 190 194 164 250 q 265 102 217 138 q 381 67 314 67 q 480 85 440 67 q 543 124 519 103 q 574 157 567 146 q 593 178 586 175 q 615 182 600 182 l 638 182 q 659 174 650 182 q 667 154 668 167 q 645 106 665 135 q 588 50 625 78 q 499 4 551 22 q 381 -14 446 -14 m 161 404 l 603 404 l 603 410 q 576 535 603 479 q 500 623 550 590 q 381 656 450 656 q 262 623 311 656 q 187 535 213 590 q 161 410 161 479 l 161 404 z "},"é":{"ha":758,"x_min":75,"x_max":688,"o":"m 381 -14 q 167 74 246 -14 q 76 306 88 163 q 75 361 75 326 q 76 417 75 396 q 121 583 83 511 q 224 696 158 656 q 381 736 290 736 q 546 693 478 736 q 651 569 614 650 q 688 378 688 489 l 688 357 q 678 335 688 343 q 656 326 669 326 l 161 326 q 161 321 161 326 q 161 313 161 315 q 190 194 164 250 q 265 102 217 138 q 381 67 314 67 q 480 85 440 67 q 543 124 519 103 q 574 157 567 146 q 593 178 586 175 q 615 182 600 182 l 638 182 q 659 174 650 182 q 667 154 668 167 q 645 106 665 135 q 588 50 625 78 q 499 4 551 22 q 381 -14 446 -14 m 161 404 l 603 404 l 603 410 q 576 535 603 479 q 500 623 550 590 q 381 656 450 656 q 262 623 311 656 q 187 535 213 590 q 161 410 161 479 l 161 404 m 361 826 q 339 849 339 826 q 346 867 339 860 l 442 982 q 463 1001 453 996 q 493 1007 472 1007 l 550 1007 q 576 981 576 1007 q 569 964 576 971 l 418 840 q 398 828 407 831 q 375 826 389 826 l 361 826 z "},"ĕ":{"ha":758,"x_min":75,"x_max":688,"o":"m 381 -14 q 167 74 246 -14 q 76 306 88 163 q 75 361 75 326 q 76 417 75 396 q 121 583 83 511 q 224 696 158 656 q 381 736 290 736 q 546 693 478 736 q 651 569 614 650 q 688 378 688 489 l 688 357 q 678 335 688 343 q 656 326 669 326 l 161 326 q 161 321 161 326 q 161 313 161 315 q 190 194 164 250 q 265 102 217 138 q 381 67 314 67 q 480 85 440 67 q 543 124 519 103 q 574 157 567 146 q 593 178 586 175 q 615 182 600 182 l 638 182 q 659 174 650 182 q 667 154 668 167 q 645 106 665 135 q 588 50 625 78 q 499 4 551 22 q 381 -14 446 -14 m 161 404 l 603 404 l 603 410 q 576 535 603 479 q 500 623 550 590 q 381 656 450 656 q 262 623 311 656 q 187 535 213 590 q 161 410 161 479 l 161 404 m 381 819 q 286 843 319 819 q 240 904 253 867 q 228 981 228 942 q 235 999 228 992 q 254 1007 242 1007 l 275 1007 q 294 999 288 1007 q 301 981 301 992 q 317 918 301 947 q 381 889 333 889 q 444 918 429 889 q 460 981 460 947 q 467 999 460 992 q 486 1007 474 1007 l 507 1007 q 526 999 519 1007 q 533 981 533 992 q 521 904 533 942 q 475 843 508 867 q 381 819 442 819 z "},"ě":{"ha":758,"x_min":75,"x_max":688,"o":"m 381 -14 q 167 74 246 -14 q 76 306 88 163 q 75 361 75 326 q 76 417 75 396 q 121 583 83 511 q 224 696 158 656 q 381 736 290 736 q 546 693 478 736 q 651 569 614 650 q 688 378 688 489 l 688 357 q 678 335 688 343 q 656 326 669 326 l 161 326 q 161 321 161 326 q 161 313 161 315 q 190 194 164 250 q 265 102 217 138 q 381 67 314 67 q 480 85 440 67 q 543 124 519 103 q 574 157 567 146 q 593 178 586 175 q 615 182 600 182 l 638 182 q 659 174 650 182 q 667 154 668 167 q 645 106 665 135 q 588 50 625 78 q 499 4 551 22 q 381 -14 446 -14 m 161 404 l 603 404 l 603 410 q 576 535 603 479 q 500 623 550 590 q 381 656 450 656 q 262 623 311 656 q 187 535 213 590 q 161 410 161 479 l 161 404 m 374 826 q 354 829 364 826 q 329 846 344 832 l 208 964 q 192 992 192 981 q 211 1007 192 1007 l 235 1007 q 253 1004 243 1007 q 269 997 264 1001 l 381 914 l 492 997 q 508 1004 497 1001 q 526 1007 518 1007 l 550 1007 q 569 992 569 1007 q 553 964 569 981 l 432 846 q 408 829 418 832 q 388 826 399 826 l 374 826 z "},"ê":{"ha":758,"x_min":75,"x_max":688,"o":"m 381 -14 q 167 74 246 -14 q 76 306 88 163 q 75 361 75 326 q 76 417 75 396 q 121 583 83 511 q 224 696 158 656 q 381 736 290 736 q 546 693 478 736 q 651 569 614 650 q 688 378 688 489 l 688 357 q 678 335 688 343 q 656 326 669 326 l 161 326 q 161 321 161 326 q 161 313 161 315 q 190 194 164 250 q 265 102 217 138 q 381 67 314 67 q 480 85 440 67 q 543 124 519 103 q 574 157 567 146 q 593 178 586 175 q 615 182 600 182 l 638 182 q 659 174 650 182 q 667 154 668 167 q 645 106 665 135 q 588 50 625 78 q 499 4 551 22 q 381 -14 446 -14 m 161 404 l 603 404 l 603 410 q 576 535 603 479 q 500 623 550 590 q 381 656 450 656 q 262 623 311 656 q 187 535 213 590 q 161 410 161 479 l 161 404 m 211 826 q 192 842 192 826 q 208 869 192 853 l 329 988 q 354 1005 344 1003 q 374 1007 364 1007 l 388 1007 q 408 1005 399 1007 q 432 988 418 1003 l 553 869 q 569 842 569 853 q 550 826 569 826 l 526 826 q 508 829 518 826 q 492 836 497 832 l 381 919 l 269 836 q 253 829 264 832 q 235 826 243 826 l 211 826 z "},"ë":{"ha":758,"x_min":75,"x_max":688,"o":"m 381 -14 q 167 74 246 -14 q 76 306 88 163 q 75 361 75 326 q 76 417 75 396 q 121 583 83 511 q 224 696 158 656 q 381 736 290 736 q 546 693 478 736 q 651 569 614 650 q 688 378 688 489 l 688 357 q 678 335 688 343 q 656 326 669 326 l 161 326 q 161 321 161 326 q 161 313 161 315 q 190 194 164 250 q 265 102 217 138 q 381 67 314 67 q 480 85 440 67 q 543 124 519 103 q 574 157 567 146 q 593 178 586 175 q 615 182 600 182 l 638 182 q 659 174 650 182 q 667 154 668 167 q 645 106 665 135 q 588 50 625 78 q 499 4 551 22 q 381 -14 446 -14 m 161 404 l 603 404 l 603 410 q 576 535 603 479 q 500 623 550 590 q 381 656 450 656 q 262 623 311 656 q 187 535 213 590 q 161 410 161 479 l 161 404 m 460 871 q 438 879 446 871 q 429 901 429 888 l 429 954 q 438 977 429 968 q 460 986 446 986 l 513 986 q 535 977 526 986 q 544 954 544 968 l 544 901 q 535 879 544 888 q 513 871 526 871 l 460 871 m 247 871 q 225 879 233 871 q 217 901 217 888 l 217 954 q 225 977 217 968 q 247 986 233 986 l 300 986 q 323 977 314 986 q 332 954 332 968 l 332 901 q 323 879 332 888 q 300 871 314 871 l 247 871 z "},"ė":{"ha":758,"x_min":75,"x_max":688,"o":"m 381 -14 q 167 74 246 -14 q 76 306 88 163 q 75 361 75 326 q 76 417 75 396 q 121 583 83 511 q 224 696 158 656 q 381 736 290 736 q 546 693 478 736 q 651 569 614 650 q 688 378 688 489 l 688 357 q 678 335 688 343 q 656 326 669 326 l 161 326 q 161 321 161 326 q 161 313 161 315 q 190 194 164 250 q 265 102 217 138 q 381 67 314 67 q 480 85 440 67 q 543 124 519 103 q 574 157 567 146 q 593 178 586 175 q 615 182 600 182 l 638 182 q 659 174 650 182 q 667 154 668 167 q 645 106 665 135 q 588 50 625 78 q 499 4 551 22 q 381 -14 446 -14 m 161 404 l 603 404 l 603 410 q 576 535 603 479 q 500 623 550 590 q 381 656 450 656 q 262 623 311 656 q 187 535 213 590 q 161 410 161 479 l 161 404 m 346 857 q 324 865 332 857 q 315 888 315 874 l 315 954 q 324 977 315 968 q 346 986 332 986 l 413 986 q 435 977 426 986 q 444 954 444 968 l 444 888 q 435 865 444 874 q 413 857 426 857 l 346 857 z "},"è":{"ha":758,"x_min":75,"x_max":688,"o":"m 381 -14 q 167 74 246 -14 q 76 306 88 163 q 75 361 75 326 q 76 417 75 396 q 121 583 83 511 q 224 696 158 656 q 381 736 290 736 q 546 693 478 736 q 651 569 614 650 q 688 378 688 489 l 688 357 q 678 335 688 343 q 656 326 669 326 l 161 326 q 161 321 161 326 q 161 313 161 315 q 190 194 164 250 q 265 102 217 138 q 381 67 314 67 q 480 85 440 67 q 543 124 519 103 q 574 157 567 146 q 593 178 586 175 q 615 182 600 182 l 638 182 q 659 174 650 182 q 667 154 668 167 q 645 106 665 135 q 588 50 625 78 q 499 4 551 22 q 381 -14 446 -14 m 161 404 l 603 404 l 603 410 q 576 535 603 479 q 500 623 550 590 q 381 656 450 656 q 262 623 311 656 q 187 535 213 590 q 161 410 161 479 l 161 404 m 401 826 q 378 828 388 826 q 358 840 369 831 l 207 964 q 200 981 200 971 q 226 1007 200 1007 l 283 1007 q 314 1001 304 1007 q 335 982 324 996 l 431 867 q 438 849 438 860 q 415 826 438 826 l 401 826 z "},"ē":{"ha":758,"x_min":75,"x_max":688,"o":"m 381 -14 q 167 74 246 -14 q 76 306 88 163 q 75 361 75 326 q 76 417 75 396 q 121 583 83 511 q 224 696 158 656 q 381 736 290 736 q 546 693 478 736 q 651 569 614 650 q 688 378 688 489 l 688 357 q 678 335 688 343 q 656 326 669 326 l 161 326 q 161 321 161 326 q 161 313 161 315 q 190 194 164 250 q 265 102 217 138 q 381 67 314 67 q 480 85 440 67 q 543 124 519 103 q 574 157 567 146 q 593 178 586 175 q 615 182 600 182 l 638 182 q 659 174 650 182 q 667 154 668 167 q 645 106 665 135 q 588 50 625 78 q 499 4 551 22 q 381 -14 446 -14 m 161 404 l 603 404 l 603 410 q 576 535 603 479 q 500 623 550 590 q 381 656 450 656 q 262 623 311 656 q 187 535 213 590 q 161 410 161 479 l 161 404 m 242 864 q 219 872 228 864 q 211 894 211 881 l 211 914 q 219 936 211 928 q 242 944 228 944 l 518 944 q 540 936 532 944 q 549 914 549 928 l 549 894 q 540 872 549 881 q 518 864 532 864 l 242 864 z "},"ę":{"ha":760,"x_min":76,"x_max":689,"o":"m 453 -306 q 356 -282 397 -306 q 292 -215 314 -258 q 269 -114 269 -172 q 296 -3 269 -46 q 142 106 199 24 q 78 306 86 188 q 76 361 76 326 q 78 417 76 396 q 122 583 85 511 q 226 696 160 656 q 382 736 292 736 q 547 693 479 736 q 652 569 615 650 q 689 378 689 489 l 689 357 q 680 335 689 343 q 657 326 671 326 l 163 326 l 163 313 q 192 194 165 250 q 267 102 218 138 q 382 67 315 67 q 481 85 442 67 q 544 124 521 103 q 575 157 568 146 q 594 178 588 175 q 617 182 601 182 l 639 182 q 660 174 651 182 q 668 154 669 167 q 639 98 667 131 q 562 35 611 65 q 444 -8 513 6 q 378 -41 403 -17 q 353 -114 353 -65 q 383 -197 353 -167 q 458 -226 413 -226 l 479 -226 q 501 -235 493 -226 q 510 -257 510 -243 l 510 -275 q 501 -297 510 -289 q 479 -306 493 -306 l 453 -306 m 161 404 l 603 404 l 603 410 q 576 535 603 479 q 500 623 550 590 q 381 656 450 656 q 262 623 311 656 q 187 535 213 590 q 161 410 161 479 l 161 404 z "},"f":{"ha":500,"x_min":26,"x_max":493,"o":"m 211 0 q 189 8 197 0 q 181 31 181 17 l 181 642 l 57 642 q 35 650 43 642 q 26 672 26 658 l 26 692 q 35 714 26 706 q 57 722 43 722 l 181 722 l 181 801 q 198 915 181 864 q 260 997 215 967 q 390 1028 306 1028 l 463 1028 q 485 1019 476 1028 q 493 997 493 1011 l 493 978 q 485 956 493 964 q 463 947 476 947 l 390 947 q 291 908 317 947 q 265 794 265 868 l 265 722 l 449 722 q 471 714 463 722 q 479 692 479 706 l 479 672 q 471 650 479 658 q 449 642 463 642 l 265 642 l 265 31 q 257 8 265 17 q 235 0 249 0 l 211 0 z "},"g":{"ha":807,"x_min":76,"x_max":693,"o":"m 382 -306 q 237 -282 293 -306 q 149 -224 181 -258 q 106 -156 118 -190 q 92 -101 93 -122 q 100 -78 90 -87 q 122 -69 110 -69 l 142 -69 q 161 -74 153 -69 q 175 -99 169 -79 q 202 -151 183 -121 q 262 -203 221 -181 q 375 -225 303 -225 q 503 -206 451 -225 q 581 -137 554 -186 q 608 0 608 -87 l 608 96 q 517 17 574 49 q 375 -14 461 -14 q 238 15 294 -14 q 147 93 182 44 q 96 201 113 142 q 78 322 79 261 q 78 400 76 361 q 96 521 79 461 q 147 629 113 581 q 238 707 182 678 q 375 736 294 736 q 517 704 461 736 q 608 626 574 672 l 608 690 q 617 713 608 704 q 639 722 625 722 l 661 722 q 684 713 675 722 q 693 690 693 704 l 693 14 q 667 -147 693 -75 q 573 -262 640 -219 q 382 -306 506 -306 m 383 67 q 511 104 463 67 q 583 198 560 142 q 608 311 606 254 q 610 361 610 332 q 608 411 610 390 q 583 524 606 468 q 511 618 560 581 q 383 656 463 656 q 255 619 303 656 q 186 525 207 583 q 163 400 165 467 q 163 322 161 361 q 186 197 165 256 q 255 103 207 139 q 383 67 303 67 z "},"ğ":{"ha":807,"x_min":76,"x_max":693,"o":"m 382 -306 q 237 -282 293 -306 q 149 -224 181 -258 q 106 -156 118 -190 q 92 -101 93 -122 q 100 -78 90 -87 q 122 -69 110 -69 l 142 -69 q 161 -74 153 -69 q 175 -99 169 -79 q 202 -151 183 -121 q 262 -203 221 -181 q 375 -225 303 -225 q 503 -206 451 -225 q 581 -137 554 -186 q 608 0 608 -87 l 608 96 q 517 17 574 49 q 375 -14 461 -14 q 238 15 294 -14 q 147 93 182 44 q 96 201 113 142 q 78 322 79 261 q 78 400 76 361 q 96 521 79 461 q 147 629 113 581 q 238 707 182 678 q 375 736 294 736 q 517 704 461 736 q 608 626 574 672 l 608 690 q 617 713 608 704 q 639 722 625 722 l 661 722 q 684 713 675 722 q 693 690 693 704 l 693 14 q 667 -147 693 -75 q 573 -262 640 -219 q 382 -306 506 -306 m 383 67 q 511 104 463 67 q 583 198 560 142 q 608 311 606 254 q 610 361 610 332 q 608 411 610 390 q 583 524 606 468 q 511 618 560 581 q 383 656 463 656 q 255 619 303 656 q 186 525 207 583 q 163 400 165 467 q 163 322 161 361 q 186 197 165 256 q 255 103 207 139 q 383 67 303 67 m 386 819 q 292 843 325 819 q 246 904 258 867 q 233 981 233 942 q 240 999 233 992 q 260 1007 247 1007 l 281 1007 q 300 999 293 1007 q 307 981 307 992 q 323 918 307 947 q 386 889 339 889 q 450 918 435 889 q 465 981 465 947 q 472 999 465 992 q 492 1007 479 1007 l 513 1007 q 532 999 525 1007 q 539 981 539 992 q 526 904 539 942 q 481 843 514 867 q 386 819 447 819 z "},"ĝ":{"ha":807,"x_min":76,"x_max":693,"o":"m 382 -306 q 237 -282 293 -306 q 149 -224 181 -258 q 106 -156 118 -190 q 92 -101 93 -122 q 100 -78 90 -87 q 122 -69 110 -69 l 142 -69 q 161 -74 153 -69 q 175 -99 169 -79 q 202 -151 183 -121 q 262 -203 221 -181 q 375 -225 303 -225 q 503 -206 451 -225 q 581 -137 554 -186 q 608 0 608 -87 l 608 96 q 517 17 574 49 q 375 -14 461 -14 q 238 15 294 -14 q 147 93 182 44 q 96 201 113 142 q 78 322 79 261 q 78 400 76 361 q 96 521 79 461 q 147 629 113 581 q 238 707 182 678 q 375 736 294 736 q 517 704 461 736 q 608 626 574 672 l 608 690 q 617 713 608 704 q 639 722 625 722 l 661 722 q 684 713 675 722 q 693 690 693 704 l 693 14 q 667 -147 693 -75 q 573 -262 640 -219 q 382 -306 506 -306 m 383 67 q 511 104 463 67 q 583 198 560 142 q 608 311 606 254 q 610 361 610 332 q 608 411 610 390 q 583 524 606 468 q 511 618 560 581 q 383 656 463 656 q 255 619 303 656 q 186 525 207 583 q 163 400 165 467 q 163 322 161 361 q 186 197 165 256 q 255 103 207 139 q 383 67 303 67 m 217 826 q 197 842 197 826 q 214 869 197 853 l 335 988 q 360 1005 350 1003 q 379 1007 369 1007 l 393 1007 q 414 1005 404 1007 q 438 988 424 1003 l 558 869 q 575 842 575 853 q 556 826 575 826 l 532 826 q 513 829 524 826 q 497 836 503 832 l 386 919 l 275 836 q 259 829 269 832 q 240 826 249 826 l 217 826 z "},"ģ":{"ha":807,"x_min":76,"x_max":693,"o":"m 382 -306 q 237 -282 293 -306 q 149 -224 181 -258 q 106 -156 118 -190 q 92 -101 93 -122 q 100 -78 90 -87 q 122 -69 110 -69 l 142 -69 q 161 -74 153 -69 q 175 -99 169 -79 q 202 -151 183 -121 q 262 -203 221 -181 q 375 -225 303 -225 q 503 -206 451 -225 q 581 -137 554 -186 q 608 0 608 -87 l 608 96 q 517 17 574 49 q 375 -14 461 -14 q 238 15 294 -14 q 147 93 182 44 q 96 201 113 142 q 78 322 79 261 q 78 400 76 361 q 96 521 79 461 q 147 629 113 581 q 238 707 182 678 q 375 736 294 736 q 517 704 461 736 q 608 626 574 672 l 608 690 q 617 713 608 704 q 639 722 625 722 l 661 722 q 684 713 675 722 q 693 690 693 704 l 693 14 q 667 -147 693 -75 q 573 -262 640 -219 q 382 -306 506 -306 m 383 67 q 511 104 463 67 q 583 198 560 142 q 608 311 606 254 q 610 361 610 332 q 608 411 610 390 q 583 524 606 468 q 511 618 560 581 q 383 656 463 656 q 255 619 303 656 q 186 525 207 583 q 163 400 165 467 q 163 322 161 361 q 186 197 165 256 q 255 103 207 139 q 383 67 303 67 m 351 826 q 336 833 342 826 q 331 849 331 840 q 336 874 331 861 l 392 1019 q 406 1041 399 1033 q 428 1049 413 1049 l 453 1049 q 469 1040 464 1049 q 472 1019 475 1032 l 449 864 q 439 837 447 847 q 414 826 431 826 l 351 826 z "},"ġ":{"ha":807,"x_min":76,"x_max":693,"o":"m 382 -306 q 237 -282 293 -306 q 149 -224 181 -258 q 106 -156 118 -190 q 92 -101 93 -122 q 100 -78 90 -87 q 122 -69 110 -69 l 142 -69 q 161 -74 153 -69 q 175 -99 169 -79 q 202 -151 183 -121 q 262 -203 221 -181 q 375 -225 303 -225 q 503 -206 451 -225 q 581 -137 554 -186 q 608 0 608 -87 l 608 96 q 517 17 574 49 q 375 -14 461 -14 q 238 15 294 -14 q 147 93 182 44 q 96 201 113 142 q 78 322 79 261 q 78 400 76 361 q 96 521 79 461 q 147 629 113 581 q 238 707 182 678 q 375 736 294 736 q 517 704 461 736 q 608 626 574 672 l 608 690 q 617 713 608 704 q 639 722 625 722 l 661 722 q 684 713 675 722 q 693 690 693 704 l 693 14 q 667 -147 693 -75 q 573 -262 640 -219 q 382 -306 506 -306 m 383 67 q 511 104 463 67 q 583 198 560 142 q 608 311 606 254 q 610 361 610 332 q 608 411 610 390 q 583 524 606 468 q 511 618 560 581 q 383 656 463 656 q 255 619 303 656 q 186 525 207 583 q 163 400 165 467 q 163 322 161 361 q 186 197 165 256 q 255 103 207 139 q 383 67 303 67 m 351 857 q 329 865 338 857 q 321 888 321 874 l 321 954 q 329 977 321 968 q 351 986 338 986 l 418 986 q 441 977 432 986 q 450 954 450 968 l 450 888 q 441 865 450 874 q 418 857 432 857 l 351 857 z "},"h":{"ha":821,"x_min":114,"x_max":715,"o":"m 144 0 q 122 8 131 0 q 114 31 114 17 l 114 956 q 122 978 114 969 q 144 986 131 986 l 168 986 q 190 978 182 986 q 199 956 199 969 l 199 626 q 290 706 236 675 q 432 736 343 736 q 590 695 526 736 q 684 584 653 654 q 715 425 715 514 l 715 31 q 707 8 715 17 q 685 0 699 0 l 661 0 q 639 8 647 0 q 631 31 631 17 l 631 418 q 576 592 631 529 q 418 656 522 656 q 259 592 319 656 q 199 418 199 529 l 199 31 q 190 8 199 17 q 168 0 182 0 l 144 0 z "},"ħ":{"ha":821,"x_min":1,"x_max":715,"o":"m 32 793 q 10 801 18 793 q 1 824 1 810 l 1 843 q 10 865 1 857 q 32 874 18 874 l 278 874 q 300 865 292 874 q 308 843 308 857 l 308 824 q 300 801 308 810 q 278 793 292 793 l 32 793 m 144 0 q 122 8 131 0 q 114 31 114 17 l 114 956 q 122 978 114 969 q 144 986 131 986 l 168 986 q 190 978 182 986 q 199 956 199 969 l 199 626 q 290 706 236 675 q 432 736 343 736 q 590 695 526 736 q 684 584 653 654 q 715 425 715 514 l 715 31 q 707 8 715 17 q 685 0 699 0 l 661 0 q 639 8 647 0 q 631 31 631 17 l 631 418 q 576 592 631 529 q 418 656 522 656 q 259 592 319 656 q 199 418 199 529 l 199 31 q 190 8 199 17 q 168 0 182 0 l 144 0 z "},"ĥ":{"ha":821,"x_min":114,"x_max":715,"o":"m 144 0 q 122 8 131 0 q 114 31 114 17 l 114 956 q 122 978 114 969 q 144 986 131 986 l 168 986 q 190 978 182 986 q 199 956 199 969 l 199 626 q 290 706 236 675 q 432 736 343 736 q 590 695 526 736 q 684 584 653 654 q 715 425 715 514 l 715 31 q 707 8 715 17 q 685 0 699 0 l 661 0 q 639 8 647 0 q 631 31 631 17 l 631 418 q 576 592 631 529 q 418 656 522 656 q 259 592 319 656 q 199 418 199 529 l 199 31 q 190 8 199 17 q 168 0 182 0 l 144 0 m 244 1042 q 225 1057 225 1042 q 242 1085 225 1068 l 363 1203 q 388 1220 378 1218 q 407 1222 397 1222 l 421 1222 q 442 1220 432 1222 q 465 1203 451 1218 l 586 1085 q 603 1057 603 1068 q 583 1042 603 1042 l 560 1042 q 541 1044 551 1042 q 525 1051 531 1047 l 414 1135 l 303 1051 q 287 1044 297 1047 q 268 1042 276 1042 l 244 1042 z "},"i":{"ha":310,"x_min":97,"x_max":213,"o":"m 143 0 q 121 8 129 0 q 113 31 113 17 l 113 692 q 121 714 113 706 q 143 722 129 722 l 167 722 q 189 714 181 722 q 197 692 197 706 l 197 31 q 189 8 197 17 q 167 0 181 0 l 143 0 m 128 871 q 106 879 114 871 q 97 901 97 888 l 97 954 q 106 977 97 968 q 128 986 114 986 l 181 986 q 203 977 194 986 q 213 954 213 968 l 213 901 q 203 879 213 888 q 181 871 194 871 l 128 871 z "},"ı":{"ha":310,"x_min":113,"x_max":197,"o":"m 143 0 q 121 8 129 0 q 113 31 113 17 l 113 692 q 121 714 113 706 q 143 722 129 722 l 167 722 q 189 714 181 722 q 197 692 197 706 l 197 31 q 189 8 197 17 q 167 0 181 0 l 143 0 z "},"í":{"ha":310,"x_min":113,"x_max":351,"o":"m 143 0 q 121 8 129 0 q 113 31 113 17 l 113 692 q 121 714 113 706 q 143 722 129 722 l 167 722 q 189 714 181 722 q 197 692 197 706 l 197 31 q 189 8 197 17 q 167 0 181 0 l 143 0 m 136 826 q 114 849 114 826 q 121 867 114 860 l 217 982 q 238 1001 228 996 q 268 1007 247 1007 l 325 1007 q 351 981 351 1007 q 344 964 351 971 l 193 840 q 173 828 182 831 q 150 826 164 826 l 136 826 z "},"ĭ":{"ha":310,"x_min":3,"x_max":308,"o":"m 143 0 q 121 8 129 0 q 113 31 113 17 l 113 692 q 121 714 113 706 q 143 722 129 722 l 167 722 q 189 714 181 722 q 197 692 197 706 l 197 31 q 189 8 197 17 q 167 0 181 0 l 143 0 m 156 819 q 61 843 94 819 q 15 904 28 867 q 3 981 3 942 q 10 999 3 992 q 29 1007 17 1007 l 50 1007 q 69 999 63 1007 q 76 981 76 992 q 92 918 76 947 q 156 889 108 889 q 219 918 204 889 q 235 981 235 947 q 242 999 235 992 q 261 1007 249 1007 l 282 1007 q 301 999 294 1007 q 308 981 308 992 q 296 904 308 942 q 250 843 283 867 q 156 819 217 819 z "},"î":{"ha":310,"x_min":-33,"x_max":344,"o":"m 143 0 q 121 8 129 0 q 113 31 113 17 l 113 692 q 121 714 113 706 q 143 722 129 722 l 167 722 q 189 714 181 722 q 197 692 197 706 l 197 31 q 189 8 197 17 q 167 0 181 0 l 143 0 m -14 826 q -33 842 -33 826 q -17 869 -33 853 l 104 988 q 129 1005 119 1003 q 149 1007 139 1007 l 163 1007 q 183 1005 174 1007 q 207 988 193 1003 l 328 869 q 344 842 344 853 q 325 826 344 826 l 301 826 q 283 829 293 826 q 267 836 272 832 l 156 919 l 44 836 q 28 829 39 832 q 10 826 18 826 l -14 826 z "},"ï":{"ha":310,"x_min":-8,"x_max":319,"o":"m 143 0 q 121 8 129 0 q 113 31 113 17 l 113 692 q 121 714 113 706 q 143 722 129 722 l 167 722 q 189 714 181 722 q 197 692 197 706 l 197 31 q 189 8 197 17 q 167 0 181 0 l 143 0 m 235 871 q 213 879 221 871 q 204 901 204 888 l 204 954 q 213 977 204 968 q 235 986 221 986 l 288 986 q 310 977 301 986 q 319 954 319 968 l 319 901 q 310 879 319 888 q 288 871 301 871 l 235 871 m 22 871 q 0 879 8 871 q -8 901 -8 888 l -8 954 q 0 977 -8 968 q 22 986 8 986 l 75 986 q 98 977 89 986 q 107 954 107 968 l 107 901 q 98 879 107 888 q 75 871 89 871 l 22 871 z "},"ì":{"ha":310,"x_min":-25,"x_max":213,"o":"m 143 0 q 121 8 129 0 q 113 31 113 17 l 113 692 q 121 714 113 706 q 143 722 129 722 l 167 722 q 189 714 181 722 q 197 692 197 706 l 197 31 q 189 8 197 17 q 167 0 181 0 l 143 0 m 176 826 q 153 828 163 826 q 133 840 144 831 l -18 964 q -25 981 -25 971 q 1 1007 -25 1007 l 58 1007 q 89 1001 79 1007 q 110 982 99 996 l 206 867 q 213 849 213 860 q 190 826 213 826 l 176 826 z "},"ĳ":{"ha":633,"x_min":97,"x_max":535,"o":"m 143 0 q 121 8 129 0 q 113 31 113 17 l 113 692 q 121 714 113 706 q 143 722 129 722 l 167 722 q 189 714 181 722 q 197 692 197 706 l 197 31 q 189 8 197 17 q 167 0 181 0 l 143 0 m 128 871 q 106 879 114 871 q 97 901 97 888 l 97 954 q 106 977 97 968 q 128 986 114 986 l 181 986 q 203 977 194 986 q 213 954 213 968 l 213 901 q 203 879 213 888 q 181 871 194 871 l 128 871 m 304 -264 q 282 -256 290 -264 q 274 -233 274 -247 l 274 -214 q 282 -192 274 -200 q 304 -183 290 -183 l 310 -183 q 393 -162 367 -183 q 427 -107 419 -142 q 435 -31 435 -72 l 435 692 q 443 714 435 706 q 465 722 451 722 l 489 722 q 511 714 503 722 q 519 692 519 706 l 519 -31 q 502 -149 519 -96 q 440 -233 485 -201 q 310 -264 394 -264 l 304 -264 m 450 871 q 428 879 436 871 q 419 901 419 888 l 419 954 q 428 977 419 968 q 450 986 436 986 l 503 986 q 526 977 517 986 q 535 954 535 968 l 535 901 q 526 879 535 888 q 503 871 517 871 l 450 871 z "},"ī":{"ha":310,"x_min":-14,"x_max":324,"o":"m 143 0 q 121 8 129 0 q 113 31 113 17 l 113 692 q 121 714 113 706 q 143 722 129 722 l 167 722 q 189 714 181 722 q 197 692 197 706 l 197 31 q 189 8 197 17 q 167 0 181 0 l 143 0 m 17 864 q -6 872 3 864 q -14 894 -14 881 l -14 914 q -6 936 -14 928 q 17 944 3 944 l 293 944 q 315 936 307 944 q 324 914 324 928 l 324 894 q 315 872 324 881 q 293 864 307 864 l 17 864 z "},"į":{"ha":339,"x_min":0,"x_max":242,"o":"m 183 -306 q 49 -254 99 -306 q 0 -114 0 -203 q 38 13 0 -36 q 142 75 76 63 l 142 81 q 142 85 142 83 q 142 89 142 88 l 142 692 q 150 714 142 706 q 172 722 158 722 l 196 722 q 218 714 210 722 q 226 692 226 706 l 226 31 q 218 8 226 17 q 196 0 210 0 l 189 0 q 113 -31 143 0 q 83 -114 83 -61 q 113 -197 83 -167 q 189 -226 143 -226 l 210 -226 q 232 -235 224 -226 q 240 -257 240 -243 l 240 -275 q 232 -297 240 -289 q 210 -306 224 -306 l 183 -306 m 157 871 q 135 879 143 871 q 126 901 126 888 l 126 954 q 135 977 126 968 q 157 986 143 986 l 210 986 q 233 977 224 986 q 242 954 242 968 l 242 901 q 233 879 242 888 q 210 871 224 871 l 157 871 z "},"ĩ":{"ha":310,"x_min":-11,"x_max":321,"o":"m 143 0 q 121 8 129 0 q 113 31 113 17 l 113 692 q 121 714 113 706 q 143 722 129 722 l 167 722 q 189 714 181 722 q 197 692 197 706 l 197 31 q 189 8 197 17 q 167 0 181 0 l 143 0 m 221 819 q 169 831 189 819 q 132 855 149 843 q 96 867 115 867 q 74 857 81 867 q 60 837 67 847 q 39 826 54 826 l 11 826 q -5 833 1 826 q -11 849 -11 840 q -3 886 -11 868 q 17 919 4 904 q 49 942 31 933 q 88 950 67 950 q 141 938 121 950 q 178 915 161 926 q 214 903 194 903 q 237 913 231 903 q 249 934 243 924 q 271 944 256 944 l 299 944 q 315 938 310 944 q 321 922 321 931 q 313 884 321 903 q 292 851 306 865 q 260 828 278 836 q 221 819 242 819 z "},"j":{"ha":324,"x_min":-36,"x_max":225,"o":"m -6 -264 q -28 -256 -19 -264 q -36 -233 -36 -247 l -36 -214 q -28 -192 -36 -200 q -6 -183 -19 -183 l 0 -183 q 83 -162 57 -183 q 117 -107 110 -142 q 125 -31 125 -72 l 125 692 q 133 714 125 706 q 156 722 142 722 l 179 722 q 201 714 193 722 q 210 692 210 706 l 210 -31 q 192 -149 210 -96 q 130 -233 175 -201 q 0 -264 85 -264 l -6 -264 m 140 871 q 118 879 126 871 q 110 901 110 888 l 110 954 q 118 977 110 968 q 140 986 126 986 l 193 986 q 216 977 207 986 q 225 954 225 968 l 225 901 q 216 879 225 888 q 193 871 207 871 l 140 871 z "},"ȷ":{"ha":374,"x_min":14,"x_max":260,"o":"m 44 -264 q 22 -256 31 -264 q 14 -233 14 -247 l 14 -214 q 22 -192 14 -200 q 44 -183 31 -183 l 50 -183 q 133 -162 107 -183 q 167 -107 160 -142 q 175 -31 175 -72 l 175 642 l 58 642 q 36 650 44 642 q 28 672 28 658 l 28 692 q 36 714 28 706 q 58 722 44 722 l 229 722 q 251 714 243 722 q 260 692 260 706 l 260 -31 q 242 -149 260 -96 q 180 -233 225 -201 q 50 -264 135 -264 l 44 -264 z "},"ĵ":{"ha":374,"x_min":-29,"x_max":349,"o":"m 44 -264 q 22 -256 31 -264 q 14 -233 14 -247 l 14 -214 q 22 -192 14 -200 q 44 -183 31 -183 l 50 -183 q 133 -162 107 -183 q 167 -107 160 -142 q 175 -31 175 -72 l 175 642 l 58 642 q 36 650 44 642 q 28 672 28 658 l 28 692 q 36 714 28 706 q 58 722 44 722 l 229 722 q 251 714 243 722 q 260 692 260 706 l 260 -31 q 242 -149 260 -96 q 180 -233 225 -201 q 50 -264 135 -264 l 44 -264 m -10 826 q -29 842 -29 826 q -12 869 -29 853 l 108 988 q 133 1005 124 1003 q 153 1007 143 1007 l 167 1007 q 188 1005 178 1007 q 211 988 197 1003 l 332 869 q 349 842 349 853 q 329 826 349 826 l 306 826 q 287 829 297 826 q 271 836 276 832 l 160 919 l 49 836 q 33 829 43 832 q 14 826 22 826 l -10 826 z "},"k":{"ha":676,"x_min":114,"x_max":656,"o":"m 144 0 q 122 8 131 0 q 114 31 114 17 l 114 956 q 122 978 114 969 q 144 986 131 986 l 168 986 q 190 978 182 986 q 199 956 199 969 l 199 464 l 508 699 q 537 718 528 714 q 567 722 546 722 l 593 722 q 613 715 606 722 q 621 694 621 707 q 617 681 621 689 q 603 667 614 674 l 251 400 l 638 56 q 656 28 656 39 q 648 8 656 15 q 628 0 640 0 l 606 0 q 576 3 585 0 q 547 24 567 7 l 199 333 l 199 31 q 190 8 199 17 q 168 0 182 0 l 144 0 z "},"ķ":{"ha":676,"x_min":114,"x_max":656,"o":"m 144 0 q 122 8 131 0 q 114 31 114 17 l 114 956 q 122 978 114 969 q 144 986 131 986 l 168 986 q 190 978 182 986 q 199 956 199 969 l 199 464 l 508 699 q 537 718 528 714 q 567 722 546 722 l 593 722 q 613 715 606 722 q 621 694 621 707 q 617 681 621 689 q 603 667 614 674 l 251 400 l 638 56 q 656 28 656 39 q 648 8 656 15 q 628 0 640 0 l 606 0 q 576 3 585 0 q 547 24 567 7 l 199 333 l 199 31 q 190 8 199 17 q 168 0 182 0 l 144 0 m 269 -292 q 253 -283 258 -292 q 250 -262 249 -275 l 274 -107 q 284 -80 276 -90 q 308 -69 292 -69 l 371 -69 q 386 -76 381 -69 q 392 -92 392 -83 q 386 -117 392 -104 l 331 -262 q 317 -284 325 -276 q 294 -292 310 -292 l 269 -292 z "},"ĸ":{"ha":678,"x_min":113,"x_max":654,"o":"m 143 0 q 121 8 129 0 q 113 31 113 17 l 113 692 q 121 714 113 706 q 143 722 129 722 l 167 722 q 189 714 181 722 q 197 692 197 706 l 197 428 l 518 699 q 547 718 538 714 q 576 722 556 722 l 599 722 q 619 715 611 722 q 626 694 626 707 q 623 681 626 689 q 608 667 619 674 l 247 361 l 636 56 q 654 28 654 42 q 647 8 654 15 q 626 0 639 0 l 601 0 q 571 5 581 0 q 543 24 561 10 l 197 294 l 197 31 q 189 8 197 17 q 167 0 181 0 l 143 0 z "},"l":{"ha":313,"x_min":114,"x_max":199,"o":"m 144 0 q 122 8 131 0 q 114 31 114 17 l 114 956 q 122 978 114 969 q 144 986 131 986 l 168 986 q 190 978 182 986 q 199 956 199 969 l 199 31 q 190 8 199 17 q 168 0 182 0 l 144 0 z "},"ĺ":{"ha":313,"x_min":114,"x_max":353,"o":"m 144 0 q 122 8 131 0 q 114 31 114 17 l 114 956 q 122 978 114 969 q 144 986 131 986 l 168 986 q 190 978 182 986 q 199 956 199 969 l 199 31 q 190 8 199 17 q 168 0 182 0 l 144 0 m 138 1043 q 115 1065 115 1043 q 122 1083 115 1076 l 218 1199 q 239 1218 229 1213 q 269 1224 249 1224 l 326 1224 q 353 1197 353 1224 q 346 1181 353 1188 l 194 1057 q 174 1045 183 1047 q 151 1043 165 1043 l 138 1043 z "},"ľ":{"ha":326,"x_min":114,"x_max":417,"o":"m 144 0 q 122 8 131 0 q 114 31 114 17 l 114 956 q 122 978 114 969 q 144 986 131 986 l 168 986 q 190 978 182 986 q 199 956 199 969 l 199 31 q 190 8 199 17 q 168 0 182 0 l 144 0 m 294 764 q 278 772 283 764 q 275 793 274 781 l 299 949 q 309 976 301 965 q 333 986 317 986 l 396 986 q 411 979 406 986 q 417 964 417 972 q 411 939 417 951 l 356 793 q 342 772 350 779 q 319 764 335 764 l 294 764 z "},"ļ":{"ha":313,"x_min":67,"x_max":210,"o":"m 144 0 q 122 8 131 0 q 114 31 114 17 l 114 956 q 122 978 114 969 q 144 986 131 986 l 168 986 q 190 978 182 986 q 199 956 199 969 l 199 31 q 190 8 199 17 q 168 0 182 0 l 144 0 m 88 -292 q 72 -283 76 -292 q 68 -262 67 -275 l 92 -107 q 102 -80 94 -90 q 126 -69 110 -69 l 189 -69 q 204 -76 199 -69 q 210 -92 210 -83 q 204 -117 210 -104 l 149 -262 q 135 -284 143 -276 q 113 -292 128 -292 l 88 -292 z "},"ŀ":{"ha":397,"x_min":114,"x_max":419,"o":"m 144 0 q 122 8 131 0 q 114 31 114 17 l 114 956 q 122 978 114 969 q 144 986 131 986 l 168 986 q 190 978 182 986 q 199 956 199 969 l 199 31 q 190 8 199 17 q 168 0 182 0 l 144 0 m 321 435 q 299 443 307 435 q 290 465 290 451 l 290 532 q 299 555 290 546 q 321 564 307 564 l 388 564 q 410 555 401 564 q 419 532 419 546 l 419 465 q 410 443 419 451 q 388 435 401 435 l 321 435 z "},"ł":{"ha":343,"x_min":33,"x_max":313,"o":"m 161 0 q 139 8 147 0 q 131 31 131 17 l 131 442 l 78 422 q 60 418 68 418 q 41 424 49 418 q 33 443 33 431 l 33 469 q 40 492 33 485 q 64 504 47 499 l 131 529 l 131 956 q 139 978 131 969 q 161 986 147 986 l 185 986 q 207 978 199 986 q 215 956 215 969 l 215 561 l 268 582 q 286 586 279 586 q 305 580 297 586 q 313 561 313 574 l 313 535 q 306 513 313 519 q 282 500 299 507 l 215 474 l 215 31 q 207 8 215 17 q 185 0 199 0 l 161 0 z "},"m":{"ha":1219,"x_min":113,"x_max":1114,"o":"m 143 0 q 121 8 129 0 q 113 31 113 17 l 113 692 q 121 714 113 706 q 143 722 129 722 l 167 722 q 189 714 181 722 q 197 692 197 706 l 197 643 q 280 712 232 688 q 396 736 328 736 q 618 606 551 736 q 712 701 650 665 q 854 736 774 736 q 987 702 928 736 q 1080 601 1046 668 q 1114 435 1114 535 l 1114 31 q 1106 8 1114 17 q 1083 0 1097 0 l 1060 0 q 1038 8 1046 0 q 1029 31 1029 17 l 1029 421 q 1003 563 1029 513 q 933 635 976 614 q 840 656 890 656 q 756 635 799 656 q 684 563 713 614 q 656 421 656 513 l 656 31 q 647 8 656 17 q 625 0 639 0 l 601 0 q 579 8 588 0 q 571 31 571 17 l 571 421 q 543 563 571 513 q 472 635 515 614 q 382 656 429 656 q 297 635 340 656 q 226 563 254 614 q 197 422 197 513 l 197 31 q 189 8 197 17 q 167 0 181 0 l 143 0 z "},"n":{"ha":819,"x_min":113,"x_max":714,"o":"m 143 0 q 121 8 129 0 q 113 31 113 17 l 113 692 q 121 714 113 706 q 143 722 129 722 l 167 722 q 189 714 181 722 q 197 692 197 706 l 197 626 q 288 706 235 675 q 431 736 342 736 q 588 695 525 736 q 683 584 651 654 q 714 425 714 514 l 714 31 q 706 8 714 17 q 683 0 697 0 l 660 0 q 638 8 646 0 q 629 31 629 17 l 629 418 q 575 592 629 529 q 417 656 521 656 q 258 592 318 656 q 197 418 197 529 l 197 31 q 189 8 197 17 q 167 0 181 0 l 143 0 z "},"ń":{"ha":819,"x_min":113,"x_max":714,"o":"m 143 0 q 121 8 129 0 q 113 31 113 17 l 113 692 q 121 714 113 706 q 143 722 129 722 l 167 722 q 189 714 181 722 q 197 692 197 706 l 197 626 q 288 706 235 675 q 431 736 342 736 q 588 695 525 736 q 683 584 651 654 q 714 425 714 514 l 714 31 q 706 8 714 17 q 683 0 697 0 l 660 0 q 638 8 646 0 q 629 31 629 17 l 629 418 q 575 592 629 529 q 417 656 521 656 q 258 592 318 656 q 197 418 197 529 l 197 31 q 189 8 197 17 q 167 0 181 0 l 143 0 m 393 826 q 371 849 371 826 q 378 867 371 860 l 474 982 q 494 1001 485 996 q 525 1007 504 1007 l 582 1007 q 608 981 608 1007 q 601 964 608 971 l 450 840 q 430 828 439 831 q 407 826 421 826 l 393 826 z "},"ŉ":{"ha":819,"x_min":-3,"x_max":714,"o":"m 18 808 q 2 817 7 808 q -1 838 -3 825 l 22 993 q 33 1020 25 1010 q 57 1031 40 1031 l 119 1031 q 135 1024 129 1031 q 140 1008 140 1017 q 135 983 140 996 l 79 838 q 66 816 74 824 q 43 808 58 808 l 18 808 m 143 0 q 121 8 129 0 q 113 31 113 17 l 113 692 q 121 714 113 706 q 143 722 129 722 l 167 722 q 189 714 181 722 q 197 692 197 706 l 197 626 q 288 706 235 675 q 431 736 342 736 q 588 695 525 736 q 683 584 651 654 q 714 425 714 514 l 714 31 q 706 8 714 17 q 683 0 697 0 l 660 0 q 638 8 646 0 q 629 31 629 17 l 629 418 q 575 592 629 529 q 417 656 521 656 q 258 592 318 656 q 197 418 197 529 l 197 31 q 189 8 197 17 q 167 0 181 0 l 143 0 z "},"ň":{"ha":819,"x_min":113,"x_max":714,"o":"m 143 0 q 121 8 129 0 q 113 31 113 17 l 113 692 q 121 714 113 706 q 143 722 129 722 l 167 722 q 189 714 181 722 q 197 692 197 706 l 197 626 q 288 706 235 675 q 431 736 342 736 q 588 695 525 736 q 683 584 651 654 q 714 425 714 514 l 714 31 q 706 8 714 17 q 683 0 697 0 l 660 0 q 638 8 646 0 q 629 31 629 17 l 629 418 q 575 592 629 529 q 417 656 521 656 q 258 592 318 656 q 197 418 197 529 l 197 31 q 189 8 197 17 q 167 0 181 0 l 143 0 m 406 826 q 386 829 396 826 q 361 846 376 832 l 240 964 q 224 992 224 981 q 243 1007 224 1007 l 267 1007 q 285 1004 275 1007 q 301 997 296 1001 l 413 914 l 524 997 q 540 1004 529 1001 q 558 1007 550 1007 l 582 1007 q 601 992 601 1007 q 585 964 601 981 l 464 846 q 440 829 450 832 q 419 826 431 826 l 406 826 z "},"ņ":{"ha":819,"x_min":113,"x_max":714,"o":"m 143 0 q 121 8 129 0 q 113 31 113 17 l 113 692 q 121 714 113 706 q 143 722 129 722 l 167 722 q 189 714 181 722 q 197 692 197 706 l 197 626 q 288 706 235 675 q 431 736 342 736 q 588 695 525 736 q 683 584 651 654 q 714 425 714 514 l 714 31 q 706 8 714 17 q 683 0 697 0 l 660 0 q 638 8 646 0 q 629 31 629 17 l 629 418 q 575 592 629 529 q 417 656 521 656 q 258 592 318 656 q 197 418 197 529 l 197 31 q 189 8 197 17 q 167 0 181 0 l 143 0 m 343 -292 q 327 -283 332 -292 q 324 -262 322 -275 l 347 -107 q 358 -80 350 -90 q 382 -69 365 -69 l 444 -69 q 460 -76 454 -69 q 465 -92 465 -83 q 460 -117 465 -104 l 404 -262 q 391 -284 399 -276 q 368 -292 383 -292 l 343 -292 z "},"ñ":{"ha":819,"x_min":113,"x_max":714,"o":"m 143 0 q 121 8 129 0 q 113 31 113 17 l 113 692 q 121 714 113 706 q 143 722 129 722 l 167 722 q 189 714 181 722 q 197 692 197 706 l 197 626 q 288 706 235 675 q 431 736 342 736 q 588 695 525 736 q 683 584 651 654 q 714 425 714 514 l 714 31 q 706 8 714 17 q 683 0 697 0 l 660 0 q 638 8 646 0 q 629 31 629 17 l 629 418 q 575 592 629 529 q 417 656 521 656 q 258 592 318 656 q 197 418 197 529 l 197 31 q 189 8 197 17 q 167 0 181 0 l 143 0 m 478 819 q 426 831 446 819 q 389 855 406 843 q 353 867 372 867 q 331 857 338 867 q 317 837 324 847 q 296 826 311 826 l 268 826 q 252 833 258 826 q 246 849 246 840 q 253 886 246 868 q 274 919 261 904 q 306 942 288 933 q 344 950 324 950 q 398 938 378 950 q 435 915 418 926 q 471 903 451 903 q 494 913 488 903 q 506 934 500 924 q 528 944 513 944 l 556 944 q 572 938 567 944 q 578 922 578 931 q 570 884 578 903 q 549 851 563 865 q 517 828 535 836 q 478 819 499 819 z "},"ŋ":{"ha":819,"x_min":113,"x_max":714,"o":"m 499 -312 q 476 -304 485 -312 q 468 -282 468 -296 l 468 -262 q 476 -240 468 -249 q 499 -232 485 -232 l 504 -232 q 588 -211 561 -232 q 622 -156 614 -190 q 629 -79 629 -121 l 629 418 q 575 592 629 529 q 417 656 521 656 q 258 592 318 656 q 197 418 197 529 l 197 31 q 189 8 197 17 q 167 0 181 0 l 143 0 q 121 8 129 0 q 113 31 113 17 l 113 692 q 121 714 113 706 q 143 722 129 722 l 167 722 q 189 714 181 722 q 197 692 197 706 l 197 626 q 288 706 235 675 q 431 736 342 736 q 588 695 525 736 q 683 584 651 654 q 714 425 714 514 l 714 -79 q 697 -197 714 -144 q 634 -281 679 -250 q 504 -312 589 -312 l 499 -312 z "},"o":{"ha":775,"x_min":78,"x_max":697,"o":"m 388 -14 q 220 28 288 -14 q 117 142 153 69 q 79 303 82 214 q 78 361 78 324 q 79 419 78 399 q 117 581 82 510 q 220 694 153 653 q 388 736 288 736 q 555 694 488 736 q 658 581 622 653 q 696 419 693 510 q 697 361 697 399 q 696 303 697 324 q 658 142 693 214 q 555 28 622 69 q 388 -14 488 -14 m 388 67 q 546 129 485 67 q 611 310 607 192 q 613 361 613 331 q 611 413 613 392 q 546 594 607 532 q 388 656 485 656 q 229 594 290 656 q 164 413 168 532 q 163 361 163 392 q 164 310 163 331 q 229 129 168 192 q 388 67 290 67 z "},"ó":{"ha":775,"x_min":78,"x_max":697,"o":"m 388 -14 q 220 28 288 -14 q 117 142 153 69 q 79 303 82 214 q 78 361 78 324 q 79 419 78 399 q 117 581 82 510 q 220 694 153 653 q 388 736 288 736 q 555 694 488 736 q 658 581 622 653 q 696 419 693 510 q 697 361 697 399 q 696 303 697 324 q 658 142 693 214 q 555 28 622 69 q 388 -14 488 -14 m 388 67 q 546 129 485 67 q 611 310 607 192 q 613 361 613 331 q 611 413 613 392 q 546 594 607 532 q 388 656 485 656 q 229 594 290 656 q 164 413 168 532 q 163 361 163 392 q 164 310 163 331 q 229 129 168 192 q 388 67 290 67 m 368 826 q 346 849 346 826 q 353 867 346 860 l 449 982 q 469 1001 460 996 q 500 1007 479 1007 l 557 1007 q 583 981 583 1007 q 576 964 583 971 l 425 840 q 405 828 414 831 q 382 826 396 826 l 368 826 z "},"ŏ":{"ha":775,"x_min":78,"x_max":697,"o":"m 388 -14 q 220 28 288 -14 q 117 142 153 69 q 79 303 82 214 q 78 361 78 324 q 79 419 78 399 q 117 581 82 510 q 220 694 153 653 q 388 736 288 736 q 555 694 488 736 q 658 581 622 653 q 696 419 693 510 q 697 361 697 399 q 696 303 697 324 q 658 142 693 214 q 555 28 622 69 q 388 -14 488 -14 m 388 67 q 546 129 485 67 q 611 310 607 192 q 613 361 613 331 q 611 413 613 392 q 546 594 607 532 q 388 656 485 656 q 229 594 290 656 q 164 413 168 532 q 163 361 163 392 q 164 310 163 331 q 229 129 168 192 q 388 67 290 67 m 388 819 q 293 843 326 819 q 247 904 260 867 q 235 981 235 942 q 242 999 235 992 q 261 1007 249 1007 l 282 1007 q 301 999 294 1007 q 308 981 308 992 q 324 918 308 947 q 388 889 340 889 q 451 918 436 889 q 467 981 467 947 q 474 999 467 992 q 493 1007 481 1007 l 514 1007 q 533 999 526 1007 q 540 981 540 992 q 528 904 540 942 q 482 843 515 867 q 388 819 449 819 z "},"ô":{"ha":775,"x_min":78,"x_max":697,"o":"m 388 -14 q 220 28 288 -14 q 117 142 153 69 q 79 303 82 214 q 78 361 78 324 q 79 419 78 399 q 117 581 82 510 q 220 694 153 653 q 388 736 288 736 q 555 694 488 736 q 658 581 622 653 q 696 419 693 510 q 697 361 697 399 q 696 303 697 324 q 658 142 693 214 q 555 28 622 69 q 388 -14 488 -14 m 388 67 q 546 129 485 67 q 611 310 607 192 q 613 361 613 331 q 611 413 613 392 q 546 594 607 532 q 388 656 485 656 q 229 594 290 656 q 164 413 168 532 q 163 361 163 392 q 164 310 163 331 q 229 129 168 192 q 388 67 290 67 m 218 826 q 199 842 199 826 q 215 869 199 853 l 336 988 q 361 1005 351 1003 q 381 1007 371 1007 l 394 1007 q 415 1005 406 1007 q 439 988 425 1003 l 560 869 q 576 842 576 853 q 557 826 576 826 l 533 826 q 515 829 525 826 q 499 836 504 832 l 388 919 l 276 836 q 260 829 271 832 q 242 826 250 826 l 218 826 z "},"ö":{"ha":775,"x_min":78,"x_max":697,"o":"m 388 -14 q 220 28 288 -14 q 117 142 153 69 q 79 303 82 214 q 78 361 78 324 q 79 419 78 399 q 117 581 82 510 q 220 694 153 653 q 388 736 288 736 q 555 694 488 736 q 658 581 622 653 q 696 419 693 510 q 697 361 697 399 q 696 303 697 324 q 658 142 693 214 q 555 28 622 69 q 388 -14 488 -14 m 388 67 q 546 129 485 67 q 611 310 607 192 q 613 361 613 331 q 611 413 613 392 q 546 594 607 532 q 388 656 485 656 q 229 594 290 656 q 164 413 168 532 q 163 361 163 392 q 164 310 163 331 q 229 129 168 192 q 388 67 290 67 m 467 871 q 444 879 453 871 q 436 901 436 888 l 436 954 q 444 977 436 968 q 467 986 453 986 l 519 986 q 542 977 533 986 q 551 954 551 968 l 551 901 q 542 879 551 888 q 519 871 533 871 l 467 871 m 254 871 q 232 879 240 871 q 224 901 224 888 l 224 954 q 232 977 224 968 q 254 986 240 986 l 307 986 q 330 977 321 986 q 339 954 339 968 l 339 901 q 330 879 339 888 q 307 871 321 871 l 254 871 z "},"ò":{"ha":775,"x_min":78,"x_max":697,"o":"m 388 -14 q 220 28 288 -14 q 117 142 153 69 q 79 303 82 214 q 78 361 78 324 q 79 419 78 399 q 117 581 82 510 q 220 694 153 653 q 388 736 288 736 q 555 694 488 736 q 658 581 622 653 q 696 419 693 510 q 697 361 697 399 q 696 303 697 324 q 658 142 693 214 q 555 28 622 69 q 388 -14 488 -14 m 388 67 q 546 129 485 67 q 611 310 607 192 q 613 361 613 331 q 611 413 613 392 q 546 594 607 532 q 388 656 485 656 q 229 594 290 656 q 164 413 168 532 q 163 361 163 392 q 164 310 163 331 q 229 129 168 192 q 388 67 290 67 m 408 826 q 385 828 394 826 q 365 840 376 831 l 214 964 q 207 981 207 971 q 233 1007 207 1007 l 290 1007 q 321 1001 311 1007 q 342 982 331 996 l 438 867 q 444 849 444 860 q 422 826 444 826 l 408 826 z "},"ő":{"ha":775,"x_min":78,"x_max":697,"o":"m 388 -14 q 220 28 288 -14 q 117 142 153 69 q 79 303 82 214 q 78 361 78 324 q 79 419 78 399 q 117 581 82 510 q 220 694 153 653 q 388 736 288 736 q 555 694 488 736 q 658 581 622 653 q 696 419 693 510 q 697 361 697 399 q 696 303 697 324 q 658 142 693 214 q 555 28 622 69 q 388 -14 488 -14 m 388 67 q 546 129 485 67 q 611 310 607 192 q 613 361 613 331 q 611 413 613 392 q 546 594 607 532 q 388 656 485 656 q 229 594 290 656 q 164 413 168 532 q 163 361 163 392 q 164 310 163 331 q 229 129 168 192 q 388 67 290 67 m 463 826 q 440 849 440 826 q 443 860 440 854 q 447 869 446 865 l 497 981 q 549 1007 510 1007 l 597 1007 q 625 981 625 1007 q 617 963 625 971 l 518 846 q 476 826 501 826 l 463 826 m 264 826 q 242 849 242 826 q 244 860 242 854 q 249 869 247 865 l 299 981 q 350 1007 311 1007 l 399 1007 q 426 981 426 1007 q 418 963 426 971 l 319 846 q 278 826 303 826 l 264 826 z "},"ō":{"ha":775,"x_min":78,"x_max":697,"o":"m 388 -14 q 220 28 288 -14 q 117 142 153 69 q 79 303 82 214 q 78 361 78 324 q 79 419 78 399 q 117 581 82 510 q 220 694 153 653 q 388 736 288 736 q 555 694 488 736 q 658 581 622 653 q 696 419 693 510 q 697 361 697 399 q 696 303 697 324 q 658 142 693 214 q 555 28 622 69 q 388 -14 488 -14 m 388 67 q 546 129 485 67 q 611 310 607 192 q 613 361 613 331 q 611 413 613 392 q 546 594 607 532 q 388 656 485 656 q 229 594 290 656 q 164 413 168 532 q 163 361 163 392 q 164 310 163 331 q 229 129 168 192 q 388 67 290 67 m 249 864 q 226 872 235 864 q 218 894 218 881 l 218 914 q 226 936 218 928 q 249 944 235 944 l 525 944 q 547 936 539 944 q 556 914 556 928 l 556 894 q 547 872 556 881 q 525 864 539 864 l 249 864 z "},"ø":{"ha":775,"x_min":78,"x_max":697,"o":"m 388 -14 q 220 28 288 -14 q 117 142 153 69 q 79 303 82 214 q 78 361 78 324 q 79 419 78 399 q 117 581 82 510 q 220 694 153 653 q 388 736 288 736 q 555 694 488 736 q 658 581 622 653 q 696 419 693 510 q 697 361 697 399 q 696 303 697 324 q 658 142 693 214 q 555 28 622 69 q 388 -14 488 -14 m 388 67 q 546 129 485 67 q 611 310 607 192 q 613 361 613 331 q 611 413 613 392 q 546 594 607 532 q 388 656 485 656 q 229 594 290 656 q 164 413 168 532 q 163 361 163 392 q 164 310 163 331 q 229 129 168 192 q 388 67 290 67 m 107 -39 q 88 -31 96 -39 q 79 -11 79 -22 q 79 -4 79 -8 q 83 6 79 0 l 614 739 q 624 752 618 744 q 644 760 631 760 l 668 760 q 688 751 679 760 q 696 732 696 743 q 695 726 696 731 q 692 715 694 721 l 161 -18 q 151 -31 157 -24 q 131 -39 144 -39 l 107 -39 z "},"ǿ":{"ha":775,"x_min":78,"x_max":697,"o":"m 388 -14 q 220 28 288 -14 q 117 142 153 69 q 79 303 82 214 q 78 361 78 324 q 79 419 78 399 q 117 581 82 510 q 220 694 153 653 q 388 736 288 736 q 555 694 488 736 q 658 581 622 653 q 696 419 693 510 q 697 361 697 399 q 696 303 697 324 q 658 142 693 214 q 555 28 622 69 q 388 -14 488 -14 m 388 67 q 546 129 485 67 q 611 310 607 192 q 613 361 613 331 q 611 413 613 392 q 546 594 607 532 q 388 656 485 656 q 229 594 290 656 q 164 413 168 532 q 163 361 163 392 q 164 310 163 331 q 229 129 168 192 q 388 67 290 67 m 107 -39 q 88 -31 96 -39 q 79 -11 79 -22 q 79 -4 79 -8 q 83 6 79 0 l 614 739 q 624 752 618 744 q 644 760 631 760 l 668 760 q 688 751 679 760 q 696 732 696 743 q 695 726 696 731 q 692 715 694 721 l 161 -18 q 151 -31 157 -24 q 131 -39 144 -39 l 107 -39 m 368 826 q 346 849 346 826 q 353 867 346 860 l 449 982 q 469 1001 460 996 q 500 1007 479 1007 l 557 1007 q 583 981 583 1007 q 576 964 583 971 l 425 840 q 405 828 414 831 q 382 826 396 826 l 368 826 z "},"õ":{"ha":775,"x_min":78,"x_max":697,"o":"m 388 -14 q 220 28 288 -14 q 117 142 153 69 q 79 303 82 214 q 78 361 78 324 q 79 419 78 399 q 117 581 82 510 q 220 694 153 653 q 388 736 288 736 q 555 694 488 736 q 658 581 622 653 q 696 419 693 510 q 697 361 697 399 q 696 303 697 324 q 658 142 693 214 q 555 28 622 69 q 388 -14 488 -14 m 388 67 q 546 129 485 67 q 611 310 607 192 q 613 361 613 331 q 611 413 613 392 q 546 594 607 532 q 388 656 485 656 q 229 594 290 656 q 164 413 168 532 q 163 361 163 392 q 164 310 163 331 q 229 129 168 192 q 388 67 290 67 m 453 819 q 401 831 421 819 q 364 855 381 843 q 328 867 347 867 q 306 857 313 867 q 292 837 299 847 q 271 826 286 826 l 243 826 q 227 833 233 826 q 221 849 221 840 q 228 886 221 868 q 249 919 236 904 q 281 942 263 933 q 319 950 299 950 q 373 938 353 950 q 410 915 393 926 q 446 903 426 903 q 469 913 463 903 q 481 934 475 924 q 503 944 488 944 l 531 944 q 547 938 542 944 q 553 922 553 931 q 545 884 553 903 q 524 851 538 865 q 492 828 510 836 q 453 819 474 819 z "},"œ":{"ha":1293,"x_min":79,"x_max":1226,"o":"m 389 -14 q 222 28 289 -14 q 119 142 154 69 q 81 303 83 214 q 79 361 79 324 q 81 419 79 399 q 119 581 83 510 q 222 694 154 653 q 389 736 289 736 q 556 694 489 736 q 658 581 624 651 q 762 694 696 653 q 919 736 828 736 q 1085 693 1017 736 q 1190 569 1153 650 q 1226 378 1226 489 l 1226 357 q 1217 335 1226 343 q 1194 326 1208 326 l 700 326 l 700 313 q 729 194 703 250 q 804 102 756 138 q 919 67 853 67 q 1014 85 975 67 q 1076 124 1053 103 q 1106 157 1099 146 q 1125 178 1118 175 q 1147 182 1132 182 l 1169 182 q 1191 174 1182 182 q 1199 154 1200 167 q 1177 106 1197 135 q 1121 50 1157 78 q 1033 4 1085 22 q 919 -14 982 -14 q 763 27 829 -14 q 658 140 696 68 q 556 28 624 69 q 389 -14 489 -14 m 389 67 q 547 129 486 67 q 613 310 608 192 q 614 361 614 331 q 613 413 614 392 q 547 594 608 532 q 389 656 486 656 q 231 594 292 656 q 165 413 169 532 q 164 361 164 392 q 165 310 164 331 q 231 129 169 192 q 389 67 292 67 m 700 404 l 1142 404 l 1142 410 q 1115 535 1142 479 q 1039 623 1089 590 q 919 656 989 656 q 801 623 850 656 q 726 535 751 590 q 700 410 700 479 l 700 404 z "},"p":{"ha":807,"x_min":114,"x_max":731,"o":"m 144 -264 q 122 -256 131 -264 q 114 -233 114 -247 l 114 692 q 122 714 114 706 q 144 722 131 722 l 168 722 q 190 714 182 722 q 199 692 199 706 l 199 626 q 290 705 233 674 q 432 736 346 736 q 569 708 514 736 q 660 632 625 679 q 711 526 694 585 q 729 407 728 468 q 731 361 731 386 q 729 315 731 336 q 711 196 728 254 q 660 90 694 138 q 569 15 625 43 q 432 -14 514 -14 q 290 18 346 -14 q 199 96 233 50 l 199 -233 q 190 -256 199 -247 q 168 -264 182 -264 l 144 -264 m 424 67 q 553 103 506 67 q 621 197 600 139 q 644 322 642 256 q 644 400 646 361 q 621 525 642 467 q 553 619 600 583 q 424 656 506 656 q 296 618 344 656 q 224 524 247 581 q 199 411 201 468 q 197 357 197 390 q 199 303 197 324 q 224 193 200 247 q 298 103 249 139 q 424 67 347 67 z "},"þ":{"ha":807,"x_min":114,"x_max":731,"o":"m 144 -264 q 122 -256 131 -264 q 114 -233 114 -247 l 114 956 q 122 978 114 969 q 144 986 131 986 l 168 986 q 190 978 182 986 q 199 956 199 969 l 199 626 q 290 705 233 674 q 432 736 346 736 q 569 708 514 736 q 660 632 625 679 q 711 526 694 585 q 729 407 728 468 q 731 361 731 386 q 729 315 731 336 q 711 196 728 254 q 660 90 694 138 q 569 15 625 43 q 432 -14 514 -14 q 290 18 346 -14 q 199 96 233 50 l 199 -233 q 190 -256 199 -247 q 168 -264 182 -264 l 144 -264 m 424 67 q 553 103 506 67 q 621 197 600 139 q 644 322 642 256 q 644 400 646 361 q 621 525 642 467 q 553 619 600 583 q 424 656 506 656 q 296 618 344 656 q 224 524 247 581 q 199 411 201 468 q 197 357 197 390 q 199 303 197 324 q 224 193 200 247 q 298 103 249 139 q 424 67 347 67 z "},"q":{"ha":807,"x_min":76,"x_max":693,"o":"m 639 -264 q 617 -256 625 -264 q 608 -233 608 -247 l 608 96 q 517 18 574 50 q 375 -14 461 -14 q 238 15 294 -14 q 147 90 182 43 q 97 196 113 138 q 78 315 81 254 q 76 361 76 336 q 78 407 76 386 q 97 526 81 468 q 147 632 113 585 q 238 708 182 679 q 375 736 294 736 q 517 705 461 736 q 608 626 574 674 l 608 692 q 617 714 608 706 q 639 722 625 722 l 663 722 q 685 714 676 722 q 693 692 693 706 l 693 -233 q 685 -256 693 -247 q 663 -264 676 -264 l 639 -264 m 383 67 q 510 103 461 67 q 583 193 558 139 q 608 303 607 247 q 610 357 610 324 q 608 411 610 390 q 583 524 607 468 q 511 618 560 581 q 383 656 463 656 q 255 619 303 656 q 186 525 207 583 q 163 400 165 467 q 163 322 161 361 q 186 197 165 256 q 255 103 207 139 q 383 67 303 67 z "},"r":{"ha":483,"x_min":113,"x_max":468,"o":"m 143 0 q 121 8 129 0 q 113 31 113 17 l 113 690 q 121 713 113 704 q 143 722 129 722 l 165 722 q 188 713 179 722 q 197 690 197 704 l 197 626 q 269 699 222 675 q 386 722 317 722 l 438 722 q 460 714 451 722 q 468 692 468 706 l 468 672 q 460 650 468 658 q 438 642 451 642 l 378 642 q 246 593 294 642 q 197 461 197 544 l 197 31 q 188 8 197 17 q 165 0 179 0 l 143 0 z "},"ŕ":{"ha":483,"x_min":113,"x_max":468,"o":"m 143 0 q 121 8 129 0 q 113 31 113 17 l 113 690 q 121 713 113 704 q 143 722 129 722 l 165 722 q 188 713 179 722 q 197 690 197 704 l 197 626 q 269 699 222 675 q 386 722 317 722 l 438 722 q 460 714 451 722 q 468 692 468 706 l 468 672 q 460 650 468 658 q 438 642 451 642 l 378 642 q 246 593 294 642 q 197 461 197 544 l 197 31 q 188 8 197 17 q 165 0 179 0 l 143 0 m 246 826 q 224 849 224 826 q 231 867 224 860 l 326 982 q 347 1001 338 996 q 378 1007 357 1007 l 435 1007 q 461 981 461 1007 q 454 964 461 971 l 303 840 q 283 828 292 831 q 260 826 274 826 l 246 826 z "},"ř":{"ha":483,"x_min":76,"x_max":468,"o":"m 143 0 q 121 8 129 0 q 113 31 113 17 l 113 690 q 121 713 113 704 q 143 722 129 722 l 165 722 q 188 713 179 722 q 197 690 197 704 l 197 626 q 269 699 222 675 q 386 722 317 722 l 438 722 q 460 714 451 722 q 468 692 468 706 l 468 672 q 460 650 468 658 q 438 642 451 642 l 378 642 q 246 593 294 642 q 197 461 197 544 l 197 31 q 188 8 197 17 q 165 0 179 0 l 143 0 m 258 826 q 239 829 249 826 q 214 846 229 832 l 93 964 q 76 992 76 981 q 96 1007 76 1007 l 119 1007 q 138 1004 128 1007 q 154 997 149 1001 l 265 914 l 376 997 q 392 1004 382 1001 q 411 1007 403 1007 l 435 1007 q 454 992 454 1007 q 438 964 454 981 l 317 846 q 293 829 303 832 q 272 826 283 826 l 258 826 z "},"ŗ":{"ha":483,"x_min":65,"x_max":468,"o":"m 143 0 q 121 8 129 0 q 113 31 113 17 l 113 690 q 121 713 113 704 q 143 722 129 722 l 165 722 q 188 713 179 722 q 197 690 197 704 l 197 626 q 269 699 222 675 q 386 722 317 722 l 438 722 q 460 714 451 722 q 468 692 468 706 l 468 672 q 460 650 468 658 q 438 642 451 642 l 378 642 q 246 593 294 642 q 197 461 197 544 l 197 31 q 188 8 197 17 q 165 0 179 0 l 143 0 m 86 -292 q 70 -283 75 -292 q 67 -262 65 -275 l 90 -107 q 101 -80 93 -90 q 125 -69 108 -69 l 188 -69 q 203 -76 197 -69 q 208 -92 208 -83 q 203 -117 208 -104 l 147 -262 q 134 -284 142 -276 q 111 -292 126 -292 l 86 -292 z "},"s":{"ha":683,"x_min":64,"x_max":618,"o":"m 342 -14 q 217 6 269 -14 q 132 52 165 25 q 83 106 99 79 q 65 146 67 132 q 75 169 64 161 q 96 176 86 176 l 117 176 q 131 174 125 176 q 147 158 138 171 q 189 113 165 135 q 249 79 213 92 q 342 67 286 67 q 479 99 425 67 q 533 193 533 131 q 512 256 533 232 q 439 297 490 279 q 300 335 388 315 q 166 385 213 356 q 103 452 119 414 q 86 535 86 490 q 114 630 86 583 q 197 706 142 676 q 335 736 251 736 q 451 718 403 736 q 529 674 499 700 q 574 624 560 649 q 590 583 589 599 q 582 561 592 569 q 560 553 572 553 l 539 553 q 521 558 528 553 q 508 571 514 563 q 475 613 494 593 q 423 644 456 632 q 335 656 390 656 q 211 622 251 656 q 171 535 171 588 q 188 481 171 504 q 250 440 204 458 q 383 400 296 421 q 524 352 472 381 q 597 285 575 324 q 618 193 618 246 q 587 90 618 138 q 494 15 556 43 q 342 -14 432 -14 z "},"ś":{"ha":683,"x_min":64,"x_max":618,"o":"m 342 -14 q 217 6 269 -14 q 132 52 165 25 q 83 106 99 79 q 65 146 67 132 q 75 169 64 161 q 96 176 86 176 l 117 176 q 131 174 125 176 q 147 158 138 171 q 189 113 165 135 q 249 79 213 92 q 342 67 286 67 q 479 99 425 67 q 533 193 533 131 q 512 256 533 232 q 439 297 490 279 q 300 335 388 315 q 166 385 213 356 q 103 452 119 414 q 86 535 86 490 q 114 630 86 583 q 197 706 142 676 q 335 736 251 736 q 451 718 403 736 q 529 674 499 700 q 574 624 560 649 q 590 583 589 599 q 582 561 592 569 q 560 553 572 553 l 539 553 q 521 558 528 553 q 508 571 514 563 q 475 613 494 593 q 423 644 456 632 q 335 656 390 656 q 211 622 251 656 q 171 535 171 588 q 188 481 171 504 q 250 440 204 458 q 383 400 296 421 q 524 352 472 381 q 597 285 575 324 q 618 193 618 246 q 587 90 618 138 q 494 15 556 43 q 342 -14 432 -14 m 318 826 q 296 849 296 826 q 303 867 296 860 l 399 982 q 419 1001 410 996 q 450 1007 429 1007 l 507 1007 q 533 981 533 1007 q 526 964 533 971 l 375 840 q 355 828 364 831 q 332 826 346 826 l 318 826 z "},"š":{"ha":683,"x_min":64,"x_max":618,"o":"m 342 -14 q 217 6 269 -14 q 132 52 165 25 q 83 106 99 79 q 65 146 67 132 q 75 169 64 161 q 96 176 86 176 l 117 176 q 131 174 125 176 q 147 158 138 171 q 189 113 165 135 q 249 79 213 92 q 342 67 286 67 q 479 99 425 67 q 533 193 533 131 q 512 256 533 232 q 439 297 490 279 q 300 335 388 315 q 166 385 213 356 q 103 452 119 414 q 86 535 86 490 q 114 630 86 583 q 197 706 142 676 q 335 736 251 736 q 451 718 403 736 q 529 674 499 700 q 574 624 560 649 q 590 583 589 599 q 582 561 592 569 q 560 553 572 553 l 539 553 q 521 558 528 553 q 508 571 514 563 q 475 613 494 593 q 423 644 456 632 q 335 656 390 656 q 211 622 251 656 q 171 535 171 588 q 188 481 171 504 q 250 440 204 458 q 383 400 296 421 q 524 352 472 381 q 597 285 575 324 q 618 193 618 246 q 587 90 618 138 q 494 15 556 43 q 342 -14 432 -14 m 331 826 q 311 829 321 826 q 286 846 301 832 l 165 964 q 149 992 149 981 q 168 1007 149 1007 l 192 1007 q 210 1004 200 1007 q 226 997 221 1001 l 338 914 l 449 997 q 465 1004 454 1001 q 483 1007 475 1007 l 507 1007 q 526 992 526 1007 q 510 964 526 981 l 389 846 q 365 829 375 832 q 344 826 356 826 l 331 826 z "},"ş":{"ha":683,"x_min":64,"x_max":618,"o":"m 361 -306 q 292 -291 322 -304 q 249 -261 263 -278 q 247 -235 236 -244 l 267 -217 q 289 -212 279 -206 q 315 -231 299 -219 q 361 -242 331 -242 q 403 -227 385 -242 q 421 -186 421 -212 q 403 -147 421 -161 q 361 -133 385 -133 q 324 -140 339 -133 q 299 -148 310 -146 q 278 -139 289 -150 l 256 -115 q 253 -95 249 -107 q 263 -74 258 -83 l 289 -10 q 160 31 210 0 q 89 94 111 61 q 65 146 67 128 q 75 169 64 161 q 96 176 86 176 l 117 176 q 131 174 125 176 q 147 158 138 171 q 189 113 165 135 q 249 79 213 92 q 342 67 286 67 q 479 99 425 67 q 533 193 533 131 q 512 256 533 232 q 439 297 490 279 q 300 335 388 315 q 166 385 213 356 q 103 452 119 414 q 86 535 86 490 q 114 630 86 583 q 197 706 142 676 q 335 736 251 736 q 451 718 403 736 q 529 674 499 700 q 574 624 560 649 q 590 583 589 599 q 582 561 592 569 q 560 553 572 553 l 539 553 q 521 558 528 553 q 508 571 514 563 q 475 613 494 593 q 423 644 456 632 q 335 656 390 656 q 211 622 251 656 q 171 535 171 588 q 188 481 171 504 q 250 440 204 458 q 383 400 296 421 q 524 352 472 381 q 597 285 575 324 q 618 193 618 246 q 553 53 618 113 q 365 -14 489 -7 l 333 -81 q 356 -72 342 -75 q 386 -69 371 -69 q 462 -101 432 -69 q 492 -183 492 -133 q 459 -270 492 -233 q 361 -306 426 -307 z "},"ŝ":{"ha":683,"x_min":64,"x_max":618,"o":"m 342 -14 q 217 6 269 -14 q 132 52 165 25 q 83 106 99 79 q 65 146 67 132 q 75 169 64 161 q 96 176 86 176 l 117 176 q 131 174 125 176 q 147 158 138 171 q 189 113 165 135 q 249 79 213 92 q 342 67 286 67 q 479 99 425 67 q 533 193 533 131 q 512 256 533 232 q 439 297 490 279 q 300 335 388 315 q 166 385 213 356 q 103 452 119 414 q 86 535 86 490 q 114 630 86 583 q 197 706 142 676 q 335 736 251 736 q 451 718 403 736 q 529 674 499 700 q 574 624 560 649 q 590 583 589 599 q 582 561 592 569 q 560 553 572 553 l 539 553 q 521 558 528 553 q 508 571 514 563 q 475 613 494 593 q 423 644 456 632 q 335 656 390 656 q 211 622 251 656 q 171 535 171 588 q 188 481 171 504 q 250 440 204 458 q 383 400 296 421 q 524 352 472 381 q 597 285 575 324 q 618 193 618 246 q 587 90 618 138 q 494 15 556 43 q 342 -14 432 -14 m 168 826 q 149 842 149 826 q 165 869 149 853 l 286 988 q 311 1005 301 1003 q 331 1007 321 1007 l 344 1007 q 365 1005 356 1007 q 389 988 375 1003 l 510 869 q 526 842 526 853 q 507 826 526 826 l 483 826 q 465 829 475 826 q 449 836 454 832 l 338 919 l 226 836 q 210 829 221 832 q 192 826 200 826 l 168 826 z "},"ș":{"ha":683,"x_min":64,"x_max":618,"o":"m 342 -14 q 217 6 269 -14 q 132 52 165 25 q 83 106 99 79 q 65 146 67 132 q 75 169 64 161 q 96 176 86 176 l 117 176 q 131 174 125 176 q 147 158 138 171 q 189 113 165 135 q 249 79 213 92 q 342 67 286 67 q 479 99 425 67 q 533 193 533 131 q 512 256 533 232 q 439 297 490 279 q 300 335 388 315 q 166 385 213 356 q 103 452 119 414 q 86 535 86 490 q 114 630 86 583 q 197 706 142 676 q 335 736 251 736 q 451 718 403 736 q 529 674 499 700 q 574 624 560 649 q 590 583 589 599 q 582 561 592 569 q 560 553 572 553 l 539 553 q 521 558 528 553 q 508 571 514 563 q 475 613 494 593 q 423 644 456 632 q 335 656 390 656 q 211 622 251 656 q 171 535 171 588 q 188 481 171 504 q 250 440 204 458 q 383 400 296 421 q 524 352 472 381 q 597 285 575 324 q 618 193 618 246 q 587 90 618 138 q 494 15 556 43 q 342 -14 432 -14 m 272 -292 q 256 -283 261 -292 q 253 -262 251 -275 l 276 -107 q 287 -80 279 -90 q 311 -69 294 -69 l 374 -69 q 389 -76 383 -69 q 394 -92 394 -83 q 389 -117 394 -104 l 333 -262 q 320 -284 328 -276 q 297 -292 313 -292 l 272 -292 z "},"ß":{"ha":789,"x_min":114,"x_max":717,"o":"m 144 0 q 122 8 131 0 q 114 31 114 17 l 114 697 q 142 839 114 774 q 233 945 171 904 q 394 986 294 986 q 558 947 496 986 q 648 851 619 908 q 676 733 676 793 q 657 631 676 674 q 608 563 638 589 q 551 524 579 536 q 653 464 618 503 q 703 377 689 425 q 717 281 717 329 q 700 185 717 235 q 648 94 683 136 q 556 26 613 51 q 417 0 499 0 l 313 0 q 290 8 299 0 q 282 31 282 17 l 282 50 q 290 72 282 64 q 313 81 299 81 l 403 81 q 574 139 517 81 q 632 281 632 197 q 574 424 632 365 q 403 482 517 482 l 313 482 q 290 490 299 482 q 282 513 282 499 l 282 532 q 290 554 282 546 q 313 563 299 563 l 389 563 q 542 608 492 564 q 592 733 592 651 q 538 857 592 808 q 394 906 483 906 q 252 852 306 906 q 199 690 199 799 l 199 31 q 190 8 199 17 q 168 0 182 0 l 144 0 z "},"ſ":{"ha":378,"x_min":26,"x_max":493,"o":"m 211 0 q 189 8 197 0 q 181 31 181 17 l 181 642 l 57 642 q 35 650 43 642 q 26 672 26 658 l 26 692 q 35 714 26 706 q 57 722 43 722 l 181 722 l 181 794 q 198 913 181 860 q 260 997 215 965 q 390 1028 306 1028 l 463 1028 q 485 1019 476 1028 q 493 997 493 1011 l 493 978 q 485 956 493 964 q 463 947 476 947 l 390 947 q 308 926 335 947 q 273 872 281 906 q 265 794 265 838 l 265 31 q 257 8 265 17 q 235 0 249 0 l 211 0 z "},"t":{"ha":499,"x_min":28,"x_max":468,"o":"m 356 0 q 242 31 283 0 q 183 114 200 61 q 167 232 167 167 l 167 642 l 58 642 q 36 650 44 642 q 28 672 28 658 l 28 692 q 36 714 28 706 q 58 722 44 722 l 167 722 l 167 956 q 175 978 167 969 q 197 986 183 986 l 221 986 q 243 978 235 986 q 251 956 251 969 l 251 722 l 424 722 q 446 714 438 722 q 454 692 454 706 l 454 672 q 446 650 454 658 q 424 642 438 642 l 251 642 l 251 238 q 276 122 251 164 q 363 81 300 81 l 438 81 q 460 72 451 81 q 468 50 468 64 l 468 31 q 460 8 468 17 q 438 0 451 0 l 356 0 z "},"ŧ":{"ha":510,"x_min":35,"x_max":475,"o":"m 363 0 q 249 31 290 0 q 190 114 207 61 q 174 232 174 167 l 174 422 l 65 422 q 43 431 51 422 q 35 453 35 439 l 35 472 q 43 494 35 486 q 65 503 51 503 l 174 503 l 174 642 l 65 642 q 43 650 51 642 q 35 672 35 658 l 35 692 q 43 714 35 706 q 65 722 51 722 l 174 722 l 174 956 q 182 978 174 969 q 204 986 190 986 l 228 986 q 250 978 242 986 q 258 956 258 969 l 258 722 l 431 722 q 453 714 444 722 q 461 692 461 706 l 461 672 q 453 650 461 658 q 431 642 444 642 l 258 642 l 258 503 l 431 503 q 453 494 444 503 q 461 472 461 486 l 461 453 q 453 431 461 439 q 431 422 444 422 l 258 422 l 258 238 q 283 122 258 164 q 369 81 307 81 l 444 81 q 467 72 458 81 q 475 50 475 64 l 475 31 q 467 8 475 17 q 444 0 458 0 l 363 0 z "},"ť":{"ha":499,"x_min":28,"x_max":507,"o":"m 356 0 q 242 31 283 0 q 183 114 200 61 q 167 232 167 167 l 167 642 l 58 642 q 36 650 44 642 q 28 672 28 658 l 28 692 q 36 714 28 706 q 58 722 44 722 l 167 722 l 167 956 q 175 978 167 969 q 197 986 183 986 l 221 986 q 243 978 235 986 q 251 956 251 969 l 251 722 l 424 722 q 446 714 438 722 q 454 692 454 706 l 454 672 q 446 650 454 658 q 424 642 438 642 l 251 642 l 251 238 q 276 122 251 164 q 363 81 300 81 l 438 81 q 460 72 451 81 q 468 50 468 64 l 468 31 q 460 8 468 17 q 438 0 451 0 l 356 0 m 385 847 q 369 856 374 847 q 365 876 364 864 l 389 1032 q 399 1059 392 1049 q 424 1069 407 1069 l 486 1069 q 501 1063 496 1069 q 507 1047 507 1056 q 501 1022 507 1035 l 446 876 q 433 855 440 863 q 410 847 425 847 l 385 847 z "},"ț":{"ha":499,"x_min":28,"x_max":468,"o":"m 356 0 q 242 31 283 0 q 183 114 200 61 q 167 232 167 167 l 167 642 l 58 642 q 36 650 44 642 q 28 672 28 658 l 28 692 q 36 714 28 706 q 58 722 44 722 l 167 722 l 167 956 q 175 978 167 969 q 197 986 183 986 l 221 986 q 243 978 235 986 q 251 956 251 969 l 251 722 l 424 722 q 446 714 438 722 q 454 692 454 706 l 454 672 q 446 650 454 658 q 424 642 438 642 l 251 642 l 251 238 q 276 122 251 164 q 363 81 300 81 l 438 81 q 460 72 451 81 q 468 50 468 64 l 468 31 q 460 8 468 17 q 438 0 451 0 l 356 0 m 250 -292 q 234 -283 239 -292 q 231 -262 229 -275 l 254 -107 q 265 -80 257 -90 q 289 -69 272 -69 l 351 -69 q 367 -76 361 -69 q 372 -92 372 -83 q 367 -117 372 -104 l 311 -262 q 298 -284 306 -276 q 275 -292 290 -292 l 250 -292 z "},"u":{"ha":813,"x_min":106,"x_max":700,"o":"m 383 -14 q 227 27 289 -14 q 135 139 165 68 q 106 297 106 210 l 106 692 q 114 714 106 706 q 136 722 122 722 l 160 722 q 182 714 174 722 q 190 692 190 706 l 190 304 q 397 67 190 67 q 556 130 496 67 q 615 304 615 193 l 615 692 q 624 714 615 706 q 646 722 632 722 l 669 722 q 692 714 683 722 q 700 692 700 706 l 700 31 q 692 8 700 17 q 669 0 683 0 l 646 0 q 624 8 632 0 q 615 31 615 17 l 615 96 q 526 17 578 47 q 383 -14 474 -14 z "},"ú":{"ha":813,"x_min":106,"x_max":700,"o":"m 383 -14 q 227 27 289 -14 q 135 139 165 68 q 106 297 106 210 l 106 692 q 114 714 106 706 q 136 722 122 722 l 160 722 q 182 714 174 722 q 190 692 190 706 l 190 304 q 397 67 190 67 q 556 130 496 67 q 615 304 615 193 l 615 692 q 624 714 615 706 q 646 722 632 722 l 669 722 q 692 714 683 722 q 700 692 700 706 l 700 31 q 692 8 700 17 q 669 0 683 0 l 646 0 q 624 8 632 0 q 615 31 615 17 l 615 96 q 526 17 578 47 q 383 -14 474 -14 m 382 826 q 360 849 360 826 q 367 867 360 860 l 463 982 q 483 1001 474 996 q 514 1007 493 1007 l 571 1007 q 597 981 597 1007 q 590 964 597 971 l 439 840 q 419 828 428 831 q 396 826 410 826 l 382 826 z "},"ŭ":{"ha":813,"x_min":106,"x_max":700,"o":"m 383 -14 q 227 27 289 -14 q 135 139 165 68 q 106 297 106 210 l 106 692 q 114 714 106 706 q 136 722 122 722 l 160 722 q 182 714 174 722 q 190 692 190 706 l 190 304 q 397 67 190 67 q 556 130 496 67 q 615 304 615 193 l 615 692 q 624 714 615 706 q 646 722 632 722 l 669 722 q 692 714 683 722 q 700 692 700 706 l 700 31 q 692 8 700 17 q 669 0 683 0 l 646 0 q 624 8 632 0 q 615 31 615 17 l 615 96 q 526 17 578 47 q 383 -14 474 -14 m 401 819 q 307 843 340 819 q 261 904 274 867 q 249 981 249 942 q 256 999 249 992 q 275 1007 263 1007 l 296 1007 q 315 999 308 1007 q 322 981 322 992 q 338 918 322 947 q 401 889 354 889 q 465 918 450 889 q 481 981 481 947 q 488 999 481 992 q 507 1007 494 1007 l 528 1007 q 547 999 540 1007 q 554 981 554 992 q 542 904 554 942 q 496 843 529 867 q 401 819 463 819 z "},"û":{"ha":813,"x_min":106,"x_max":700,"o":"m 383 -14 q 227 27 289 -14 q 135 139 165 68 q 106 297 106 210 l 106 692 q 114 714 106 706 q 136 722 122 722 l 160 722 q 182 714 174 722 q 190 692 190 706 l 190 304 q 397 67 190 67 q 556 130 496 67 q 615 304 615 193 l 615 692 q 624 714 615 706 q 646 722 632 722 l 669 722 q 692 714 683 722 q 700 692 700 706 l 700 31 q 692 8 700 17 q 669 0 683 0 l 646 0 q 624 8 632 0 q 615 31 615 17 l 615 96 q 526 17 578 47 q 383 -14 474 -14 m 232 826 q 213 842 213 826 q 229 869 213 853 l 350 988 q 375 1005 365 1003 q 394 1007 385 1007 l 408 1007 q 429 1005 419 1007 q 453 988 439 1003 l 574 869 q 590 842 590 853 q 571 826 590 826 l 547 826 q 528 829 539 826 q 513 836 518 832 l 401 919 l 290 836 q 274 829 285 832 q 256 826 264 826 l 232 826 z "},"ü":{"ha":813,"x_min":106,"x_max":700,"o":"m 383 -14 q 227 27 289 -14 q 135 139 165 68 q 106 297 106 210 l 106 692 q 114 714 106 706 q 136 722 122 722 l 160 722 q 182 714 174 722 q 190 692 190 706 l 190 304 q 397 67 190 67 q 556 130 496 67 q 615 304 615 193 l 615 692 q 624 714 615 706 q 646 722 632 722 l 669 722 q 692 714 683 722 q 700 692 700 706 l 700 31 q 692 8 700 17 q 669 0 683 0 l 646 0 q 624 8 632 0 q 615 31 615 17 l 615 96 q 526 17 578 47 q 383 -14 474 -14 m 481 871 q 458 879 467 871 q 450 901 450 888 l 450 954 q 458 977 450 968 q 481 986 467 986 l 533 986 q 556 977 547 986 q 565 954 565 968 l 565 901 q 556 879 565 888 q 533 871 547 871 l 481 871 m 268 871 q 246 879 254 871 q 238 901 238 888 l 238 954 q 246 977 238 968 q 268 986 254 986 l 321 986 q 344 977 335 986 q 353 954 353 968 l 353 901 q 344 879 353 888 q 321 871 335 871 l 268 871 z "},"ù":{"ha":813,"x_min":106,"x_max":700,"o":"m 383 -14 q 227 27 289 -14 q 135 139 165 68 q 106 297 106 210 l 106 692 q 114 714 106 706 q 136 722 122 722 l 160 722 q 182 714 174 722 q 190 692 190 706 l 190 304 q 397 67 190 67 q 556 130 496 67 q 615 304 615 193 l 615 692 q 624 714 615 706 q 646 722 632 722 l 669 722 q 692 714 683 722 q 700 692 700 706 l 700 31 q 692 8 700 17 q 669 0 683 0 l 646 0 q 624 8 632 0 q 615 31 615 17 l 615 96 q 526 17 578 47 q 383 -14 474 -14 m 422 826 q 399 828 408 826 q 379 840 390 831 l 228 964 q 221 981 221 971 q 247 1007 221 1007 l 304 1007 q 335 1001 325 1007 q 356 982 344 996 l 451 867 q 458 849 458 860 q 436 826 458 826 l 422 826 z "},"ű":{"ha":813,"x_min":106,"x_max":700,"o":"m 383 -14 q 227 27 289 -14 q 135 139 165 68 q 106 297 106 210 l 106 692 q 114 714 106 706 q 136 722 122 722 l 160 722 q 182 714 174 722 q 190 692 190 706 l 190 304 q 397 67 190 67 q 556 130 496 67 q 615 304 615 193 l 615 692 q 624 714 615 706 q 646 722 632 722 l 669 722 q 692 714 683 722 q 700 692 700 706 l 700 31 q 692 8 700 17 q 669 0 683 0 l 646 0 q 624 8 632 0 q 615 31 615 17 l 615 96 q 526 17 578 47 q 383 -14 474 -14 m 476 826 q 454 849 454 826 q 457 860 454 854 q 461 869 460 865 l 511 981 q 563 1007 524 1007 l 611 1007 q 639 981 639 1007 q 631 963 639 971 l 532 846 q 490 826 515 826 l 476 826 m 278 826 q 256 849 256 826 q 258 860 256 854 q 263 869 261 865 l 313 981 q 364 1007 325 1007 l 413 1007 q 440 981 440 1007 q 432 963 440 971 l 333 846 q 292 826 317 826 l 278 826 z "},"ū":{"ha":813,"x_min":106,"x_max":700,"o":"m 383 -14 q 227 27 289 -14 q 135 139 165 68 q 106 297 106 210 l 106 692 q 114 714 106 706 q 136 722 122 722 l 160 722 q 182 714 174 722 q 190 692 190 706 l 190 304 q 397 67 190 67 q 556 130 496 67 q 615 304 615 193 l 615 692 q 624 714 615 706 q 646 722 632 722 l 669 722 q 692 714 683 722 q 700 692 700 706 l 700 31 q 692 8 700 17 q 669 0 683 0 l 646 0 q 624 8 632 0 q 615 31 615 17 l 615 96 q 526 17 578 47 q 383 -14 474 -14 m 263 864 q 240 872 249 864 q 232 894 232 881 l 232 914 q 240 936 232 928 q 263 944 249 944 l 539 944 q 561 936 553 944 q 569 914 569 928 l 569 894 q 561 872 569 881 q 539 864 553 864 l 263 864 z "},"ų":{"ha":813,"x_min":106,"x_max":700,"o":"m 657 -306 q 580 -285 615 -306 q 523 -224 544 -264 q 501 -125 501 -183 q 519 -46 501 -81 q 564 13 538 -11 q 615 49 590 38 q 615 54 615 51 q 615 60 615 57 l 615 96 q 526 17 578 47 q 383 -14 474 -14 q 227 27 289 -14 q 135 139 165 68 q 106 297 106 210 l 106 692 q 114 714 106 706 q 136 722 122 722 l 160 722 q 182 714 174 722 q 190 692 190 706 l 190 304 q 397 67 190 67 q 556 130 496 67 q 615 304 615 193 l 615 692 q 624 714 615 706 q 646 722 632 722 l 669 722 q 692 714 683 722 q 700 692 700 706 l 700 31 q 695 15 700 22 q 678 0 690 7 l 674 -3 q 607 -50 629 -22 q 585 -125 585 -78 q 606 -202 585 -178 q 663 -226 628 -226 l 669 -226 q 692 -235 683 -226 q 700 -257 700 -243 l 700 -275 q 692 -297 700 -289 q 669 -306 683 -306 l 657 -306 z "},"ů":{"ha":813,"x_min":106,"x_max":700,"o":"m 383 -14 q 227 27 289 -14 q 135 139 165 68 q 106 297 106 210 l 106 692 q 114 714 106 706 q 136 722 122 722 l 160 722 q 182 714 174 722 q 190 692 190 706 l 190 304 q 397 67 190 67 q 556 130 496 67 q 615 304 615 193 l 615 692 q 624 714 615 706 q 646 722 632 722 l 669 722 q 692 714 683 722 q 700 692 700 706 l 700 31 q 692 8 700 17 q 669 0 683 0 l 646 0 q 624 8 632 0 q 615 31 615 17 l 615 96 q 526 17 578 47 q 383 -14 474 -14 m 401 819 q 323 849 356 819 q 290 924 290 878 q 323 999 290 969 q 401 1028 356 1028 q 480 999 447 1028 q 513 924 513 969 q 480 849 513 878 q 401 819 447 819 m 401 882 q 431 894 419 882 q 443 924 443 906 q 431 953 443 942 q 401 965 419 965 q 372 953 383 965 q 360 924 360 942 q 372 894 360 906 q 401 882 383 882 z "},"ũ":{"ha":813,"x_min":106,"x_max":700,"o":"m 383 -14 q 227 27 289 -14 q 135 139 165 68 q 106 297 106 210 l 106 692 q 114 714 106 706 q 136 722 122 722 l 160 722 q 182 714 174 722 q 190 692 190 706 l 190 304 q 397 67 190 67 q 556 130 496 67 q 615 304 615 193 l 615 692 q 624 714 615 706 q 646 722 632 722 l 669 722 q 692 714 683 722 q 700 692 700 706 l 700 31 q 692 8 700 17 q 669 0 683 0 l 646 0 q 624 8 632 0 q 615 31 615 17 l 615 96 q 526 17 578 47 q 383 -14 474 -14 m 467 819 q 415 831 435 819 q 378 855 394 843 q 342 867 361 867 q 319 857 326 867 q 306 837 313 847 q 285 826 300 826 l 257 826 q 241 833 247 826 q 235 849 235 840 q 242 886 235 868 q 263 919 250 904 q 294 942 276 933 q 333 950 313 950 q 387 938 367 950 q 424 915 407 926 q 460 903 440 903 q 483 913 476 903 q 495 934 489 924 q 517 944 501 944 l 544 944 q 561 938 556 944 q 567 922 567 931 q 559 884 567 903 q 538 851 551 865 q 506 828 524 836 q 467 819 488 819 z "},"v":{"ha":744,"x_min":50,"x_max":694,"o":"m 361 0 q 327 10 339 0 q 308 35 315 19 l 53 679 q 50 694 50 688 q 58 714 50 706 q 78 722 67 722 l 107 722 q 128 715 121 722 q 138 701 136 707 l 372 101 l 607 701 q 617 715 610 707 q 638 722 624 722 l 667 722 q 686 714 678 722 q 694 694 694 706 q 692 679 694 688 l 436 35 q 418 10 431 19 q 383 0 406 0 l 361 0 z "},"w":{"ha":1092,"x_min":57,"x_max":1035,"o":"m 300 0 q 272 8 282 0 q 256 35 263 17 l 60 679 q 57 694 57 688 q 65 714 57 706 q 85 722 74 722 l 111 722 q 133 715 125 722 q 142 701 140 707 l 313 124 l 494 694 q 506 713 497 703 q 532 722 514 722 l 560 722 q 587 713 578 722 q 597 694 596 703 l 779 124 l 950 701 q 959 715 951 707 q 981 722 967 722 l 1007 722 q 1026 714 1018 722 q 1035 694 1035 706 q 1032 679 1035 688 l 836 35 q 821 8 831 17 q 792 0 811 0 l 768 0 q 738 8 750 0 q 721 35 726 17 l 546 582 l 371 35 q 354 8 365 17 q 324 0 343 0 l 300 0 z "},"ẃ":{"ha":1092,"x_min":57,"x_max":1035,"o":"m 300 0 q 272 8 282 0 q 256 35 263 17 l 60 679 q 57 694 57 688 q 65 714 57 706 q 85 722 74 722 l 111 722 q 133 715 125 722 q 142 701 140 707 l 313 124 l 494 694 q 506 713 497 703 q 532 722 514 722 l 560 722 q 587 713 578 722 q 597 694 596 703 l 779 124 l 950 701 q 959 715 951 707 q 981 722 967 722 l 1007 722 q 1026 714 1018 722 q 1035 694 1035 706 q 1032 679 1035 688 l 836 35 q 821 8 831 17 q 792 0 811 0 l 768 0 q 738 8 750 0 q 721 35 726 17 l 546 582 l 371 35 q 354 8 365 17 q 324 0 343 0 l 300 0 m 526 826 q 504 849 504 826 q 511 867 504 860 l 607 982 q 628 1001 618 996 q 658 1007 638 1007 l 715 1007 q 742 981 742 1007 q 735 964 742 971 l 583 840 q 563 828 572 831 q 540 826 554 826 l 526 826 z "},"ŵ":{"ha":1092,"x_min":57,"x_max":1035,"o":"m 300 0 q 272 8 282 0 q 256 35 263 17 l 60 679 q 57 694 57 688 q 65 714 57 706 q 85 722 74 722 l 111 722 q 133 715 125 722 q 142 701 140 707 l 313 124 l 494 694 q 506 713 497 703 q 532 722 514 722 l 560 722 q 587 713 578 722 q 597 694 596 703 l 779 124 l 950 701 q 959 715 951 707 q 981 722 967 722 l 1007 722 q 1026 714 1018 722 q 1035 694 1035 706 q 1032 679 1035 688 l 836 35 q 821 8 831 17 q 792 0 811 0 l 768 0 q 738 8 750 0 q 721 35 726 17 l 546 582 l 371 35 q 354 8 365 17 q 324 0 343 0 l 300 0 m 376 826 q 357 842 357 826 q 374 869 357 853 l 494 988 q 519 1005 510 1003 q 539 1007 529 1007 l 553 1007 q 574 1005 564 1007 q 597 988 583 1003 l 718 869 q 735 842 735 853 q 715 826 735 826 l 692 826 q 673 829 683 826 q 657 836 663 832 l 546 919 l 435 836 q 419 829 429 832 q 400 826 408 826 l 376 826 z "},"ẅ":{"ha":1092,"x_min":57,"x_max":1035,"o":"m 300 0 q 272 8 282 0 q 256 35 263 17 l 60 679 q 57 694 57 688 q 65 714 57 706 q 85 722 74 722 l 111 722 q 133 715 125 722 q 142 701 140 707 l 313 124 l 494 694 q 506 713 497 703 q 532 722 514 722 l 560 722 q 587 713 578 722 q 597 694 596 703 l 779 124 l 950 701 q 959 715 951 707 q 981 722 967 722 l 1007 722 q 1026 714 1018 722 q 1035 694 1035 706 q 1032 679 1035 688 l 836 35 q 821 8 831 17 q 792 0 811 0 l 768 0 q 738 8 750 0 q 721 35 726 17 l 546 582 l 371 35 q 354 8 365 17 q 324 0 343 0 l 300 0 m 625 871 q 603 879 611 871 q 594 901 594 888 l 594 954 q 603 977 594 968 q 625 986 611 986 l 678 986 q 701 977 692 986 q 710 954 710 968 l 710 901 q 701 879 710 888 q 678 871 692 871 l 625 871 m 413 871 q 390 879 399 871 q 382 901 382 888 l 382 954 q 390 977 382 968 q 413 986 399 986 l 465 986 q 488 977 479 986 q 497 954 497 968 l 497 901 q 488 879 497 888 q 465 871 479 871 l 413 871 z "},"ẁ":{"ha":1092,"x_min":57,"x_max":1035,"o":"m 300 0 q 272 8 282 0 q 256 35 263 17 l 60 679 q 57 694 57 688 q 65 714 57 706 q 85 722 74 722 l 111 722 q 133 715 125 722 q 142 701 140 707 l 313 124 l 494 694 q 506 713 497 703 q 532 722 514 722 l 560 722 q 587 713 578 722 q 597 694 596 703 l 779 124 l 950 701 q 959 715 951 707 q 981 722 967 722 l 1007 722 q 1026 714 1018 722 q 1035 694 1035 706 q 1032 679 1035 688 l 836 35 q 821 8 831 17 q 792 0 811 0 l 768 0 q 738 8 750 0 q 721 35 726 17 l 546 582 l 371 35 q 354 8 365 17 q 324 0 343 0 l 300 0 m 567 826 q 544 828 553 826 q 524 840 535 831 l 372 964 q 365 981 365 971 q 392 1007 365 1007 l 449 1007 q 479 1001 469 1007 q 500 982 489 996 l 596 867 q 603 849 603 860 q 581 826 603 826 l 567 826 z "},"x":{"ha":719,"x_min":49,"x_max":669,"o":"m 76 0 q 57 8 65 0 q 49 28 49 17 q 51 40 49 33 q 60 56 53 46 l 304 369 l 72 667 q 63 683 65 676 q 61 694 61 689 q 69 714 61 706 q 89 722 78 722 l 118 722 q 140 715 132 722 q 153 701 147 708 l 361 433 l 569 700 q 583 715 576 707 q 604 722 590 722 l 632 722 q 651 714 643 722 q 660 694 660 706 q 658 683 660 689 q 649 667 656 676 l 414 365 l 658 56 q 667 40 665 46 q 669 28 669 33 q 661 8 669 17 q 642 0 653 0 l 613 0 q 591 7 599 0 q 578 21 583 14 l 358 301 l 139 21 q 126 7 133 14 q 104 0 118 0 l 76 0 z "},"y":{"ha":739,"x_min":49,"x_max":697,"o":"m 235 -264 q 215 -256 224 -264 q 207 -236 207 -247 q 209 -224 207 -231 q 215 -208 211 -218 l 322 42 l 57 667 q 49 694 49 688 q 57 714 49 706 q 76 722 65 722 l 106 722 q 127 716 119 722 q 138 701 135 710 l 371 151 l 610 701 q 621 716 614 710 q 642 722 628 722 l 669 722 q 689 714 681 722 q 697 694 697 706 q 689 667 697 688 l 294 -243 q 283 -258 290 -251 q 263 -264 276 -264 l 235 -264 z "},"ý":{"ha":739,"x_min":49,"x_max":697,"o":"m 235 -264 q 215 -256 224 -264 q 207 -236 207 -247 q 209 -224 207 -231 q 215 -208 211 -218 l 322 42 l 57 667 q 49 694 49 688 q 57 714 49 706 q 76 722 65 722 l 106 722 q 127 716 119 722 q 138 701 135 710 l 371 151 l 610 701 q 621 716 614 710 q 642 722 628 722 l 669 722 q 689 714 681 722 q 697 694 697 706 q 689 667 697 688 l 294 -243 q 283 -258 290 -251 q 263 -264 276 -264 l 235 -264 m 344 826 q 322 849 322 826 q 329 867 322 860 l 425 982 q 446 1001 436 996 q 476 1007 456 1007 l 533 1007 q 560 981 560 1007 q 553 964 560 971 l 401 840 q 381 828 390 831 q 358 826 372 826 l 344 826 z "},"ŷ":{"ha":739,"x_min":49,"x_max":697,"o":"m 235 -264 q 215 -256 224 -264 q 207 -236 207 -247 q 209 -224 207 -231 q 215 -208 211 -218 l 322 42 l 57 667 q 49 694 49 688 q 57 714 49 706 q 76 722 65 722 l 106 722 q 127 716 119 722 q 138 701 135 710 l 371 151 l 610 701 q 621 716 614 710 q 642 722 628 722 l 669 722 q 689 714 681 722 q 697 694 697 706 q 689 667 697 688 l 294 -243 q 283 -258 290 -251 q 263 -264 276 -264 l 235 -264 m 194 826 q 175 842 175 826 q 192 869 175 853 l 313 988 q 338 1005 328 1003 q 357 1007 347 1007 l 371 1007 q 392 1005 382 1007 q 415 988 401 1003 l 536 869 q 553 842 553 853 q 533 826 553 826 l 510 826 q 491 829 501 826 q 475 836 481 832 l 364 919 l 253 836 q 237 829 247 832 q 218 826 226 826 l 194 826 z "},"ÿ":{"ha":739,"x_min":49,"x_max":697,"o":"m 235 -264 q 215 -256 224 -264 q 207 -236 207 -247 q 209 -224 207 -231 q 215 -208 211 -218 l 322 42 l 57 667 q 49 694 49 688 q 57 714 49 706 q 76 722 65 722 l 106 722 q 127 716 119 722 q 138 701 135 710 l 371 151 l 610 701 q 621 716 614 710 q 642 722 628 722 l 669 722 q 689 714 681 722 q 697 694 697 706 q 689 667 697 688 l 294 -243 q 283 -258 290 -251 q 263 -264 276 -264 l 235 -264 m 443 871 q 421 879 429 871 q 413 901 413 888 l 413 954 q 421 977 413 968 q 443 986 429 986 l 496 986 q 519 977 510 986 q 528 954 528 968 l 528 901 q 519 879 528 888 q 496 871 510 871 l 443 871 m 231 871 q 208 879 217 871 q 200 901 200 888 l 200 954 q 208 977 200 968 q 231 986 217 986 l 283 986 q 306 977 297 986 q 315 954 315 968 l 315 901 q 306 879 315 888 q 283 871 297 871 l 231 871 z "},"ỳ":{"ha":739,"x_min":49,"x_max":697,"o":"m 235 -264 q 215 -256 224 -264 q 207 -236 207 -247 q 209 -224 207 -231 q 215 -208 211 -218 l 322 42 l 57 667 q 49 694 49 688 q 57 714 49 706 q 76 722 65 722 l 106 722 q 127 716 119 722 q 138 701 135 710 l 371 151 l 610 701 q 621 716 614 710 q 642 722 628 722 l 669 722 q 689 714 681 722 q 697 694 697 706 q 689 667 697 688 l 294 -243 q 283 -258 290 -251 q 263 -264 276 -264 l 235 -264 m 385 826 q 362 828 371 826 q 342 840 353 831 l 190 964 q 183 981 183 971 q 210 1007 183 1007 l 267 1007 q 297 1001 288 1007 q 318 982 307 996 l 414 867 q 421 849 421 860 q 399 826 421 826 l 385 826 z "},"z":{"ha":681,"x_min":58,"x_max":628,"o":"m 89 0 q 67 8 75 0 q 58 31 58 17 l 58 54 q 65 76 58 65 q 78 97 71 88 l 486 642 l 103 642 q 81 650 89 642 q 72 672 72 658 l 72 692 q 81 714 72 706 q 103 722 89 722 l 569 722 q 592 714 583 722 q 600 692 600 706 l 600 668 q 594 647 600 657 q 581 625 588 636 l 175 81 l 597 81 q 619 72 611 81 q 628 50 628 64 l 628 31 q 619 8 628 17 q 597 0 611 0 l 89 0 z "},"ź":{"ha":681,"x_min":58,"x_max":628,"o":"m 89 0 q 67 8 75 0 q 58 31 58 17 l 58 54 q 65 76 58 65 q 78 97 71 88 l 486 642 l 103 642 q 81 650 89 642 q 72 672 72 658 l 72 692 q 81 714 72 706 q 103 722 89 722 l 569 722 q 592 714 583 722 q 600 692 600 706 l 600 668 q 594 647 600 657 q 581 625 588 636 l 175 81 l 597 81 q 619 72 611 81 q 628 50 628 64 l 628 31 q 619 8 628 17 q 597 0 611 0 l 89 0 m 321 826 q 299 849 299 826 q 306 867 299 860 l 401 982 q 422 1001 413 996 q 453 1007 432 1007 l 510 1007 q 536 981 536 1007 q 529 964 536 971 l 378 840 q 358 828 367 831 q 335 826 349 826 l 321 826 z "},"ž":{"ha":681,"x_min":58,"x_max":628,"o":"m 89 0 q 67 8 75 0 q 58 31 58 17 l 58 54 q 65 76 58 65 q 78 97 71 88 l 486 642 l 103 642 q 81 650 89 642 q 72 672 72 658 l 72 692 q 81 714 72 706 q 103 722 89 722 l 569 722 q 592 714 583 722 q 600 692 600 706 l 600 668 q 594 647 600 657 q 581 625 588 636 l 175 81 l 597 81 q 619 72 611 81 q 628 50 628 64 l 628 31 q 619 8 628 17 q 597 0 611 0 l 89 0 m 333 826 q 314 829 324 826 q 289 846 304 832 l 168 964 q 151 992 151 981 q 171 1007 151 1007 l 194 1007 q 213 1004 203 1007 q 229 997 224 1001 l 340 914 l 451 997 q 467 1004 457 1001 q 486 1007 478 1007 l 510 1007 q 529 992 529 1007 q 513 964 529 981 l 392 846 q 368 829 378 832 q 347 826 358 826 l 333 826 z "},"ż":{"ha":681,"x_min":58,"x_max":628,"o":"m 89 0 q 67 8 75 0 q 58 31 58 17 l 58 54 q 65 76 58 65 q 78 97 71 88 l 486 642 l 103 642 q 81 650 89 642 q 72 672 72 658 l 72 692 q 81 714 72 706 q 103 722 89 722 l 569 722 q 592 714 583 722 q 600 692 600 706 l 600 668 q 594 647 600 657 q 581 625 588 636 l 175 81 l 597 81 q 619 72 611 81 q 628 50 628 64 l 628 31 q 619 8 628 17 q 597 0 611 0 l 89 0 m 306 857 q 283 865 292 857 q 275 888 275 874 l 275 954 q 283 977 275 968 q 306 986 292 986 l 372 986 q 395 977 386 986 q 404 954 404 968 l 404 888 q 395 865 404 874 q 372 857 386 857 l 306 857 z "},"ﬁ":{"ha":688,"x_min":26,"x_max":575,"o":"m 211 0 q 189 8 197 0 q 181 31 181 17 l 181 642 l 57 642 q 35 650 43 642 q 26 672 26 658 l 26 692 q 35 714 26 706 q 57 722 43 722 l 181 722 l 181 801 q 198 915 181 864 q 260 997 215 967 q 390 1028 306 1028 l 544 1028 q 567 1019 558 1028 q 575 997 575 1011 l 575 978 q 567 956 575 964 q 544 947 558 947 l 390 947 q 291 908 317 947 q 265 794 265 868 l 265 722 l 544 722 q 567 714 558 722 q 575 692 575 706 l 575 31 q 567 8 575 17 q 544 0 558 0 l 521 0 q 499 8 507 0 q 490 31 490 17 l 490 642 l 265 642 l 265 31 q 257 8 265 17 q 235 0 249 0 l 211 0 z "},"ﬂ":{"ha":771,"x_min":26,"x_max":657,"o":"m 211 0 q 189 8 197 0 q 181 31 181 17 l 181 642 l 57 642 q 35 650 43 642 q 26 672 26 658 l 26 692 q 35 714 26 706 q 57 722 43 722 l 181 722 l 181 801 q 198 915 181 864 q 260 997 215 967 q 390 1028 306 1028 l 463 1028 q 485 1019 476 1028 q 493 997 493 1011 l 493 978 q 485 956 493 964 q 463 947 476 947 l 390 947 q 291 908 317 947 q 265 794 265 868 l 265 722 l 572 722 l 572 997 q 581 1019 572 1011 q 603 1028 589 1028 l 626 1028 q 649 1019 640 1028 q 657 997 657 1011 l 657 31 q 649 8 657 17 q 626 0 640 0 l 603 0 q 581 8 589 0 q 572 31 572 17 l 572 642 l 265 642 l 265 31 q 257 8 265 17 q 235 0 249 0 l 211 0 z "},"ª":{"ha":510,"x_min":81,"x_max":410,"o":"m 210 596 q 115 627 150 596 q 81 701 81 658 q 123 792 81 757 q 238 836 165 826 l 325 849 q 322 865 325 853 q 303 888 318 878 q 256 899 289 899 q 210 892 225 899 q 184 878 194 885 q 158 871 174 871 l 135 871 q 112 876 121 871 q 104 894 103 881 q 126 928 106 908 q 181 964 146 949 q 260 979 215 979 q 369 938 329 979 q 410 831 410 896 l 410 633 q 401 611 410 619 q 379 603 393 603 l 356 603 q 333 611 342 603 q 325 633 325 619 l 325 643 q 281 610 314 624 q 210 596 247 596 m 222 671 q 302 703 279 671 q 325 776 325 735 l 260 767 q 184 742 201 758 q 167 704 167 725 q 183 680 167 689 q 222 671 200 671 z "}}}
